<svg xmlns="http://www.w3.org/2000/svg" xmlns:xlink="http://www.w3.org/1999/xlink" width="294" height="220" viewBox="0 0 294 220">
  <defs>
    <clipPath id="clip-path">
      <rect id="Rectangle_1" data-name="Rectangle 1" width="294" height="220" transform="translate(-3608 -3352)" fill="#fff" stroke="#707070" stroke-width="1"/>
    </clipPath>
    <clipPath id="clip-path-2">
      <rect width="292.948" height="254.733" fill="none"/>
    </clipPath>
    <clipPath id="clip-path-3">
      <path id="Clip_10" data-name="Clip 10" d="M0,0H-46.58V54.936H0Z" transform="translate(-0.226 0.06)" fill="none"/>
    </clipPath>
    <clipPath id="clip-path-4">
      <path id="Clip_13" data-name="Clip 13" d="M0,0H-39.687V54.15H0Z" transform="translate(-0.115 0.846)" fill="none"/>
    </clipPath>
    <clipPath id="clip-path-5">
      <path id="Clip_36" data-name="Clip 36" d="M0,0H-7.114V9.6H0Z" transform="translate(0 0.106)" fill="none"/>
    </clipPath>
    <clipPath id="clip-path-6">
      <path id="Clip_41" data-name="Clip 41" d="M0,0H-7.623V9.97H0Z" transform="translate(-0.252 0.03)" fill="none"/>
    </clipPath>
  </defs>
  <g id="Mask_Group_1" data-name="Mask Group 1" transform="translate(3608 3352)" clip-path="url(#clip-path)">
    <g id="Repeat_Grid_3" data-name="Repeat Grid 3" transform="translate(-3607.5 -3352)" clip-path="url(#clip-path-2)">
      <g transform="translate(-1180.452 -163)">
        <g id="Group_20_Copy_3" data-name="Group 20 Copy 3" transform="translate(1346 163)">
          <path id="Fill_1" data-name="Fill 1" d="M0,19.281A25.376,25.376,0,0,0,22.288,32.5H99.425A25.292,25.292,0,0,0,123.751,0C95.179,12.056,55.972,19.5,12.7,19.5q-6.413,0-12.7-.218" transform="translate(2.6 53.3)" fill="#fff" opacity="0.75"/>
          <path id="Fill_3" data-name="Fill 3" d="M109.78,36.292A24.257,24.257,0,0,0,85.753,14.723a23.982,23.982,0,0,0-3.192.236A33.481,33.481,0,0,0,21.19,33.77c0,.536.016,1.066.041,1.6A25.453,25.453,0,0,0,3.068,72.582q6.249.213,12.628.218c43.019,0,82-7.465,110.4-19.556a25.373,25.373,0,0,0-16.32-16.952" fill="#fff" opacity="0.9"/>
        </g>
        <g id="Group_47" data-name="Group 47" transform="matrix(0.966, -0.259, 0.259, 0.966, 1406.478, 140.909)">
          <path id="Fill_1-2" data-name="Fill 1" d="M-22,0c.468-.066,13.47.8,13.47.8L0,11.647-4.766,17l-10.767-1Z" transform="translate(-173 25)" fill="#ff525f"/>
          <path id="Fill_3-2" data-name="Fill 3" d="M-11.379.069A32.4,32.4,0,0,1-.036,14.379c.157.381-.228.771-.565.563C-2.48,13.787-6.842,10.286-11.945.66c-.207-.391.214-.833.566-.591" transform="translate(-171 24)" fill="#e44954"/>
          <path id="Fill_5" data-name="Fill 5" d="M-13.874,0C-14,.487-15,14.376-15,14.376L-6.163,25l5.6-4.259L0,9.2Z" transform="translate(-202 45)" fill="#ff525f"/>
          <path id="Fill_7" data-name="Fill 7" d="M-11.963.619A32.879,32.879,0,0,0-.618,14.931.415.415,0,0,0-.029,14.4C-.81,12.208-3.365,7-11.351.095c-.324-.28-.783.108-.613.524" transform="translate(-207 57)" fill="#e44954"/>
          <g id="Group_11" data-name="Group 11" transform="translate(-187 0)">
            <path id="Clip_10-2" data-name="Clip 10" d="M0,0H-46.58V54.936H0Z" transform="translate(-0.226 0.06)" fill="none"/>
            <g id="Group_11-2" data-name="Group 11" clip-path="url(#clip-path-3)">
              <path id="Fill_9" data-name="Fill 9" d="M-46.395,4.694c-.044.508-.069,1-.093,1.5s-.05,1-.057,1.5c-.01.122-.014.249-.016.369-.011.542-.02,1.083-.019,1.614,0,.567.007,1.123.019,1.679.007.4.025.806.042,1.2,0,.2.012.4.027.6.026.6.067,1.191.118,1.776.033.43.072.847.113,1.265.053.5.106.983.171,1.467,3.992,30.956,30.93,37.273,30.93,37.273l8.1-7.564L0,40.787c-4.645-25.494-18.125-35.21-29.3-38.8a41.943,41.943,0,0,0-4.677-1.2c-.644-.127-1.264-.234-1.867-.32-.206-.034-.406-.06-.6-.086-1.4-.193-2.7-.294-3.859-.343a.181.181,0,0,0-.063,0c-.231-.01-.456-.019-.675-.02s-.408-.01-.6-.011h-.005a4.773,4.773,0,0,0-2.9,1.146,5.343,5.343,0,0,0-1.85,3.548" transform="translate(-0.226 0.06)" fill="#dae0e8"/>
            </g>
          </g>
          <g id="Group_14" data-name="Group 14" transform="translate(-194 1)">
            <path id="Clip_13-2" data-name="Clip 13" d="M0,0H-39.687V54.15H0Z" transform="translate(-0.115 0.846)" fill="none"/>
            <g id="Group_14-2" data-name="Group 14" clip-path="url(#clip-path-4)">
              <path id="Fill_12" data-name="Fill 12" d="M-39.5,3.572c-.044.511-.07,1.011-.093,1.51s-.051,1.005-.057,1.506c-.01.122-.014.25-.016.371-.011.546-.021,1.09-.019,1.625,0,.571.007,1.13.019,1.69.007.4.025.811.042,1.21,0,.206.012.406.027.606.026.605.067,1.2.119,1.788.033.433.072.852.113,1.273.053.5.107.99.172,1.477C-35.185,47.791-8.137,54.15-8.137,54.15L0,46.535l-9.028-11.16L-30.66,8.642l-2.449-3.035L-37.643,0A5.383,5.383,0,0,0-39.5,3.572" transform="translate(-0.115 0.846)" fill="#c0bdcb"/>
            </g>
          </g>
          <path id="Fill_15" data-name="Fill 15" d="M-16.973,8.894c-.371,5.235,3.119,9.752,7.8,10.086S-.4,15.343-.027,10.108-3.148.356-7.827.02-16.6,3.657-16.973,8.894" transform="translate(-205 15)" fill="#a8a2b3"/>
          <path id="Fill_17" data-name="Fill 17" d="M-12.979,6.553a6.726,6.726,0,0,0,5.965,7.433A6.8,6.8,0,0,0-.021,7.448,6.728,6.728,0,0,0-5.984.014a6.8,6.8,0,0,0-7,6.538" transform="translate(-207 17)" fill="#e44954"/>
          <path id="Path_2" data-name="Path 2" d="M-63.589,0C-39.234,30.83-5.144,95.38,0,151.524" transform="translate(-108.553 72.091)" fill="none" stroke="#c6eafb" stroke-miterlimit="10" stroke-width="6" opacity="0.178"/>
          <path id="Fill_19" data-name="Fill 19" d="M-8.986,4.68a4.77,4.77,0,0,0,4.13,5.31A4.771,4.771,0,0,0-.014,5.319,4.766,4.766,0,0,0-4.143.01,4.77,4.77,0,0,0-8.986,4.68" transform="translate(-209 19)" fill="#369bff"/>
          <path id="Fill_21" data-name="Fill 21" d="M-28,6.676s5.67,18.3,25.209,21.3A2.523,2.523,0,0,0-.11,24.679C-1.991,18.194-7.416,4.9-21.081,0Z" transform="translate(-168 48)" fill="#ffcb49"/>
          <path id="Fill_23" data-name="Fill 23" d="M-14,3.548S-11.642,13.2-2.381,15.93C-.947,16.351.356,14.8-.088,13.2-1.176,9.242-3.865,2.819-10.206,0Z" transform="translate(-179 50)" fill="#fff"/>
          <path id="Fill_25" data-name="Fill 25" d="M-22,5.483s4.456,15.029,19.809,17.494a2.046,2.046,0,0,0,2.1-2.707C-1.565,14.945-5.827,4.026-16.563,0Z" transform="translate(-174 48)" fill="#ffb64d"/>
          <path id="Fill_27" data-name="Fill 27" d="M-12,2.882s2.02,7.845,9.958,10.061A1.707,1.707,0,0,0-.075,10.721C-1.009,7.508-3.314,2.291-8.748,0Z" transform="translate(-182 50)" fill="#009bff"/>
          <path id="Fill_29" data-name="Fill 29" d="M-1.851.2-14.736,12.376a.845.845,0,0,0,.256,1.4l3.558,1.19a.708.708,0,0,0,.719-.169l9.94-9.389A.872.872,0,0,0-.01,4.644L-.621.673A.73.73,0,0,0-1.851.2" transform="translate(-186 42)" fill="#545770"/>
          <path id="Fill_31" data-name="Fill 31" d="M-16.841,5c-.029.44-.051.881-.07,1.315-.024.511-.05,1.017-.056,1.524-.009.122-.013.252-.015.376-.011.553-.02,1.1-.019,1.644,0,.579.007,1.144.019,1.712.005.409.023.821.042,1.225,0,.209.012.411.025.614.027.612.066,1.214.116,1.809.033.437.072.863.111,1.289.052.5.1,1,.169,1.495l8.359-8.084,3.206-3.1L0,2.026A40.076,40.076,0,0,0-4.6.8C-5.232.671-5.842.561-6.437.475c-.2-.035-.4-.061-.588-.088-1.379-.2-2.655-.3-3.8-.349a.18.18,0,0,0-.063,0c-.228-.01-.448-.019-.664-.022C-11.663.01-11.791,0-11.9,0h-.244A4.6,4.6,0,0,0-15,1.169a4.721,4.721,0,0,0-.779.862,5.559,5.559,0,0,0-1.04,2.754c-.012.071-.017.142-.023.213" transform="translate(-217 0)" fill="#ff525f"/>
          <path id="Fill_33" data-name="Fill 33" d="M-.687,17.541h0a2.021,2.021,0,0,0,.264-2.755L-11.665.691A1.832,1.832,0,0,0-14.312.459a2.021,2.021,0,0,0-.265,2.755L-3.332,17.308a1.829,1.829,0,0,0,2.645.233" transform="translate(-189 37)" fill="#ff525f"/>
          <g id="Group_37" data-name="Group 37" transform="translate(-164 39)">
            <path id="Clip_36-2" data-name="Clip 36" d="M0,0H-7.114V9.6H0Z" transform="translate(0 0.106)" fill="none"/>
            <g id="Group_37-2" data-name="Group 37" clip-path="url(#clip-path-5)">
              <path id="Fill_35" data-name="Fill 35" d="M0,9.6S-5.16,7.325-7.115,0C-7.115,0-.824,1.722,0,9.6" transform="translate(0 0.106)" fill="#ffcb49"/>
            </g>
          </g>
          <path id="Fill_38" data-name="Fill 38" d="M-5,0s2.607,4.64,5,6C0,6-.483,3.495-5,0" transform="translate(-166 39)" fill="#ffb64d"/>
          <g id="Group_42" data-name="Group 42" transform="translate(-199 73)">
            <path id="Clip_41-2" data-name="Clip 41" d="M0,0H-7.623V9.97H0Z" transform="translate(-0.252 0.03)" fill="none"/>
            <g id="Group_42-2" data-name="Group 42" clip-path="url(#clip-path-6)">
              <path id="Fill_40" data-name="Fill 40" d="M0,9.97S-5.529,7.61-7.623,0C-7.623,0-.881,1.789,0,9.97" transform="translate(-0.252 0.03)" fill="#ffcb49"/>
            </g>
          </g>
          <path id="Fill_43" data-name="Fill 43" d="M-5,0s2.607,4.64,5,6C0,6-.483,3.495-5,0" transform="translate(-202 73)" fill="#ffb64d"/>
          <path id="Fill_45" data-name="Fill 45" d="M-16,2.086C-12.6,1.991-7.972,2.779-5.022,7L0,2.081A40.232,40.232,0,0,0-4.664.822C-5.306.688-5.925.576-6.526.486c-.206-.034-.4-.063-.6-.09C-8.522.2-9.816.089-10.973.039a.178.178,0,0,0-.064-.006c-.231-.009-.455-.019-.673-.021-.118,0-.246-.01-.358-.011h-.248A4.632,4.632,0,0,0-15.21,1.2a4.828,4.828,0,0,0-.79.885" transform="translate(-217 0)" fill="#e44954"/>
        </g>
      </g>
    </g>
  </g>
</svg>
