<svg xmlns="http://www.w3.org/2000/svg" xmlns:xlink="http://www.w3.org/1999/xlink" width="195.4" height="161" viewBox="0 0 195.4 161">
  <defs>
    <clipPath id="clip-path">
      <rect width="195.4" height="161" fill="none"/>
    </clipPath>
  </defs>
  <g id="Repeat_Grid_1" data-name="Repeat Grid 1" clip-path="url(#clip-path)">
    <g transform="translate(-29 -165)">
      <g id="Group_20" data-name="Group 20" transform="translate(97 165)">
        <path id="Fill_1" data-name="Fill 1" d="M0,19.281A25.376,25.376,0,0,0,22.288,32.5H99.425A25.292,25.292,0,0,0,123.751,0C95.179,12.056,55.972,19.5,12.7,19.5q-6.413,0-12.7-.218" transform="translate(2.6 53.3)" fill="#fff" opacity="0.75"/>
        <path id="Fill_3" data-name="Fill 3" d="M109.78,36.292A24.257,24.257,0,0,0,85.753,14.723a23.982,23.982,0,0,0-3.192.236A33.481,33.481,0,0,0,21.19,33.77c0,.536.016,1.066.041,1.6A25.453,25.453,0,0,0,3.068,72.582q6.249.213,12.628.218c43.019,0,82-7.465,110.4-19.556a25.373,25.373,0,0,0-16.32-16.952" fill="#fff" opacity="0.9"/>
      </g>
      <g id="Group_19" data-name="Group 19" transform="translate(29 264)">
        <path id="Fill_5" data-name="Fill 5" d="M0,10.8a14.592,14.592,0,0,0,12.768,7.4H56.963A14.367,14.367,0,0,0,71.5,4.012,13.813,13.813,0,0,0,70.9,0C54.528,6.751,32.068,10.919,7.277,10.919Q3.6,10.919,0,10.8" transform="translate(1.3 29.9)" fill="#fff" opacity="0.75"/>
        <path id="Fill_7" data-name="Fill 7" d="M63.38,20.738A13.87,13.87,0,0,0,47.665,8.548,19.367,19.367,0,0,0,12.235,19.3c0,.305.009.608.023.91A14.5,14.5,0,0,0,1.772,41.474q3.611.122,7.291.126C33.9,41.6,56.4,37.332,72.8,30.423a14.567,14.567,0,0,0-9.42-9.685" fill="#fffeff" opacity="0.9"/>
      </g>
      <g id="Group_23" data-name="Group 23" transform="translate(142 288)">
        <path id="Fill_21" data-name="Fill 21" d="M38,19A19,19,0,1,1,19,0,19,19,0,0,1,38,19" fill="#fff" opacity="0.5"/>
        <path id="Fill_22" data-name="Fill 22" d="M10,3.692C6.8-2.11,0-.829,0,5.818S10,18,10,18,20,12.464,20,5.818,13.2-2.11,10,3.692" transform="translate(9 10)" fill="#fff"/>
      </g>
    </g>
  </g>
</svg>
