<svg xmlns="http://www.w3.org/2000/svg" xmlns:xlink="http://www.w3.org/1999/xlink" width="224.4" height="168.1" viewBox="0 0 224.4 168.1">
  <defs>
    <clipPath id="clip-path">
      <rect width="224.4" height="168.1" fill="none"/>
    </clipPath>
  </defs>
  <g id="Repeat_Grid_2" data-name="Repeat Grid 2" clip-path="url(#clip-path)">
    <g transform="translate(-1248 -175)">
      <g id="Group_22" data-name="Group 22" transform="translate(1319 175)">
        <path id="Fill_13" data-name="Fill 13" d="M25.5,0A25.31,25.31,0,0,0,0,25.116,24.81,24.81,0,0,0,7.09,42.464L1.634,55,18.08,49.142a25.851,25.851,0,0,0,7.421,1.09A25.311,25.311,0,0,0,51,25.116,25.309,25.309,0,0,0,25.5,0" fill="#fff" opacity="0.5"/>
        <path id="Fill_15" data-name="Fill 15" d="M.193,28.921c5.185.094,10.432.169,15.2-.18,1.51-.112,2.815-2.645.982-3.444a3.474,3.474,0,0,0,1.891-1.736,1.745,1.745,0,0,0-.918-2.262c1.8.469,2.506-2.546,1.1-3.521a4.492,4.492,0,0,0,1.517-2.568,2.639,2.639,0,0,0-1.095-2.658A3.776,3.776,0,0,0,17,12.212q-3.236-.026-6.47-.048C11.121,8.6,11.3,4.711,9.58,1.578,9.065.635,7.676-.495,6.574.232,5.542.911,5.828,2.6,5.882,3.669A12.188,12.188,0,0,1,0,14.656S.245,24.1.193,28.921" transform="translate(21 8)" fill="#fefefe"/>
        <path id="Fill_17" data-name="Fill 17" d="M0,15H8V0H0Z" transform="translate(11 22)" fill="#fefefe"/>
      </g>
      <g id="Group_20_Copy" data-name="Group 20 Copy" transform="translate(1345 230)">
        <path id="Fill_1" data-name="Fill 1" d="M0,19.281A25.376,25.376,0,0,0,22.288,32.5H99.425A25.292,25.292,0,0,0,123.751,0C95.179,12.056,55.972,19.5,12.7,19.5q-6.413,0-12.7-.218" transform="translate(2.6 53.3)" fill="#fff" opacity="0.75"/>
        <path id="Fill_3" data-name="Fill 3" d="M109.78,36.292A24.257,24.257,0,0,0,85.753,14.723a23.982,23.982,0,0,0-3.192.236A33.481,33.481,0,0,0,21.19,33.77c0,.536.016,1.066.041,1.6A25.453,25.453,0,0,0,3.068,72.582q6.249.213,12.628.218c43.019,0,82-7.465,110.4-19.556a25.373,25.373,0,0,0-16.32-16.952" fill="#fff" opacity="0.9"/>
      </g>
      <g id="Group_19_Copy" data-name="Group 19 Copy" transform="translate(1248 295)">
        <path id="Fill_5" data-name="Fill 5" d="M0,10.8a14.592,14.592,0,0,0,12.768,7.4H56.963A14.367,14.367,0,0,0,71.5,4.012,13.813,13.813,0,0,0,70.9,0C54.528,6.751,32.068,10.919,7.277,10.919Q3.6,10.919,0,10.8" transform="translate(1.3 29.9)" fill="#fff" opacity="0.75"/>
        <path id="Fill_7" data-name="Fill 7" d="M63.38,20.738A13.87,13.87,0,0,0,47.665,8.548,19.367,19.367,0,0,0,12.235,19.3c0,.305.009.608.023.91A14.5,14.5,0,0,0,1.772,41.474q3.611.122,7.291.126C33.9,41.6,56.4,37.332,72.8,30.423a14.567,14.567,0,0,0-9.42-9.685" fill="#fffeff" opacity="0.9"/>
      </g>
      <g id="Group_26" data-name="Group 26" transform="translate(1296 211)">
        <path id="Fill_19" data-name="Fill 19" d="M-17.735,0A17.734,17.734,0,0,1,0,17.735,17.661,17.661,0,0,1-4.931,29.983l3.793,8.852L-12.574,34.7a17.712,17.712,0,0,1-5.161.768A17.733,17.733,0,0,1-35.468,17.735,17.734,17.734,0,0,1-17.735,0" transform="translate(0 0)" fill="rgba(255,255,255,0.5)"/>
        <path id="Fill_20" data-name="Fill 20" d="M-1.392,22.233a1.391,1.391,0,0,0,1.046-.474,1.391,1.391,0,0,0,.333-1.1L-1.781,7.253A1.4,1.4,0,0,0-3.148,6.044l-.589-.005A6.255,6.255,0,0,0-5.583,1.784,6.084,6.084,0,0,0-9.842,0H-9.9a6.192,6.192,0,0,0-6.153,5.932l-.641-.006H-16.7a1.4,1.4,0,0,0-1.379,1.2L-19.91,20.506a1.391,1.391,0,0,0,.326,1.1,1.387,1.387,0,0,0,1.038.479l17.143.149ZM-9.9,1.165h.044A5.028,5.028,0,0,1-4.9,6.028l-9.982-.086A5.038,5.038,0,0,1-9.9,1.165Z" transform="translate(-8.135 5.464)" fill="#fff"/>
      </g>
    </g>
  </g>
</svg>
