<svg xmlns="http://www.w3.org/2000/svg" xmlns:xlink="http://www.w3.org/1999/xlink" width="1440" height="136" viewBox="0 0 1440 136">
  <defs>
    <clipPath id="clip-path">
      <rect id="Rectangle_2" data-name="Rectangle 2" width="1440" height="136" transform="translate(-7802 3205)" fill="#fff" stroke="#707070" stroke-width="1"/>
    </clipPath>
    <clipPath id="clip-path-2">
      <rect id="Rectangle_3" data-name="Rectangle 3" width="1536" height="136" transform="translate(4399 -6870)" fill="#fff" stroke="#707070" stroke-width="1"/>
    </clipPath>
  </defs>
  <g id="Mask_Group_1" data-name="Mask Group 1" transform="translate(7802 -3205)" clip-path="url(#clip-path)">
    <g id="Mask_Group_2" data-name="Mask Group 2" transform="translate(-12249 10075)" clip-path="url(#clip-path-2)">
      <path id="Line_6" data-name="Line 6" d="M1258.82,0c33.364,0,62.24,5.382,88.833,15.837,19.613,7.713,34.337,16.118,56.7,31.015l10.746,7.2c14.635,9.747,23.215,14.733,32.521,18.588l.875.358c11.852,4.8,24.365,7.248,39.985,7.248a47.5,47.5,0,1,1,0,95c-27.887,0-52.515-4.822-75.673-14.2-16.961-6.865-29.154,13.253-49.071,0l-16.078,14.2c-17.958-12.027-9.974,11.89-21.992,7.113l-12.308-7.113c-15.41-6.059-32.979,7.113-54.527,7.113-20.924,0-28.57-27.026-43.111-21.31l-8.422,6.079c-10.147,4.092-11.053-10.3-26.882,0h-14.65c-23.309,15.23-39.719-15.223-59.239-7.645-26.88,10.436-56.3,15.762-90.859,15.762-34.455,0-63.967-5.286-91.259-15.618l-1.316-.5c-18.939-7.266-25.617,20.476-50.017,5.376l-6.541,2.627C847.375,155.3,831.806,177.568,819.761,173c-16.272-6.168-33.954,0-56.763,0-22.32,0-31.02-19.911-45.8-14.113l-8.279-9.232c-10.914,4.364-.641-2.192-17.528,9.232l-8.254,8.24c-22.182,15.017-52.984-15.107-71.565-7.633-25.967,10.445-54.508,15.75-88.227,15.75-33.9,0-62.878-5.355-89.544-15.831l-1.33-.526c-18.477-7.361-26.1,15.1-49.411,0l-29.808-9.232c-17.89-11.57-24.577,15.818-35.8,11.393-15.11-5.958-22.114,0-43.655,0-19.839,0-6.527-16.219-18.3-11.393L252.5,161.051c-8.773,3.672-9.184-6.685-22.62,3.453l-31.1-14.846-11.023,9.232c-20.663,15.569-25.878-7.637-46.074.428-26.569,10.61-57.015,15.929-94.148,15.929a47.5,47.5,0,1,1,0-95c25.2,0,43.573-3.15,58.271-8.909l.6-.238c10.547-4.212,18.494-9.13,32.7-19.815l7.93-6.014c19.594-14.8,31.991-22.7,49.97-30.226C220.968,5.01,247.9,0,280.233,0c32.9,0,61.14,5.163,87.184,15.268l1.084.424c18.95,7.47,31.783,14.735,55.443,30.07l7.091,4.6c17.631,11.385,26.246,16.2,37.541,20.635,15.452,6.071,32.631,9.245,54.765,9.245,21.435,0,37.745-2.967,52.034-8.6l.7-.279c10.875-4.374,19.054-9.186,36.584-21.085l5.288-3.6c22.663-15.368,35.474-22.9,54.272-30.471l.682-.274C699.328,5.37,728.474,0,763,0c34.217,0,63.546,5.265,90.7,15.558l1.308.5c19.052,7.319,32.3,14.58,57.149,29.982l5.389,3.341c19.258,11.894,28.4,16.811,40.534,21.406C974.5,77,992.6,80.245,1015.66,80.245c22.615,0,40.156-3.111,55.686-9.026l1.6-.621c11.414-4.508,20.5-9.683,38.333-21.345l6.749-4.427c22.648-14.8,35.691-22.2,54.346-29.53C1198.146,5.165,1226.136,0,1258.82,0Z" transform="translate(4399 -6869.5)" fill="#fff" opacity="0.078"/>
    </g>
  </g>
</svg>
