<svg xmlns="http://www.w3.org/2000/svg" xmlns:xlink="http://www.w3.org/1999/xlink" width="56.604" height="93.678" viewBox="0 0 56.604 93.678">
  <defs>
    <clipPath id="clip-path">
      <rect width="56.604" height="93.678" fill="none"/>
    </clipPath>
  </defs>
  <g id="Repeat_Grid_1" data-name="Repeat Grid 1" clip-path="url(#clip-path)">
    <g transform="translate(10776.461 92)">
      <g id="WS_Redesign" transform="translate(-10776.149 -92.8)">
        <g id="WS---Pricing---WS-Advisor" transform="translate(-1068 -2011)">
          <path id="Oval-Copy-2" d="M1096.562,2011.8l.482,0c13.789.184,25.946,9.216,27.238,18.859a1.2,1.2,0,0,1-2.379.319c-1.121-8.367-12.214-16.609-24.892-16.778-6.421-.086-11.739,2.329-16.817,6.868l-.371.336-6.334,6.747,10.7-3.509a1.2,1.2,0,0,1,1.467.644l.047.122a1.2,1.2,0,0,1-.644,1.467l-.122.047-15.159,4.973-2.087.685.551-2.126,4-15.444a1.2,1.2,0,0,1,2.348.482l-.025.12-2.824,10.9,6.4-6.811c5.418-4.968,11.114-7.741,17.946-7.893Z" fill="#daf0ce"/>
        </g>
      </g>
      <g id="WS_Redesign-2" data-name="WS_Redesign" transform="translate(-10720.168 3.478) rotate(180)">
        <g id="WS---Pricing---WS-Advisor-2" data-name="WS---Pricing---WS-Advisor" transform="translate(-1068 -2084)">
          <path id="Oval-Copy" d="M1096.562,2085.8l.482,0c13.789.184,25.946,9.216,27.238,18.859a1.2,1.2,0,0,1-2.379.319c-1.121-8.367-12.214-16.609-24.892-16.778-6.421-.086-11.739,2.329-16.817,6.867l-.371.336-6.334,6.748,10.7-3.509a1.2,1.2,0,0,1,1.467.644l.047.122a1.2,1.2,0,0,1-.644,1.467l-.122.047-15.159,4.973-2.087.685.551-2.126,4-15.444a1.2,1.2,0,0,1,2.348.482l-.025.12-2.824,10.9,6.4-6.811c5.418-4.968,11.114-7.741,17.946-7.894Z" fill="#daf0ce"/>
        </g>
      </g>
    </g>
  </g>
</svg>
