<svg xmlns="http://www.w3.org/2000/svg" width="94.563" height="93.677" viewBox="0 0 94.563 93.677">
  <path id="Fill_1" data-name="Fill 1" d="M68.337,55.477c-2.517-2.485-2.5-3.594.006-6.106,5.6-5.6,11.242-11.162,16.83-16.775,3.056-3.069,2.6-5.021-1.567-6.4Q44.154,13.132,4.655.209a4.956,4.956,0,0,0-4.03.5c-.7.569-.775,2.574-.4,3.7Q13.258,43.864,26.492,83.246c1.33,3.968,3.3,4.4,6.274,1.494C38.505,79.126,44.238,73.505,49.88,67.8c2.094-2.12,3.814-2.218,5.954-.048,6.69,6.781,13.481,13.462,20.242,20.174.739.734,1.534,1.414,2.258,2.077L90.789,77.528C83.278,70.156,75.789,62.835,68.337,55.477Z" transform="translate(1.643 1.6)" fill="none" stroke="#daf0ce" stroke-miterlimit="10" stroke-width="3" opacity="0.698"/>
</svg>
