<svg xmlns="http://www.w3.org/2000/svg" xmlns:xlink="http://www.w3.org/1999/xlink" width="274.492" height="46.367" viewBox="0 0 274.492 46.367">
  <defs>
    <clipPath id="clip-path">
      <path id="Clip_43" data-name="Clip 43" d="M6,.065A6.133,6.133,0,0,0,4,.725H4C2.983,1.289,2,1.994,1.01,2.667h0A1.262,1.262,0,0,1,0,2.9H0a21.993,21.993,0,0,0,21.761,20.64h0A22,22,0,0,0,43.549,2.355h0A12.1,12.1,0,0,0,40.211.391h0A5.438,5.438,0,0,0,36.546.269h0a11.2,11.2,0,0,0-3.1,1.6h0c-1.034.738-1.989,1.7-2.976,2.559h0A17.726,17.726,0,0,1,25.5,7.618h0a7.4,7.4,0,0,1-4.7.424h0a14.3,14.3,0,0,1-2.817-1.13h0A18.636,18.636,0,0,1,14.1,4.089h0A33.923,33.923,0,0,0,11.4,1.813h0A8.016,8.016,0,0,0,6.811,0h0A5.124,5.124,0,0,0,6,.065" transform="translate(0 0.099)" fill="none"/>
    </clipPath>
    <linearGradient id="linear-gradient" x1="0.5" y1="-0.923" x2="0.5" y2="0.764" gradientUnits="objectBoundingBox">
      <stop offset="0" stop-color="#8ed169"/>
      <stop offset="1" stop-color="#009aff"/>
    </linearGradient>
    <clipPath id="clip-path-2">
      <path id="Clip_46" data-name="Clip 46" d="M21.449,0C10.456.089,1.421,8.585,0,19.572H0a15.9,15.9,0,0,1,2.987-1.844h0a8.576,8.576,0,0,1,3.367-.908h0a9.155,9.155,0,0,1,4.285,1.08h0a22.139,22.139,0,0,1,5.294,4.022h0A14.452,14.452,0,0,0,19.6,24.494h0a5.3,5.3,0,0,0,3.458.608h0a8.929,8.929,0,0,0,2.417-.921h0A21.088,21.088,0,0,0,28.1,22.4h0c.658-.5,1.264-1.142,1.9-1.7h0a18.635,18.635,0,0,1,4.762-3.155h0a7.565,7.565,0,0,1,4.886-.553h0a11.554,11.554,0,0,1,3.433,1.482h0A22.057,22.057,0,0,0,21.79,0h-.341Z" transform="translate(0.138 0.778)" fill="none"/>
    </clipPath>
    <linearGradient id="linear-gradient-2" x1="0.5" y1="-0.032" x2="0.5" y2="1.569" xlink:href="#linear-gradient"/>
  </defs>
  <g id="Group_48" data-name="Group 48" transform="translate(0 -1.343)">
    <g id="Group_41" data-name="Group 41" transform="translate(52 1.565)">
      <path id="Fill_1" data-name="Fill 1" d="M2.955,7.587H0V0H2.842A3.139,3.139,0,0,1,4.766.524a1.724,1.724,0,0,1,.694,1.45,1.792,1.792,0,0,1-.283.995,1.982,1.982,0,0,1-.789.69A2.178,2.178,0,0,1,5.4,4.34a1.688,1.688,0,0,1,.366,1.082,1.917,1.917,0,0,1-.722,1.607A3.371,3.371,0,0,1,2.955,7.587Zm-1.816-3.5V6.637H2.955A2,2,0,0,0,4.18,6.314,1.089,1.089,0,0,0,4.6,5.4a1.191,1.191,0,0,0-.423-.977,1.927,1.927,0,0,0-1.225-.34Zm0-3.135v2.21h1.8a1.529,1.529,0,0,0,.994-.3A.992.992,0,0,0,4.3,2.052a.958.958,0,0,0-.4-.808,1.759,1.759,0,0,0-1.071-.3Z" transform="translate(5.646 36.417)" fill="#fff"/>
      <path id="Fill_3" data-name="Fill 3" d="M3.305,6.079a3.008,3.008,0,0,1-.874,1.288,1.845,1.845,0,0,1-1.156.4A2.387,2.387,0,0,1,.61,7.676,2.234,2.234,0,0,1,.147,7.5L.52,6.65c.09.037.187.074.293.11a1.113,1.113,0,0,0,.372.056,1.121,1.121,0,0,0,.6-.171,1.207,1.207,0,0,0,.446-.565l.259-.6L0,0H1.162L3.024,4.195,4.647,0h1.14Z" transform="translate(11.647 38.381)" fill="#fff"/>
      <path id="Fill_5" data-name="Fill 5" d="M2.521,7.107H6.359V9.118H0V0H2.521Z" transform="translate(22.412 34.885)" fill="#fff"/>
      <path id="Fill_7" data-name="Fill 7" d="M4.786,9.468a4.984,4.984,0,0,1-2.461-.6,4.485,4.485,0,0,1-1.7-1.67A4.782,4.782,0,0,1,0,4.747,5.028,5.028,0,0,1,.354,2.836a4.386,4.386,0,0,1,1-1.5A4.615,4.615,0,0,1,2.875.349,5.088,5.088,0,0,1,4.786,0,5.088,5.088,0,0,1,6.7.349a4.6,4.6,0,0,1,1.518.986,4.413,4.413,0,0,1,1,1.5,5.044,5.044,0,0,1,.353,1.911A4.782,4.782,0,0,1,8.95,7.194a4.494,4.494,0,0,1-1.7,1.67A4.979,4.979,0,0,1,4.786,9.468Zm0-7.4a2,2,0,0,0-1.159.341,2.34,2.34,0,0,0-.779.946,3.246,3.246,0,0,0-.285,1.394,3.2,3.2,0,0,0,.285,1.389,2.289,2.289,0,0,0,.779.931A2.03,2.03,0,0,0,4.786,7.4a2.035,2.035,0,0,0,1.16-.335,2.285,2.285,0,0,0,.779-.931A3.2,3.2,0,0,0,7.01,4.747a3.246,3.246,0,0,0-.285-1.394,2.336,2.336,0,0,0-.779-.946A2.006,2.006,0,0,0,4.786,2.066Z" transform="translate(29.298 34.71)" fill="#fff"/>
      <path id="Fill_9" data-name="Fill 9" d="M4.745,9.467a4.937,4.937,0,0,1-2.474-.6A4.351,4.351,0,0,1,.6,7.194,4.94,4.94,0,0,1,0,4.72,4.909,4.909,0,0,1,.6,2.252,4.326,4.326,0,0,1,2.271.6,4.983,4.983,0,0,1,4.745,0,4.756,4.756,0,0,1,6.895.476,4.592,4.592,0,0,1,8.528,1.851L6.535,3.017a2.813,2.813,0,0,0-.793-.7,2.008,2.008,0,0,0-1.023-.255,1.931,1.931,0,0,0-1.559.717,2.933,2.933,0,0,0-.6,1.938,2.985,2.985,0,0,0,.6,1.951A1.915,1.915,0,0,0,4.719,7.4a1.95,1.95,0,0,0,1.057-.288,3.047,3.047,0,0,0,.773-.677L8.528,7.6A4.414,4.414,0,0,1,6.895,8.991a4.824,4.824,0,0,1-2.149.476" transform="translate(39.846 34.711)" fill="#fff"/>
      <path id="Fill_11" data-name="Fill 11" d="M2.495,9.119H0L3.376,0H6.3L9.679,9.117H7.118l-.584-1.7H3.077l-.582,1.7ZM4.813,2.374h0l-1.1,3.191H5.9L4.813,2.374Z" transform="translate(48.836 34.885)" fill="#fff"/>
      <path id="Fill_13" data-name="Fill 13" d="M2.522,7.107H6.359V9.118H0V0H2.522Z" transform="translate(59.723 34.885)" fill="#fff"/>
      <path id="Fill_15" data-name="Fill 15" d="M0,6.826V0A5.487,5.487,0,0,0,1.153.122,6.132,6.132,0,0,0,2.359,0V6.826Z" transform="translate(67.22 37.177)" fill="#fff"/>
      <path id="Fill_17" data-name="Fill 17" d="M8.976,9.842H6.711l-.434-.577a5.309,5.309,0,0,1-1.491.2,4.979,4.979,0,0,1-2.461-.6,4.494,4.494,0,0,1-1.7-1.67A4.782,4.782,0,0,1,0,4.747,5.044,5.044,0,0,1,.353,2.836a4.412,4.412,0,0,1,1-1.5A4.618,4.618,0,0,1,2.875.349,5.088,5.088,0,0,1,4.786,0,5.1,5.1,0,0,1,6.7.349a4.616,4.616,0,0,1,1.518.985,4.4,4.4,0,0,1,1,1.5,5.028,5.028,0,0,1,.354,1.911,4.9,4.9,0,0,1-.448,2.112A4.421,4.421,0,0,1,7.891,8.435L8.974,9.841ZM4.786,2.066a2,2,0,0,0-1.16.341,2.336,2.336,0,0,0-.779.946,3.246,3.246,0,0,0-.285,1.394,3.2,3.2,0,0,0,.285,1.389,2.285,2.285,0,0,0,.779.931,2.031,2.031,0,0,0,1.16.335h.095L3.524,5.593h2.21l.733.979a2.51,2.51,0,0,0,.4-.806A3.48,3.48,0,0,0,7.01,4.747a3.246,3.246,0,0,0-.285-1.394,2.346,2.346,0,0,0-.779-.946A2,2,0,0,0,4.786,2.066Z" transform="translate(70.894 34.71)" fill="#fff"/>
      <path id="Fill_19" data-name="Fill 19" d="M1.41,2.788a1.368,1.368,0,0,1-1-.408A1.338,1.338,0,0,1,0,1.394,1.338,1.338,0,0,1,.413.408,1.365,1.365,0,0,1,1.41,0a1.365,1.365,0,0,1,1,.408,1.338,1.338,0,0,1,.413.985,1.338,1.338,0,0,1-.413.986,1.368,1.368,0,0,1-1,.408" transform="translate(66.963 33.853)" fill="#009bff"/>
      <path id="Fill_21" data-name="Fill 21" d="M21.207,24.34,17.226,8.519,13.246,24.34H6.116L0,0H6.514l3.728,16.608L14.368,0h5.754l4.09,16.5L28.047,0h6.406L28.337,24.34Z" transform="translate(0.326 2.08)" fill="#fff"/>
      <path id="Fill_23" data-name="Fill 23" d="M10.061,19.148a10.778,10.778,0,0,1-5.229-1.235,9.174,9.174,0,0,1-3.547-3.381A9.542,9.542,0,0,1,0,9.557,9.544,9.544,0,0,1,1.285,4.581,9.056,9.056,0,0,1,4.832,1.217,10.913,10.913,0,0,1,10.061,0,10.918,10.918,0,0,1,15.29,1.217a9.068,9.068,0,0,1,3.547,3.364,9.551,9.551,0,0,1,1.285,4.976,9.549,9.549,0,0,1-1.285,4.975,9.186,9.186,0,0,1-3.547,3.381A10.783,10.783,0,0,1,10.061,19.148Zm0-14.209A3.239,3.239,0,0,0,7.4,6.192a5.285,5.285,0,0,0-.995,3.365A5.359,5.359,0,0,0,7.4,12.939a3.221,3.221,0,0,0,2.66,1.271,3.22,3.22,0,0,0,2.66-1.271,5.359,5.359,0,0,0,1-3.382,5.284,5.284,0,0,0-1-3.365A3.238,3.238,0,0,0,10.061,4.939Z" transform="translate(35.285 7.735)" fill="#fff"/>
      <path id="Fill_25" data-name="Fill 25" d="M6.3,11.418V18.47H0V.251H5.754l.4,3.042a5.123,5.123,0,0,1,1.9-2.38A5.245,5.245,0,0,1,11.11,0a3.462,3.462,0,0,1,1.484.251V5.942a4.645,4.645,0,0,0-.886-.214,7.679,7.679,0,0,0-1.1-.072A3.938,3.938,0,0,0,7.509,7.034,6.543,6.543,0,0,0,6.3,11.418" transform="translate(58.7 7.95)" fill="#fff"/>
      <path id="Fill_27" data-name="Fill 27" d="M8.36,26.594a7.911,7.911,0,0,1-4.378-1.217A8.2,8.2,0,0,1,1.049,22,11.361,11.361,0,0,1,0,17a11.253,11.253,0,0,1,1.049-4.976A8.386,8.386,0,0,1,3.927,8.662,7.462,7.462,0,0,1,8.142,7.445a6.887,6.887,0,0,1,5.428,2.578V0h6.3V26.13H14.114l-.325-2.4A6.246,6.246,0,0,1,8.36,26.594Zm1.7-14.245a3.222,3.222,0,0,0-2.66,1.27A5.364,5.364,0,0,0,6.406,17,5.364,5.364,0,0,0,7.4,20.385a3.22,3.22,0,0,0,2.66,1.27,3.18,3.18,0,0,0,2.623-1.27,5.359,5.359,0,0,0,1-3.383,5.359,5.359,0,0,0-1-3.383A3.182,3.182,0,0,0,10.061,12.349Z" transform="translate(73.211 0.29)" fill="#fff"/>
      <path id="Fill_29" data-name="Fill 29" d="M10.531,25.271a16.412,16.412,0,0,1-5.754-1.02A14.035,14.035,0,0,1,0,21.333l3.256-4.044a11.154,11.154,0,0,0,3.257,2.023,10.5,10.5,0,0,0,3.981.733,4.417,4.417,0,0,0,2.28-.5,1.642,1.642,0,0,0,.833-1.5,1.769,1.769,0,0,0-.977-1.557,14.285,14.285,0,0,0-3.438-1.234l-1.52-.394a10.668,10.668,0,0,1-5.067-2.631A6.15,6.15,0,0,1,.867,7.731,6.925,6.925,0,0,1,2.1,3.651,7.909,7.909,0,0,1,5.5.949,12.472,12.472,0,0,1,10.531,0a14.468,14.468,0,0,1,5.392,1.021,15.462,15.462,0,0,1,4.56,2.774L17.117,7.982A13.6,13.6,0,0,0,14.059,6.05a8.181,8.181,0,0,0-3.492-.824,4.239,4.239,0,0,0-2.226.483,1.561,1.561,0,0,0-.778,1.414,1.838,1.838,0,0,0,.814,1.485,8.472,8.472,0,0,0,2.8,1.164l1.846.5a11.355,11.355,0,0,1,5.628,2.935A6.337,6.337,0,0,1,20.3,17.539,6.917,6.917,0,0,1,19.089,21.6a7.936,7.936,0,0,1-3.42,2.7,12.729,12.729,0,0,1-5.138.966" transform="translate(96.156 1.614)" fill="#fff"/>
      <path id="Fill_31" data-name="Fill 31" d="M15.091,22.121a9.754,9.754,0,0,1-2.569,1.2,10.225,10.225,0,0,1-3.041.447,6.5,6.5,0,0,1-4.722-1.7A6.056,6.056,0,0,1,3,17.5V9.736H0V5.083H3.294L4.09,0H9.3V5.083h4.813V9.736H9.3v6.98a1.871,1.871,0,0,0,.561,1.449,2.119,2.119,0,0,0,1.5.519,2.769,2.769,0,0,0,.959-.179,5.833,5.833,0,0,0,.923-.429Z" transform="translate(118.484 3.118)" fill="#fff"/>
      <path id="Fill_33" data-name="Fill 33" d="M6.3,11.418V18.47H0V.251H5.754l.4,3.042a5.123,5.123,0,0,1,1.9-2.38A5.245,5.245,0,0,1,11.11,0a3.462,3.462,0,0,1,1.484.251V5.942a4.645,4.645,0,0,0-.886-.214,7.679,7.679,0,0,0-1.1-.072A3.938,3.938,0,0,0,7.509,7.034,6.543,6.543,0,0,0,6.3,11.418" transform="translate(136.579 7.95)" fill="#fff"/>
      <path id="Fill_35" data-name="Fill 35" d="M10.458,19.149a12.246,12.246,0,0,1-5.627-1.2A8.594,8.594,0,0,1,1.248,14.6,9.694,9.694,0,0,1,0,9.665,10.078,10.078,0,0,1,1.229,4.654a8.91,8.91,0,0,1,3.4-3.419A10.129,10.129,0,0,1,9.7,0a10.1,10.1,0,0,1,4.976,1.2,8.671,8.671,0,0,1,3.366,3.328,9.978,9.978,0,0,1,1.211,4.993,6.806,6.806,0,0,1-.053.823c-.037.289-.08.59-.127.895H6.224c.576,2.09,2.171,3.15,4.74,3.15a8.261,8.261,0,0,0,3.077-.537,16.694,16.694,0,0,0,2.244-1.074l2.172,4.045a13.035,13.035,0,0,1-3.493,1.647A14.742,14.742,0,0,1,10.458,19.149ZM9.843,4.51C7.8,4.51,6.56,5.594,6.152,7.731h7.02A3.658,3.658,0,0,0,11.96,5.243,3.42,3.42,0,0,0,9.843,4.51Z" transform="translate(151.09 7.735)" fill="#fff"/>
      <path id="Fill_37" data-name="Fill 37" d="M5.827,19.149a6.231,6.231,0,0,1-2.949-.7,5.487,5.487,0,0,1-2.1-1.914A5.147,5.147,0,0,1,0,13.708,5.456,5.456,0,0,1,2.407,8.984,10.92,10.92,0,0,1,8.758,7.3a17.006,17.006,0,0,1,2.606.214,2.7,2.7,0,0,0-1.176-2.057,4.4,4.4,0,0,0-2.515-.7,7.639,7.639,0,0,0-2.625.483A16.683,16.683,0,0,0,2.533,6.407L.4,2.4A15.664,15.664,0,0,1,4.307.626,14.677,14.677,0,0,1,8.505,0a11.627,11.627,0,0,1,4.559.859,7.009,7.009,0,0,1,3.184,2.614,7.929,7.929,0,0,1,1.158,4.437V18.684H11.653l-.326-2.4A6.089,6.089,0,0,1,5.827,19.149Zm3.51-8.375a5.1,5.1,0,0,0-2.3.465,1.6,1.6,0,0,0-.923,1.539,1.682,1.682,0,0,0,.616,1.342,2.391,2.391,0,0,0,1.592.519A3.014,3.014,0,0,0,11.4,11.561v-.608A11.564,11.564,0,0,0,9.337,10.774Z" transform="translate(172.406 7.735)" fill="#fff"/>
      <path id="Fill_39" data-name="Fill 39" d="M6.3,8.09V18.577H0V.358H5.79l.326,2.327a5.442,5.442,0,0,1,2.171-2,6.429,6.429,0,0,1,5.826.035,5.818,5.818,0,0,1,2.171,2.005A6.252,6.252,0,0,1,18.836.7,8.083,8.083,0,0,1,22.148,0a6.464,6.464,0,0,1,3.383.877,6.151,6.151,0,0,1,2.3,2.435,7.511,7.511,0,0,1,.833,3.6V18.577h-6.3V7.552a2.578,2.578,0,0,0-.633-1.825,2.108,2.108,0,0,0-1.612-.68A2.539,2.539,0,0,0,18.2,5.8a3.186,3.186,0,0,0-.724,2.291V18.577h-6.3V7.552a2.624,2.624,0,0,0-.615-1.825A2.134,2.134,0,0,0,8.9,5.047,2.5,2.5,0,0,0,7.021,5.8,3.193,3.193,0,0,0,6.3,8.09" transform="translate(193.83 7.842)" fill="#fff"/>
    </g>
    <g id="Group_44" data-name="Group 44" transform="translate(0 22.565)">
      <path id="Clip_43-2" data-name="Clip 43" d="M6,.065A6.133,6.133,0,0,0,4,.725H4C2.983,1.289,2,1.994,1.01,2.667h0A1.262,1.262,0,0,1,0,2.9H0a21.993,21.993,0,0,0,21.761,20.64h0A22,22,0,0,0,43.549,2.355h0A12.1,12.1,0,0,0,40.211.391h0A5.438,5.438,0,0,0,36.546.269h0a11.2,11.2,0,0,0-3.1,1.6h0c-1.034.738-1.989,1.7-2.976,2.559h0A17.726,17.726,0,0,1,25.5,7.618h0a7.4,7.4,0,0,1-4.7.424h0a14.3,14.3,0,0,1-2.817-1.13h0A18.636,18.636,0,0,1,14.1,4.089h0A33.923,33.923,0,0,0,11.4,1.813h0A8.016,8.016,0,0,0,6.811,0h0A5.124,5.124,0,0,0,6,.065" transform="translate(0 0.099)" fill="none"/>
      <g id="Group_44-2" data-name="Group 44" clip-path="url(#clip-path)">
        <path id="Fill_42" data-name="Fill 42" d="M6,.065A6.133,6.133,0,0,0,4,.725H4C2.983,1.289,2,1.994,1.01,2.667h0A1.262,1.262,0,0,1,0,2.9H0a21.993,21.993,0,0,0,21.761,20.64h0A22,22,0,0,0,43.549,2.355h0A12.1,12.1,0,0,0,40.211.391h0A5.438,5.438,0,0,0,36.546.269h0a11.2,11.2,0,0,0-3.1,1.6h0c-1.034.738-1.989,1.7-2.976,2.559h0A17.726,17.726,0,0,1,25.5,7.618h0a7.4,7.4,0,0,1-4.7.424h0a14.3,14.3,0,0,1-2.817-1.13h0A18.636,18.636,0,0,1,14.1,4.089h0A33.923,33.923,0,0,0,11.4,1.813h0A8.016,8.016,0,0,0,6.811,0h0A5.124,5.124,0,0,0,6,.065" transform="translate(0 0.099)" fill="url(#linear-gradient)"/>
      </g>
    </g>
    <g id="Group_47" data-name="Group 47" transform="translate(0 0.565)">
      <path id="Clip_46-2" data-name="Clip 46" d="M21.449,0C10.456.089,1.421,8.585,0,19.572H0a15.9,15.9,0,0,1,2.987-1.844h0a8.576,8.576,0,0,1,3.367-.908h0a9.155,9.155,0,0,1,4.285,1.08h0a22.139,22.139,0,0,1,5.294,4.022h0A14.452,14.452,0,0,0,19.6,24.494h0a5.3,5.3,0,0,0,3.458.608h0a8.929,8.929,0,0,0,2.417-.921h0A21.088,21.088,0,0,0,28.1,22.4h0c.658-.5,1.264-1.142,1.9-1.7h0a18.635,18.635,0,0,1,4.762-3.155h0a7.565,7.565,0,0,1,4.886-.553h0a11.554,11.554,0,0,1,3.433,1.482h0A22.057,22.057,0,0,0,21.79,0h-.341Z" transform="translate(0.138 0.778)" fill="none"/>
      <g id="Group_47-2" data-name="Group 47" clip-path="url(#clip-path-2)">
        <path id="Fill_45" data-name="Fill 45" d="M21.449,0C10.456.089,1.421,8.585,0,19.572H0a15.9,15.9,0,0,1,2.987-1.844h0a8.576,8.576,0,0,1,3.367-.908h0a9.155,9.155,0,0,1,4.285,1.08h0a22.139,22.139,0,0,1,5.294,4.022h0A14.452,14.452,0,0,0,19.6,24.494h0a5.3,5.3,0,0,0,3.458.608h0a8.929,8.929,0,0,0,2.417-.921h0A21.088,21.088,0,0,0,28.1,22.4h0c.658-.5,1.264-1.142,1.9-1.7h0a18.635,18.635,0,0,1,4.762-3.155h0a7.565,7.565,0,0,1,4.886-.553h0a11.554,11.554,0,0,1,3.433,1.482h0A22.057,22.057,0,0,0,21.79,0h-.341Z" transform="translate(0.138 0.778)" fill="url(#linear-gradient-2)"/>
      </g>
    </g>
  </g>
</svg>
