<svg xmlns="http://www.w3.org/2000/svg" xmlns:xlink="http://www.w3.org/1999/xlink" width="320.408" height="55.101" viewBox="0 0 320.408 55.101">
  <defs>
    <clipPath id="clip-path">
      <path id="Clip_43" data-name="Clip 43" d="M6.951.076a7.076,7.076,0,0,0-2.31.77h0C3.457,1.5,2.318,2.326,1.17,3.112h0A1.456,1.456,0,0,1,0,3.385H0c.936,13.455,11.856,24.08,25.223,24.08h0C38.8,27.465,49.848,16.5,50.477,2.748h0A14.005,14.005,0,0,0,46.609.456h0A6.265,6.265,0,0,0,42.36.314h0a12.949,12.949,0,0,0-3.6,1.869h0c-1.2.861-2.305,1.978-3.45,2.986h0a20.53,20.53,0,0,1-5.76,3.72h0a8.521,8.521,0,0,1-5.45.495h0a16.514,16.514,0,0,1-3.265-1.318h0a21.607,21.607,0,0,1-4.5-3.295h0a39.385,39.385,0,0,0-3.123-2.655h0A9.257,9.257,0,0,0,7.894,0h0a5.9,5.9,0,0,0-.943.076" transform="translate(0 0.116)" fill="none"/>
    </clipPath>
    <linearGradient id="linear-gradient" x1="0.5" y1="-0.923" x2="0.5" y2="0.764" gradientUnits="objectBoundingBox">
      <stop offset="0" stop-color="#8ed169"/>
      <stop offset="1" stop-color="#009aff"/>
    </linearGradient>
    <clipPath id="clip-path-2">
      <path id="Clip_46" data-name="Clip 46" d="M24.862,0C12.12.1,1.647,9.906,0,22.583H0a18.446,18.446,0,0,1,3.463-2.127h0a9.976,9.976,0,0,1,3.9-1.048h0a10.65,10.65,0,0,1,4.967,1.246h0a25.65,25.65,0,0,1,6.136,4.641h0a16.752,16.752,0,0,0,4.245,2.969h0a6.162,6.162,0,0,0,4.008.7h0a10.378,10.378,0,0,0,2.8-1.063h0a24.45,24.45,0,0,0,3.051-2.051h0c.763-.579,1.465-1.318,2.2-1.964h0a21.608,21.608,0,0,1,5.52-3.64h0a8.805,8.805,0,0,1,5.663-.638h0a13.423,13.423,0,0,1,3.979,1.71h0C47.782,9.256,37.576.095,25.257,0h-.4Z" transform="translate(0.159 0.898)" fill="none"/>
    </clipPath>
    <linearGradient id="linear-gradient-2" x1="0.5" y1="-0.032" x2="0.5" y2="1.569" xlink:href="#linear-gradient"/>
  </defs>
  <g id="Group_48" data-name="Group 48" transform="translate(0 -1.496)">
    <g id="Group_41" data-name="Group 41" transform="translate(61 2.598)">
      <path id="Fill_1" data-name="Fill 1" d="M3.445,8.878H0V0H3.314A3.649,3.649,0,0,1,5.556.613a2.022,2.022,0,0,1,.81,1.7,2.106,2.106,0,0,1-.329,1.163,2.316,2.316,0,0,1-.921.808,2.543,2.543,0,0,1,1.177.8A1.98,1.98,0,0,1,6.72,6.344a2.246,2.246,0,0,1-.842,1.88A3.924,3.924,0,0,1,3.445,8.878Zm-2.118-4.1V7.768H3.445a2.319,2.319,0,0,0,1.427-.379,1.275,1.275,0,0,0,.493-1.07,1.393,1.393,0,0,0-.493-1.143,2.238,2.238,0,0,0-1.427-.4Zm0-3.668V3.695h2.1A1.781,1.781,0,0,0,4.59,3.348,1.163,1.163,0,0,0,5.01,2.4a1.123,1.123,0,0,0-.46-.946A2.054,2.054,0,0,0,3.3,1.11Z" transform="translate(6.583 42.616)" fill="#414141"/>
      <path id="Fill_3" data-name="Fill 3" d="M3.854,7.114A3.52,3.52,0,0,1,2.835,8.622a2.146,2.146,0,0,1-1.348.464,2.773,2.773,0,0,1-.776-.1,2.6,2.6,0,0,1-.539-.21l.434-.991c.105.043.219.086.341.129a1.293,1.293,0,0,0,.434.065,1.3,1.3,0,0,0,.7-.2,1.412,1.412,0,0,0,.52-.661l.3-.7L0,0H1.355l2.17,4.909L5.419,0H6.747Z" transform="translate(13.579 44.914)" fill="#414141"/>
      <path id="Fill_5" data-name="Fill 5" d="M2.939,8.317H7.414V10.67H0V0H2.939Z" transform="translate(26.13 40.822)" fill="#414141"/>
      <path id="Fill_7" data-name="Fill 7" d="M5.581,11.079a5.783,5.783,0,0,1-2.869-.707A5.244,5.244,0,0,1,.727,8.419,5.607,5.607,0,0,1,0,5.555,5.911,5.911,0,0,1,.412,3.318,5.143,5.143,0,0,1,1.581,1.562,5.382,5.382,0,0,1,3.352.409,5.936,5.936,0,0,1,5.581,0,5.933,5.933,0,0,1,7.809.409,5.382,5.382,0,0,1,9.58,1.562a5.17,5.17,0,0,1,1.17,1.757,5.928,5.928,0,0,1,.411,2.236,5.607,5.607,0,0,1-.727,2.864,5.239,5.239,0,0,1-1.984,1.954A5.776,5.776,0,0,1,5.581,11.079Zm0-8.662a2.324,2.324,0,0,0-1.352.4A2.735,2.735,0,0,0,3.32,3.923a3.81,3.81,0,0,0-.333,1.632A3.758,3.758,0,0,0,3.32,7.179a2.671,2.671,0,0,0,.909,1.09,2.352,2.352,0,0,0,1.352.392,2.36,2.36,0,0,0,1.352-.392,2.666,2.666,0,0,0,.908-1.09,3.758,3.758,0,0,0,.333-1.625,3.81,3.81,0,0,0-.333-1.632,2.73,2.73,0,0,0-.908-1.107A2.332,2.332,0,0,0,5.581,2.417Z" transform="translate(34.159 40.619)" fill="#414141"/>
      <path id="Fill_9" data-name="Fill 9" d="M5.533,11.078a5.739,5.739,0,0,1-2.885-.706A5.082,5.082,0,0,1,.7,8.419,5.8,5.8,0,0,1,0,5.524,5.762,5.762,0,0,1,.7,2.635,5.053,5.053,0,0,1,2.648.7,5.793,5.793,0,0,1,5.533,0,5.528,5.528,0,0,1,8.039.557a5.359,5.359,0,0,1,1.9,1.608L7.619,3.53a3.284,3.284,0,0,0-.925-.815,2.335,2.335,0,0,0-1.193-.3,2.248,2.248,0,0,0-1.818.839,3.441,3.441,0,0,0-.7,2.268,3.5,3.5,0,0,0,.7,2.283A2.23,2.23,0,0,0,5.5,8.661a2.267,2.267,0,0,0,1.233-.337,3.557,3.557,0,0,0,.9-.793L9.943,8.9a5.152,5.152,0,0,1-1.9,1.625,5.607,5.607,0,0,1-2.506.556" transform="translate(46.458 40.619)" fill="#414141"/>
      <path id="Fill_11" data-name="Fill 11" d="M2.909,10.671H0L3.936,0H7.35l3.935,10.669H8.3l-.68-1.993H3.587L2.909,10.67Zm2.7-7.894h0L4.332,6.512H6.876L5.612,2.777Z" transform="translate(56.938 40.823)" fill="#414141"/>
      <path id="Fill_13" data-name="Fill 13" d="M2.94,8.317H7.414V10.67H0V0H2.94Z" transform="translate(69.632 40.822)" fill="#414141"/>
      <path id="Fill_15" data-name="Fill 15" d="M0,7.988V0A6.375,6.375,0,0,0,1.344.143,7.124,7.124,0,0,0,2.75,0V7.988Z" transform="translate(78.373 43.505)" fill="#414141"/>
      <path id="Fill_17" data-name="Fill 17" d="M10.465,11.517H7.825l-.506-.674a6.178,6.178,0,0,1-1.739.236,5.776,5.776,0,0,1-2.868-.707A5.248,5.248,0,0,1,.726,8.419,5.607,5.607,0,0,1,0,5.555,5.928,5.928,0,0,1,.411,3.318,5.169,5.169,0,0,1,1.58,1.562,5.384,5.384,0,0,1,3.352.409,5.933,5.933,0,0,1,5.58,0,5.943,5.943,0,0,1,7.809.409,5.4,5.4,0,0,1,9.58,1.562a5.154,5.154,0,0,1,1.169,1.757,5.911,5.911,0,0,1,.412,2.237,5.759,5.759,0,0,1-.523,2.472A5.176,5.176,0,0,1,9.2,9.87l1.263,1.645ZM5.58,2.417a2.324,2.324,0,0,0-1.352.4A2.73,2.73,0,0,0,3.32,3.923a3.81,3.81,0,0,0-.333,1.632A3.758,3.758,0,0,0,3.32,7.179a2.666,2.666,0,0,0,.908,1.09,2.352,2.352,0,0,0,1.352.392h.111L4.109,6.544H6.686L7.54,7.69a2.927,2.927,0,0,0,.466-.942,4.114,4.114,0,0,0,.167-1.192,3.81,3.81,0,0,0-.333-1.632,2.74,2.74,0,0,0-.909-1.107A2.328,2.328,0,0,0,5.58,2.417Z" transform="translate(82.656 40.619)" fill="#414141"/>
      <path id="Fill_19" data-name="Fill 19" d="M1.644,3.263A1.592,1.592,0,0,1,.481,2.785,1.569,1.569,0,0,1,0,1.631,1.569,1.569,0,0,1,.481.478,1.589,1.589,0,0,1,1.644,0,1.588,1.588,0,0,1,2.806.478a1.569,1.569,0,0,1,.481,1.153,1.569,1.569,0,0,1-.481,1.154,1.592,1.592,0,0,1-1.162.478" transform="translate(78.073 39.615)" fill="#4891cd"/>
      <path id="Fill_21" data-name="Fill 21" d="M24.726,28.483,20.085,9.969,15.443,28.483H7.131L0,0H7.6l4.346,19.435L16.752,0H23.46l4.769,19.31L32.7,0h7.469L33.038,28.483Z" transform="translate(0.381 2.434)" fill="#414141"/>
      <path id="Fill_23" data-name="Fill 23" d="M11.731,22.408a12.534,12.534,0,0,1-6.1-1.445A10.724,10.724,0,0,1,1.5,17.006,11.2,11.2,0,0,1,0,11.183,11.2,11.2,0,0,1,1.5,5.36,10.586,10.586,0,0,1,5.633,1.424,12.7,12.7,0,0,1,11.731,0a12.689,12.689,0,0,1,6.1,1.424A10.6,10.6,0,0,1,21.963,5.36a11.216,11.216,0,0,1,1.5,5.823,11.21,11.21,0,0,1-1.5,5.822,10.738,10.738,0,0,1-4.136,3.957A12.526,12.526,0,0,1,11.731,22.408Zm0-16.628a3.77,3.77,0,0,0-3.1,1.466,6.2,6.2,0,0,0-1.16,3.937,6.284,6.284,0,0,0,1.16,3.958,3.747,3.747,0,0,0,3.1,1.487,3.749,3.749,0,0,0,3.1-1.487,6.288,6.288,0,0,0,1.161-3.958,6.2,6.2,0,0,0-1.161-3.937A3.771,3.771,0,0,0,11.731,5.78Z" transform="translate(41.14 9.052)" fill="#414141"/>
      <path id="Fill_25" data-name="Fill 25" d="M7.342,13.362v8.252H0V.294H6.708l.464,3.559A5.991,5.991,0,0,1,9.389,1.068,6.1,6.1,0,0,1,12.954,0a4.023,4.023,0,0,1,1.73.294V6.953A5.4,5.4,0,0,0,13.65,6.7a8.921,8.921,0,0,0-1.288-.084A4.584,4.584,0,0,0,8.755,8.231Q7.342,9.843,7.342,13.362" transform="translate(68.439 9.303)" fill="#414141"/>
      <path id="Fill_27" data-name="Fill 27" d="M9.747,31.12a9.2,9.2,0,0,1-5.1-1.423,9.592,9.592,0,0,1-3.419-3.958A13.355,13.355,0,0,1,0,19.9a13.22,13.22,0,0,1,1.223-5.822,9.793,9.793,0,0,1,3.355-3.937A8.676,8.676,0,0,1,9.494,8.712a8.018,8.018,0,0,1,6.328,3.016V0h7.343V30.577h-6.71l-.379-2.807a7.266,7.266,0,0,1-6.33,3.351Zm1.984-16.669a3.75,3.75,0,0,0-3.1,1.486A6.291,6.291,0,0,0,7.469,19.9a6.289,6.289,0,0,0,1.16,3.959,3.749,3.749,0,0,0,3.1,1.486,3.706,3.706,0,0,0,3.058-1.486A6.293,6.293,0,0,0,15.95,19.9a6.3,6.3,0,0,0-1.161-3.958A3.707,3.707,0,0,0,11.731,14.451Z" transform="translate(85.358 0.34)" fill="#414141"/>
      <path id="Fill_29" data-name="Fill 29" d="M12.278,29.572A19.073,19.073,0,0,1,5.57,28.378,16.353,16.353,0,0,1,0,24.964l3.8-4.733a13,13,0,0,0,3.8,2.367,12.2,12.2,0,0,0,4.641.858,5.134,5.134,0,0,0,2.658-.586,1.923,1.923,0,0,0,.971-1.759,2.071,2.071,0,0,0-1.14-1.822,16.617,16.617,0,0,0-4.008-1.444l-1.772-.461A12.424,12.424,0,0,1,3.038,14.3,7.211,7.211,0,0,1,1.011,9.047,8.125,8.125,0,0,1,2.447,4.272,9.227,9.227,0,0,1,6.413,1.11,14.5,14.5,0,0,1,12.278,0a16.814,16.814,0,0,1,6.286,1.194,18.016,18.016,0,0,1,5.317,3.246l-3.924,4.9a15.848,15.848,0,0,0-3.565-2.262,9.509,9.509,0,0,0-4.071-.964,4.927,4.927,0,0,0-2.6.566,1.829,1.829,0,0,0-.907,1.655,2.153,2.153,0,0,0,.949,1.738,9.859,9.859,0,0,0,3.27,1.362l2.152.586q4.643,1.256,6.562,3.434a7.431,7.431,0,0,1,1.92,5.069,8.116,8.116,0,0,1-1.413,4.755,9.259,9.259,0,0,1-3.988,3.162,14.793,14.793,0,0,1-5.991,1.13" transform="translate(112.11 1.889)" fill="#414141"/>
      <path id="Fill_31" data-name="Fill 31" d="M17.6,25.886a11.354,11.354,0,0,1-3,1.4,11.88,11.88,0,0,1-3.545.524,7.558,7.558,0,0,1-5.505-1.989A7.1,7.1,0,0,1,3.5,20.482V11.393H0V5.948H3.84L4.769,0h6.076V5.948h5.612v5.445H10.844v8.168a2.194,2.194,0,0,0,.655,1.7,2.465,2.465,0,0,0,1.75.608,3.218,3.218,0,0,0,1.118-.21,6.789,6.789,0,0,0,1.076-.5Z" transform="translate(138.142 3.648)" fill="#414141"/>
      <path id="Fill_33" data-name="Fill 33" d="M7.342,13.362v8.252H0V.294H6.708l.464,3.559A5.991,5.991,0,0,1,9.389,1.068,6.1,6.1,0,0,1,12.954,0a4.023,4.023,0,0,1,1.73.294V6.953A5.4,5.4,0,0,0,13.65,6.7a8.921,8.921,0,0,0-1.288-.084A4.584,4.584,0,0,0,8.755,8.231Q7.342,9.843,7.342,13.362" transform="translate(159.24 9.303)" fill="#414141"/>
      <path id="Fill_35" data-name="Fill 35" d="M12.193,22.409a14.237,14.237,0,0,1-6.561-1.4,10.026,10.026,0,0,1-4.176-3.917A11.368,11.368,0,0,1,0,11.309,11.827,11.827,0,0,1,1.434,5.446a10.4,10.4,0,0,1,3.966-4A11.771,11.771,0,0,1,11.308,0a11.736,11.736,0,0,1,5.8,1.4A10.122,10.122,0,0,1,21.033,5.3a11.7,11.7,0,0,1,1.414,5.843,7.908,7.908,0,0,1-.063.964c-.041.327-.091.68-.148,1.048H7.257c.672,2.445,2.531,3.686,5.528,3.686a9.614,9.614,0,0,0,3.587-.628,19.418,19.418,0,0,0,2.615-1.256l2.532,4.733a15.158,15.158,0,0,1-4.072,1.927A17.118,17.118,0,0,1,12.193,22.409ZM11.477,5.278c-2.38,0-3.828,1.268-4.3,3.77h8.185a4.285,4.285,0,0,0-1.414-2.911A3.975,3.975,0,0,0,11.477,5.278Z" transform="translate(176.159 9.052)" fill="#414141"/>
      <path id="Fill_37" data-name="Fill 37" d="M6.793,22.409a7.249,7.249,0,0,1-3.439-.817A6.412,6.412,0,0,1,.907,19.351,6.042,6.042,0,0,1,0,16.042a6.393,6.393,0,0,1,2.805-5.529,12.7,12.7,0,0,1,7.406-1.968,19.764,19.764,0,0,1,3.038.251,3.165,3.165,0,0,0-1.372-2.408A5.12,5.12,0,0,0,8.945,5.57a8.871,8.871,0,0,0-3.06.566A19.424,19.424,0,0,0,2.953,7.5L.464,2.806A18.232,18.232,0,0,1,5.021.734,17.047,17.047,0,0,1,9.916,0a13.509,13.509,0,0,1,5.316,1.005,8.181,8.181,0,0,1,3.712,3.057A9.306,9.306,0,0,1,20.3,9.256V21.865H13.586l-.38-2.807A7.091,7.091,0,0,1,6.793,22.409Zm4.092-9.8a5.93,5.93,0,0,0-2.679.545,1.875,1.875,0,0,0-1.075,1.8,1.972,1.972,0,0,0,.717,1.57,2.788,2.788,0,0,0,1.856.607,3.518,3.518,0,0,0,3.587-3.6v-.712A13.465,13.465,0,0,0,10.885,12.607Z" transform="translate(201.011 9.052)" fill="#414141"/>
      <path id="Fill_39" data-name="Fill 39" d="M7.342,9.466V21.739H0V.419H6.751l.38,2.723A6.354,6.354,0,0,1,9.662.8a7.471,7.471,0,0,1,6.793.041,6.793,6.793,0,0,1,2.532,2.347A7.294,7.294,0,0,1,21.962.817,9.4,9.4,0,0,1,25.823,0a7.515,7.515,0,0,1,3.944,1.026,7.187,7.187,0,0,1,2.679,2.849,8.816,8.816,0,0,1,.971,4.209V21.739H26.076V8.838A3.024,3.024,0,0,0,25.338,6.7a2.454,2.454,0,0,0-1.879-.8,2.955,2.955,0,0,0-2.235.88,3.737,3.737,0,0,0-.845,2.681V21.739H13.038V8.838A3.078,3.078,0,0,0,12.32,6.7a2.484,2.484,0,0,0-1.941-.8,2.905,2.905,0,0,0-2.194.88,3.746,3.746,0,0,0-.844,2.681" transform="translate(225.99 9.177)" fill="#414141"/>
    </g>
    <g id="Group_44" data-name="Group 44" transform="translate(0 25.598)">
      <path id="Clip_43-2" data-name="Clip 43" d="M6.951.076a7.076,7.076,0,0,0-2.31.77h0C3.457,1.5,2.318,2.326,1.17,3.112h0A1.456,1.456,0,0,1,0,3.385H0c.936,13.455,11.856,24.08,25.223,24.08h0C38.8,27.465,49.848,16.5,50.477,2.748h0A14.005,14.005,0,0,0,46.609.456h0A6.265,6.265,0,0,0,42.36.314h0a12.949,12.949,0,0,0-3.6,1.869h0c-1.2.861-2.305,1.978-3.45,2.986h0a20.53,20.53,0,0,1-5.76,3.72h0a8.521,8.521,0,0,1-5.45.495h0a16.514,16.514,0,0,1-3.265-1.318h0a21.607,21.607,0,0,1-4.5-3.295h0a39.385,39.385,0,0,0-3.123-2.655h0A9.257,9.257,0,0,0,7.894,0h0a5.9,5.9,0,0,0-.943.076" transform="translate(0 0.116)" fill="none"/>
      <g id="Group_44-2" data-name="Group 44" clip-path="url(#clip-path)">
        <path id="Fill_42" data-name="Fill 42" d="M6.951.076a7.076,7.076,0,0,0-2.31.77h0C3.457,1.5,2.318,2.326,1.17,3.112h0A1.456,1.456,0,0,1,0,3.385H0c.936,13.455,11.856,24.08,25.223,24.08h0C38.8,27.465,49.848,16.5,50.477,2.748h0A14.005,14.005,0,0,0,46.609.456h0A6.265,6.265,0,0,0,42.36.314h0a12.949,12.949,0,0,0-3.6,1.869h0c-1.2.861-2.305,1.978-3.45,2.986h0a20.53,20.53,0,0,1-5.76,3.72h0a8.521,8.521,0,0,1-5.45.495h0a16.514,16.514,0,0,1-3.265-1.318h0a21.607,21.607,0,0,1-4.5-3.295h0a39.385,39.385,0,0,0-3.123-2.655h0A9.257,9.257,0,0,0,7.894,0h0a5.9,5.9,0,0,0-.943.076" transform="translate(0 0.116)" fill="url(#linear-gradient)"/>
      </g>
    </g>
    <g id="Group_47" data-name="Group 47" transform="translate(0 0.598)">
      <path id="Clip_46-2" data-name="Clip 46" d="M24.862,0C12.12.1,1.647,9.906,0,22.583H0a18.446,18.446,0,0,1,3.463-2.127h0a9.976,9.976,0,0,1,3.9-1.048h0a10.65,10.65,0,0,1,4.967,1.246h0a25.65,25.65,0,0,1,6.136,4.641h0a16.752,16.752,0,0,0,4.245,2.969h0a6.162,6.162,0,0,0,4.008.7h0a10.378,10.378,0,0,0,2.8-1.063h0a24.45,24.45,0,0,0,3.051-2.051h0c.763-.579,1.465-1.318,2.2-1.964h0a21.608,21.608,0,0,1,5.52-3.64h0a8.805,8.805,0,0,1,5.663-.638h0a13.423,13.423,0,0,1,3.979,1.71h0C47.782,9.256,37.576.095,25.257,0h-.4Z" transform="translate(0.159 0.898)" fill="none"/>
      <g id="Group_47-2" data-name="Group 47" clip-path="url(#clip-path-2)">
        <path id="Fill_45" data-name="Fill 45" d="M24.862,0C12.12.1,1.647,9.906,0,22.583H0a18.446,18.446,0,0,1,3.463-2.127h0a9.976,9.976,0,0,1,3.9-1.048h0a10.65,10.65,0,0,1,4.967,1.246h0a25.65,25.65,0,0,1,6.136,4.641h0a16.752,16.752,0,0,0,4.245,2.969h0a6.162,6.162,0,0,0,4.008.7h0a10.378,10.378,0,0,0,2.8-1.063h0a24.45,24.45,0,0,0,3.051-2.051h0c.763-.579,1.465-1.318,2.2-1.964h0a21.608,21.608,0,0,1,5.52-3.64h0a8.805,8.805,0,0,1,5.663-.638h0a13.423,13.423,0,0,1,3.979,1.71h0C47.782,9.256,37.576.095,25.257,0h-.4Z" transform="translate(0.159 0.898)" fill="url(#linear-gradient-2)"/>
      </g>
    </g>
  </g>
</svg>
