<?xml version="1.0" standalone="no"?>
<!DOCTYPE svg PUBLIC "-//W3C//DTD SVG 1.1//EN" "http://www.w3.org/Graphics/SVG/1.1/DTD/svg11.dtd" >
<svg xmlns="http://www.w3.org/2000/svg" xmlns:xlink="http://www.w3.org/1999/xlink" version="1.1">
<metadata>
Created by FontForge 20170731 at Fri Mar 31 18:00:30 2017
 By Aleksey,,,
(c) 2017 Gannett Co., Inc. All Rights Reserved.
</metadata>
<defs>
<font id="UnifySans-Bold" horiz-adv-x="590" >
  <font-face 
    font-family="Unify Sans"
    font-weight="700"
    font-stretch="normal"
    units-per-em="1000"
    panose-1="2 11 8 3 2 2 3 2 2 4"
    ascent="730"
    descent="-270"
    x-height="509"
    cap-height="680"
    bbox="-233 -254 979 906"
    underline-thickness="85"
    underline-position="-186"
    unicode-range="U+000D-2212"
  />
<missing-glyph horiz-adv-x="550" 
d="M75 0v730h400v-730h-400zM125 47h300v636h-300v-636z" />
    <glyph glyph-name="f_i" unicode="fi" horiz-adv-x="712" 
d="M276 546v-37h375v-509h-174v379h-201v-379h-174v379h-83v130h83v37q0 88 52 142t147 54q29 0 59 -5t63 -18l-46 -119q-10 4 -20 6t-24 2q-24 0 -40.5 -15t-16.5 -47zM563 558q-45 0 -73.5 26.5t-28.5 65.5q0 40 28.5 66t73.5 26t73.5 -26t28.5 -66q0 -39 -28.5 -65.5
t-73.5 -26.5z" />
    <glyph glyph-name="f_j" unicode="fj" horiz-adv-x="712" 
d="M276 546v-37h375v-507q0 -88 -47.5 -142t-145.5 -54q-40 0 -74 8t-59 19l46 120q12 -5 26 -9t29 -4q23 0 37 13.5t14 41.5v384h-201v-379h-174v379h-83v130h83v37q0 88 52 142t147 54q29 0 59 -5t63 -18l-46 -119q-10 4 -20 6t-24 2q-24 0 -40.5 -15t-16.5 -47zM563 558
q-45 0 -73.5 26.5t-28.5 65.5q0 40 28.5 66t73.5 26t73.5 -26t28.5 -66q0 -39 -28.5 -65.5t-73.5 -26.5z" />
    <glyph glyph-name=".notdef" horiz-adv-x="550" 
d="M75 0v730h400v-730h-400zM125 47h300v636h-300v-636z" />
    <glyph glyph-name=".null" horiz-adv-x="0" 
 />
    <glyph glyph-name=".null" horiz-adv-x="0" 
 />
    <glyph glyph-name="nonmarkingreturn" horiz-adv-x="333" 
 />
    <glyph glyph-name="CR" unicode="&#xd;" horiz-adv-x="240" 
 />
    <glyph glyph-name="space" unicode=" " horiz-adv-x="240" 
 />
    <glyph glyph-name="exclam" unicode="!" horiz-adv-x="328" 
d="M91 220l-20 460h186l-20 -460h-146zM164 -10q-42 0 -71 29.5t-29 70.5q0 40 29 69.5t71 29.5q41 0 70.5 -29.5t29.5 -69.5q0 -41 -29.5 -70.5t-70.5 -29.5z" />
    <glyph glyph-name="quotedbl" unicode="&#x22;" horiz-adv-x="460" 
d="M270 431v299h137v-299h-137zM53 431v299h137v-299h-137z" />
    <glyph glyph-name="numbersign" unicode="#" horiz-adv-x="700" 
d="M361 0l23 148h-124l-23 -148h-131l23 148h-93v120h111l20 130h-101v120h119l23 148h132l-23 -148h123l23 148h132l-23 -148h92v-120h-110l-21 -130h101v-120h-119l-23 -148h-131zM278 268h124l20 130h-123z" />
    <glyph glyph-name="dollar" unicode="$" 
d="M549 216q0 -81 -57 -133t-153 -60v-96h-87v97q-64 7 -120.5 31.5t-92.5 60.5l86 100q56 -45 127 -59v123l-40 11q-85 23 -125.5 66t-40.5 104q0 80 56 131.5t150 61.5v76h87v-77q60 -6 114.5 -28.5t91.5 -54.5l-75 -109q-27 22 -61.5 37t-69.5 22v-123l42 -11
q85 -22 126.5 -65t41.5 -105zM198 475q0 -34 54 -53v102q-54 -9 -54 -49zM397 202q0 35 -58 55v-104q58 8 58 49z" />
    <glyph glyph-name="percent" unicode="%" horiz-adv-x="922" 
d="M223 312q-51 0 -92.5 24.5t-66 66t-24.5 92.5t24.5 92.5t66 66t92.5 24.5t93 -24.5t66.5 -66t24.5 -92.5t-24.5 -92.5t-66.5 -66t-93 -24.5zM162 0l458 668h146l-457 -668h-147zM223 424q26 0 43.5 21t17.5 50q0 30 -17.5 51t-43.5 21q-25 0 -43 -21t-18 -51
q0 -29 18 -50t43 -21zM699 -13q-51 0 -93 24.5t-66.5 66t-24.5 92.5t24.5 92.5t66.5 65.5t93 24t92.5 -24t66 -65.5t24.5 -92.5t-24.5 -92.5t-66 -66t-92.5 -24.5zM699 98q26 0 43.5 21t17.5 51t-17.5 51t-43.5 21q-25 0 -43 -21t-18 -51t18 -51t43 -21z" />
    <glyph glyph-name="ampersand" unicode="&#x26;" horiz-adv-x="683" 
d="M496 0l-34 35q-77 -45 -181 -45q-79 0 -138.5 25t-92.5 70.5t-33 106.5q0 60 31.5 108.5t87.5 77.5q-30 37 -44 69.5t-14 67.5q0 53 28.5 94.5t78 65.5t113.5 24t113.5 -24t78 -65.5t28.5 -94.5q0 -61 -39.5 -106t-112.5 -71l104 -111q24 48 31 112l126 -17
q-14 -114 -65 -192l121 -130h-187zM232 515q0 -17 10.5 -35.5t37.5 -49.5l19 6q30 10 47.5 31t17.5 48q0 28 -18.5 45.5t-47.5 17.5q-28 0 -47 -18t-19 -45zM171 201q0 -40 33.5 -64.5t89.5 -24.5q43 0 79 16l-151 158q-51 -27 -51 -85z" />
    <glyph glyph-name="quotesingle" unicode="'" horiz-adv-x="243" 
d="M53 431v299h137v-299h-137z" />
    <glyph glyph-name="parenleft" unicode="(" horiz-adv-x="393" 
d="M221 -160q-52 62 -89.5 136.5t-57.5 154t-20 154.5t20 154.5t57.5 154t89.5 136.5h174q-41 -60 -79.5 -128t-63 -147t-24.5 -170t24.5 -170t63 -147t79.5 -128h-174z" />
    <glyph glyph-name="parenright" unicode=")" horiz-adv-x="393" 
d="M-2 -160q41 60 79.5 128t63 147t24.5 170t-24.5 170t-63 147t-79.5 128h174q52 -62 89.5 -136.5t57.5 -154t20 -154.5t-20 -154.5t-57.5 -154t-89.5 -136.5h-174z" />
    <glyph glyph-name="asterisk" unicode="*" horiz-adv-x="461" 
d="M399 347l-100 -72l-68 106l-69 -106l-99 72l81 98l-126 33l38 117l119 -46l-6 131h123l-6 -131l119 46l38 -117l-126 -33z" />
    <glyph glyph-name="plus" unicode="+" 
d="M220 82v184h-170v132h170v181h150v-181h170v-132h-170v-184h-150z" />
    <glyph glyph-name="comma" unicode="," horiz-adv-x="300" 
d="M253 61q0 -47 -21 -103t-73 -118h-115q33 47 55 83.5t35 72.5q-36 5 -60 31t-24 63q0 40 29 69t71 29q44 0 73.5 -33.5t29.5 -93.5z" />
    <glyph glyph-name="hyphen" unicode="-" horiz-adv-x="450" 
d="M384 230h-318v154h318v-154z" />
    <glyph glyph-name="period" unicode="." horiz-adv-x="300" 
d="M150 -10q-42 0 -71 29.5t-29 70.5q0 40 29 69.5t71 29.5q41 0 70.5 -29.5t29.5 -69.5q0 -41 -29.5 -70.5t-70.5 -29.5z" />
    <glyph glyph-name="slash" unicode="/" horiz-adv-x="541" 
d="M4 -130l356 860h177l-356 -860h-177z" />
    <glyph glyph-name="zero" unicode="0" 
d="M296 -10q-87 0 -148.5 42.5t-94 120t-32.5 181.5t32.5 181.5t94 120t148.5 42.5q86 0 147.5 -42.5t94 -120t32.5 -181.5t-32.5 -181.5t-94 -120t-147.5 -42.5zM296 138q50 0 71 51t21 145t-21 145t-71 51q-51 0 -72 -51t-21 -145t21 -145t72 -51z" />
    <glyph glyph-name="one" unicode="1" 
d="M448 668v-668h-178v478l-126 -55l-59 131l223 114h140z" />
    <glyph glyph-name="two" unicode="2" 
d="M549 146v-146h-496v123l171 169q49 48 76.5 80.5t39 56t11.5 44.5q0 27 -18.5 44t-47.5 17q-76 0 -91 -88l-163 35q25 95 92.5 147t167.5 52q72 0 126 -25.5t84 -71t30 -106.5q0 -39 -15 -76t-52 -82t-103 -108l-67 -65h255z" />
    <glyph glyph-name="three" unicode="3" 
d="M551 184q0 -60 -32.5 -104t-91.5 -68.5t-141 -24.5q-92 0 -159 40.5t-103 120.5l145 64q15 -34 40.5 -56.5t70.5 -22.5q34 0 62.5 15.5t28.5 52.5q0 33 -31.5 51.5t-91.5 18.5h-44v129h44q54 0 77.5 21t23.5 47q0 28 -21.5 47t-52.5 19q-35 0 -57 -17.5t-34 -50.5
l-151 52q33 80 100.5 121t156.5 41q71 0 125 -23t84.5 -64.5t30.5 -95.5q0 -55 -30.5 -95.5t-79.5 -59.5q56 -17 93.5 -56.5t37.5 -101.5z" />
    <glyph glyph-name="four" unicode="4" 
d="M582 122h-91v-122h-164v122h-317v133l282 411h199v-409h91v-135zM172 257h155v228z" />
    <glyph glyph-name="five" unicode="5" 
d="M552 216q0 -68 -33 -119t-91.5 -79t-133.5 -28q-80 0 -147.5 35t-103.5 112l138 66q37 -69 103 -69q44 0 68.5 23.5t24.5 64.5q0 38 -26 62t-67 24q-64 0 -102 -52l-127 47l39 363h414v-146h-271l-11 -105q22 10 48 15.5t51 5.5q69 0 120 -27t79 -76.5t28 -116.5z" />
    <glyph glyph-name="six" unicode="6" 
d="M564 225q0 -70 -32.5 -123.5t-90 -84t-131.5 -30.5q-131 0 -203 85.5t-72 241.5q0 111 30.5 193.5t93 127.5t159.5 45q68 0 132 -29t104 -88l-129 -82q-14 21 -41.5 37t-59.5 16q-58 0 -90 -39t-32 -112q21 25 57 39t84 14q61 0 111 -26t80 -73.5t30 -111.5zM299 130
q42 0 68.5 25t26.5 65t-26.5 65.5t-68.5 25.5q-41 0 -68 -25.5t-27 -65.5t27 -65t68 -25z" />
    <glyph glyph-name="seven" unicode="7" 
d="M551 532q-93 -80 -145.5 -166.5t-75 -178t-24.5 -187.5h-182q3 97 25.5 189t71 175.5t129.5 155.5h-311v146h512v-134z" />
    <glyph glyph-name="eight" unicode="8" 
d="M566 186q0 -92 -71.5 -145.5t-198.5 -53.5t-198.5 53.5t-71.5 145.5q0 55 32 96t80 63q-41 22 -65 60.5t-24 85.5q0 57 31 99.5t86.5 66t129.5 23.5q72 0 128 -23.5t87.5 -66t31.5 -99.5q0 -47 -24 -85.5t-65 -60.5q48 -22 80 -63t32 -96zM296 396q38 0 63 20t25 52
t-25 52.5t-63 20.5t-63 -20.5t-25 -52.5t25 -52t63 -20zM296 128q46 0 75.5 21.5t29.5 60.5q0 40 -30.5 60.5t-74.5 20.5t-74.5 -20.5t-30.5 -60.5q0 -39 30.5 -60.5t74.5 -21.5z" />
    <glyph glyph-name="nine" unicode="9" 
d="M554 352q0 -111 -30.5 -193.5t-93 -127.5t-159.5 -45q-68 0 -132 29t-104 88l129 82q14 -21 41.5 -37t59.5 -16q58 0 90 39t32 112q-21 -25 -57 -39t-84 -14q-60 0 -110.5 26t-80.5 73.5t-30 111.5q0 70 32.5 123.5t89.5 84t132 30.5q131 0 203 -85.5t72 -241.5zM290 536
q-42 0 -68.5 -25t-26.5 -65t26.5 -65.5t68.5 -25.5q41 0 68 25.5t27 65.5t-27 65t-68 25z" />
    <glyph glyph-name="colon" unicode=":" horiz-adv-x="300" 
d="M150 -10q-42 0 -71 29.5t-29 70.5q0 40 29 69.5t71 29.5q41 0 70.5 -29.5t29.5 -69.5q0 -41 -29.5 -70.5t-70.5 -29.5zM150 320q-42 0 -71 29.5t-29 70.5q0 40 29 69.5t71 29.5q41 0 70.5 -29.5t29.5 -69.5q0 -41 -29.5 -70.5t-70.5 -29.5z" />
    <glyph glyph-name="semicolon" unicode=";" horiz-adv-x="300" 
d="M253 61q0 -47 -21 -103t-73 -118h-115q33 47 55 83.5t35 72.5q-36 5 -60 31t-24 63q0 40 29 69t71 29q44 0 73.5 -33.5t29.5 -93.5zM150 320q-42 0 -71 29.5t-29 70.5q0 40 29 69.5t71 29.5q41 0 70.5 -29.5t29.5 -69.5q0 -41 -29.5 -70.5t-70.5 -29.5z" />
    <glyph glyph-name="less" unicode="&#x3c;" 
d="M525 72l-490 188v98l490 188v-149l-266 -87l266 -86v-152z" />
    <glyph glyph-name="equal" unicode="=" 
d="M50 387v132h490v-132h-490zM50 149v132h490v-132h-490z" />
    <glyph glyph-name="greater" unicode="&#x3e;" 
d="M65 546l490 -188v-98l-490 -188v152l266 86l-266 87v149z" />
    <glyph glyph-name="question" unicode="?" horiz-adv-x="516" 
d="M490 486q0 -83 -55.5 -135t-157.5 -63l-6 -68h-138l-8 177h37q78 0 113 18t35 60q0 33 -22.5 51.5t-62.5 18.5q-35 0 -63 -14.5t-51 -35.5l-96 100q43 47 99.5 72.5t122.5 25.5q75 0 132 -25.5t89 -72.5t32 -109zM205 -10q-42 0 -71.5 29.5t-29.5 70.5q0 40 29.5 69.5
t71.5 29.5t71.5 -29.5t29.5 -69.5q0 -41 -29.5 -70.5t-71.5 -29.5z" />
    <glyph glyph-name="at" unicode="@" horiz-adv-x="925" 
d="M638 -68q-41 -22 -85 -31t-90 -9q-93 0 -171 30t-135 84.5t-88 129.5t-31 165t32 165t90 129.5t137.5 84.5t175.5 30q89 0 164.5 -26t131.5 -73.5t87 -112t31 -140.5q0 -64 -22.5 -120t-67.5 -90.5t-113 -34.5q-44 0 -79.5 18t-50.5 50q-18 -32 -52.5 -50t-77.5 -18
q-50 0 -88 23.5t-59 65.5t-21 96t21.5 96t59.5 65.5t87 23.5q63 0 106 -40l10 33h109v-192q0 -23 12.5 -37t31.5 -14q30 0 42 35.5t12 87.5q0 74 -35 126.5t-96.5 80t-142.5 27.5q-87 0 -153.5 -37t-104 -102t-37.5 -150t36.5 -150t101 -102t147.5 -37q78 0 139 31zM454 233
q26 0 41.5 18t15.5 48q0 29 -15.5 46.5t-41.5 17.5q-27 0 -42.5 -17.5t-15.5 -46.5q0 -30 15.5 -48t42.5 -18z" />
    <glyph glyph-name="A" unicode="A" horiz-adv-x="742" 
d="M539 0l-43 127h-255l-43 -127h-184l249 680h216l249 -680h-189zM288 265h161l-80 238z" />
    <glyph glyph-name="B" unicode="B" horiz-adv-x="668" 
d="M634 187q0 -55 -31 -97.5t-87.5 -66t-132.5 -23.5h-308v680h295q110 0 173.5 -47.5t63.5 -129.5q0 -57 -28.5 -97.5t-71.5 -59.5q58 -18 92.5 -60t34.5 -99zM248 410h109q33 0 52 17.5t19 47.5q0 29 -20 46t-53 17h-107v-128zM248 142h126q34 0 55 19t21 47q0 30 -21 49
t-55 19h-126v-134z" />
    <glyph glyph-name="C" unicode="C" horiz-adv-x="685" 
d="M386 -13q-104 0 -182.5 45t-123 124.5t-44.5 184.5t44.5 184t123 123.5t182.5 44.5q88 0 158.5 -35.5t120.5 -102.5l-147 -87q-26 33 -58.5 52t-75.5 19q-71 0 -115 -53.5t-44 -144.5t44 -145.5t115 -54.5q44 0 78 21.5t57 50.5l146 -87q-49 -68 -120.5 -103.5
t-158.5 -35.5z" />
    <glyph glyph-name="D" unicode="D" horiz-adv-x="723" 
d="M75 0v680h268q101 0 178.5 -43.5t121.5 -120t44 -176.5t-44 -176.5t-121.5 -120t-178.5 -43.5h-268zM258 147h85q73 0 115.5 53t42.5 140t-42.5 140t-115.5 53h-85v-386z" />
    <glyph glyph-name="E" unicode="E" horiz-adv-x="602" 
d="M75 0v680h469v-149h-287v-115h255v-149h-255v-118h303v-149h-485z" />
    <glyph glyph-name="F" unicode="F" horiz-adv-x="581" 
d="M261 0h-186v680h478v-149h-292v-136h242v-149h-242v-246z" />
    <glyph glyph-name="G" unicode="G" horiz-adv-x="734" 
d="M683 80q-43 -44 -119 -68.5t-168 -24.5q-110 0 -190.5 44.5t-125 124.5t-44.5 185t45 184t126 123.5t189 44.5q184 0 285 -138l-149 -87q-21 34 -57.5 52.5t-80.5 18.5q-80 0 -124.5 -54t-44.5 -144q0 -101 50.5 -150.5t146.5 -49.5q45 0 89 15v100h-121v135h293v-311z
" />
    <glyph glyph-name="H" unicode="H" horiz-adv-x="753" 
d="M75 0v680h186v-262h231v262h186v-680h-186v266h-231v-266h-186z" />
    <glyph glyph-name="I" unicode="I" horiz-adv-x="336" 
d="M261 0h-186v680h186v-680z" />
    <glyph glyph-name="J" unicode="J" horiz-adv-x="553" 
d="M238 -13q-171 0 -238 146l148 71q16 -33 35 -48t48 -15q35 0 53.5 18.5t18.5 59.5v461h186v-456q0 -74 -31 -127t-87.5 -81.5t-132.5 -28.5z" />
    <glyph glyph-name="K" unicode="K" horiz-adv-x="711" 
d="M476 0l-216 332v-332h-185v680h185v-299l224 299h214l-252 -313l247 -367h-217z" />
    <glyph glyph-name="L" unicode="L" horiz-adv-x="567" 
d="M261 150h283v-150h-469v680h186v-530z" />
    <glyph glyph-name="M" unicode="M" horiz-adv-x="917" 
d="M387 63l-155 359v-422h-157v680h208l178 -425l173 425h208v-680h-155v427l-157 -364h-143z" />
    <glyph glyph-name="N" unicode="N" horiz-adv-x="758" 
d="M513 0l-267 392v-392h-171v680h170l266 -399v399h172v-680h-170z" />
    <glyph glyph-name="O" unicode="O" horiz-adv-x="778" 
d="M389 -13q-102 0 -181.5 45t-125.5 124.5t-46 182.5q0 78 26 142.5t74 112t112 73.5t141 26t141 -26t112 -73.5t74 -112t26 -142.5q0 -103 -46 -182.5t-125.5 -124.5t-181.5 -45zM389 141q49 0 85.5 25t57.5 69.5t21 103.5t-21 104t-57.5 70.5t-85.5 25.5t-85.5 -25.5
t-57.5 -70.5t-21 -104t21 -103.5t57.5 -69.5t85.5 -25z" />
    <glyph glyph-name="P" unicode="P" horiz-adv-x="651" 
d="M75 0v680h288q120 0 190 -61.5t70 -167.5q0 -69 -31.5 -119.5t-88.5 -78t-136 -27.5h-112v-226h-180zM255 369h90q43 0 68 22.5t25 59.5t-25 59.5t-68 22.5h-90v-164z" />
    <glyph glyph-name="Q" unicode="Q" horiz-adv-x="778" 
d="M389 -13q-102 0 -181.5 45t-125.5 124.5t-46 182.5q0 78 26 142.5t74 112t112 73.5t141 26t141 -26t112 -73.5t74 -112t26 -142.5q0 -87 -33 -157.5t-91 -117.5l80 -105h-167l-32 43q-51 -15 -110 -15zM389 141h7l-100 135h163l54 -73q19 25 29.5 60t10.5 76
q0 59 -21 104t-57.5 70.5t-85.5 25.5t-85.5 -25.5t-57.5 -70.5t-21 -104t21 -103.5t57.5 -69.5t85.5 -25z" />
    <glyph glyph-name="R" unicode="R" horiz-adv-x="681" 
d="M255 226v-226h-180v680h300q120 0 190 -61.5t70 -167.5q0 -69 -31 -119t-87 -78l139 -254h-198l-113 226h-90zM255 367h100q43 0 68 22.5t25 61.5q0 37 -25 59.5t-68 22.5h-100v-166z" />
    <glyph glyph-name="S" unicode="S" horiz-adv-x="622" 
d="M315 -13q-83 0 -159 28.5t-132 81.5l90 113q40 -36 90 -56.5t110 -20.5q40 0 63 14t23 42q0 27 -27 43.5t-95 34.5l-42 11q-92 24 -140 73.5t-48 125.5q0 65 34 114t94 75.5t139 26.5q78 0 149 -28.5t126 -77.5l-93 -117q-36 31 -84.5 54t-96.5 23q-40 0 -61.5 -13.5
t-21.5 -39.5q0 -24 22.5 -41.5t77.5 -32.5l51 -14q110 -30 155.5 -82t45.5 -121q0 -65 -33.5 -113.5t-94.5 -75.5t-142 -27z" />
    <glyph glyph-name="T" unicode="T" horiz-adv-x="636" 
d="M225 0v530h-202v150h590v-150h-202v-530h-186z" />
    <glyph glyph-name="U" unicode="U" horiz-adv-x="730" 
d="M365 142q56 0 86.5 33t30.5 94v411h186v-410q0 -135 -79 -209t-224 -74t-224 74t-79 209v410h186v-411q0 -61 30.5 -94t86.5 -33z" />
    <glyph glyph-name="V" unicode="V" horiz-adv-x="723" 
d="M709 680l-246 -680h-203l-246 680h195l154 -474l159 474h187z" />
    <glyph glyph-name="W" unicode="W" horiz-adv-x="990" 
d="M605 0l-110 442l-110 -442h-197l-169 680h180l103 -464l114 464h159l113 -461l106 461h177l-169 -680h-197z" />
    <glyph glyph-name="X" unicode="X" horiz-adv-x="721" 
d="M491 0l-130 199l-135 -199h-212l241 338l-240 342h216l133 -202l129 202h212l-235 -340l237 -340h-216z" />
    <glyph glyph-name="Y" unicode="Y" horiz-adv-x="691" 
d="M440 245v-245h-189v245l-241 435h210l126 -270l125 270h210z" />
    <glyph glyph-name="Z" unicode="Z" horiz-adv-x="626" 
d="M588 150v-150h-553v137l313 393h-292v150h520v-137l-314 -393h326z" />
    <glyph glyph-name="bracketleft" unicode="[" horiz-adv-x="426" 
d="M82 -160v890h309v-140h-135v-610h135v-140h-309z" />
    <glyph glyph-name="backslash" unicode="\" horiz-adv-x="541" 
d="M360 -130l-356 860h177l356 -860h-177z" />
    <glyph glyph-name="bracketright" unicode="]" horiz-adv-x="426" 
d="M35 -160v137h138v616h-138v137h309v-890h-309z" />
    <glyph glyph-name="asciicircum" unicode="^" 
d="M31 302l188 378h152l188 -378h-158l-109 218l-109 -218h-152z" />
    <glyph glyph-name="underscore" unicode="_" horiz-adv-x="500" 
d="M0 -165v132h500v-132h-500z" />
    <glyph glyph-name="grave" unicode="`" horiz-adv-x="500" 
d="M244 570l-114 160h181l59 -160h-126z" />
    <glyph glyph-name="a" unicode="a" horiz-adv-x="560" 
d="M351 0l-9 67q-50 -80 -152 -80q-45 0 -81.5 19.5t-58 53.5t-21.5 79q0 85 66.5 132t175.5 47q34 0 72 -6q-4 38 -32.5 57.5t-69.5 19.5q-36 0 -72.5 -13.5t-69.5 -32.5l-59 112q50 32 108 49.5t116 17.5q70 0 126 -24t88 -73t32 -124v-301h-159zM198 165q0 -23 17 -37.5
t44 -14.5q36 0 60.5 24.5t24.5 61.5v17q-27 5 -57 5q-38 0 -63.5 -13t-25.5 -43z" />
    <glyph glyph-name="b" unicode="b" horiz-adv-x="640" 
d="M610 255q0 -80 -30 -140.5t-82 -94t-118 -33.5q-54 0 -91.5 22.5t-59.5 57.5l-9 -67h-159v730h174v-279q25 33 64 52t93 19q60 0 109.5 -34t79 -94t29.5 -139zM333 125q45 0 72.5 35.5t27.5 94.5t-27.5 94.5t-72.5 35.5q-46 0 -73.5 -35.5t-27.5 -94.5t27.5 -94.5
t73.5 -35.5z" />
    <glyph glyph-name="c" unicode="c" horiz-adv-x="529" 
d="M299 -13q-78 0 -138.5 33.5t-95.5 93.5t-35 140t35 140t95.5 93.5t138.5 33.5q69 0 121 -25.5t92 -81.5l-115 -84q-14 21 -36.5 34.5t-48.5 13.5q-45 0 -75 -33.5t-30 -90.5t30 -90.5t75 -33.5q26 0 48.5 13.5t36.5 34.5l115 -84q-40 -56 -92 -81.5t-121 -25.5z" />
    <glyph glyph-name="d" unicode="d" horiz-adv-x="640" 
d="M420 0l-9 67q-24 -37 -62 -58.5t-88 -21.5q-69 0 -121 34t-81 94.5t-29 139.5t29 139t79.5 94t116.5 34q46 0 85 -19.5t65 -52.5v280h174v-730h-159zM308 125q45 0 72.5 35.5t27.5 94.5t-27.5 94.5t-72.5 35.5q-46 0 -73.5 -35.5t-27.5 -94.5t27.5 -94.5t73.5 -35.5z" />
    <glyph glyph-name="e" unicode="e" 
d="M540 52q-38 -27 -96.5 -46t-124.5 -19q-91 0 -155.5 33.5t-99 93.5t-34.5 138q0 79 34 140t94 95.5t140 34.5q78 0 137.5 -33.5t93 -93t33.5 -139.5q0 -11 -1.5 -23t-3.5 -25h-355q24 -88 131 -88q48 0 85 15t62 30zM302 396q-85 0 -102 -90h194q-7 49 -33.5 69.5
t-58.5 20.5z" />
    <glyph glyph-name="f" unicode="f" horiz-adv-x="429" 
d="M409 379h-133v-379h-174v379h-83v130h83v37q0 88 52 142t147 54q36 0 73 -9t78 -35l-59 -107q-12 7 -27 12t-33 5q-24 0 -40.5 -15t-16.5 -47v-37h133v-130z" />
    <glyph glyph-name="g" unicode="g" horiz-adv-x="637" 
d="M576 54q0 -78 -36 -133.5t-99.5 -85t-147.5 -29.5q-68 0 -129 18t-109 48l65 112q34 -20 71.5 -32.5t77.5 -12.5q67 0 100 30t33 85v18q-26 -26 -62.5 -41.5t-76.5 -15.5q-69 0 -121.5 32.5t-82 90t-29.5 131.5q0 75 29 132t81 89t120 32q46 0 85.5 -22t62.5 -58l9 67
h159v-455zM306 153q44 0 71 31.5t27 84.5t-27 84.5t-71 31.5q-45 0 -72 -31.5t-27 -84.5q0 -52 27 -84t72 -32z" />
    <glyph glyph-name="h" unicode="h" horiz-adv-x="617" 
d="M235 280v-280h-174v730h174v-280q25 33 63.5 52.5t83.5 19.5q83 0 133 -54t50 -155v-313h-174v293q0 45 -20 66.5t-56 21.5t-58 -23t-22 -78z" />
    <glyph glyph-name="i" unicode="i" horiz-adv-x="296" 
d="M148 558q-45 0 -73.5 26.5t-28.5 65.5q0 40 28.5 66t73.5 26t73.5 -26t28.5 -66q0 -39 -28.5 -65.5t-73.5 -26.5zM61 0v509h174v-509h-174z" />
    <glyph glyph-name="j" unicode="j" horiz-adv-x="297" 
d="M149 558q-45 0 -73.5 26t-28.5 66q0 41 28.5 66.5t73.5 25.5t73.5 -25.5t28.5 -66.5q0 -40 -28.5 -66t-73.5 -26zM43 -194q-40 0 -73.5 8t-59.5 19l46 120q12 -5 26 -9t29 -4q23 0 37 13.5t14 41.5v514h174v-507q0 -88 -47.5 -142t-145.5 -54z" />
    <glyph glyph-name="k" unicode="k" horiz-adv-x="615" 
d="M392 0l-157 254v-254h-174v730h174v-426l162 205h207l-192 -224l189 -285h-209z" />
    <glyph glyph-name="l" unicode="l" horiz-adv-x="296" 
d="M61 0v730h174v-730h-174z" />
    <glyph glyph-name="m" unicode="m" horiz-adv-x="905" 
d="M235 293v-293h-174v509h160l9 -65q23 37 60 56t79 19q45 0 82 -20t60 -56q27 37 70.5 56.5t91.5 19.5q53 0 93.5 -24.5t63.5 -68t23 -100.5v-326h-174v308q0 32 -17.5 51t-44.5 19q-33 0 -53 -21t-20 -64v-293h-174v308q0 32 -17 51t-46 19q-32 0 -52 -21t-20 -64z" />
    <glyph glyph-name="n" unicode="n" horiz-adv-x="617" 
d="M235 281v-281h-174v509h159l9 -67q25 36 65 58t88 22q83 0 133 -54t50 -155v-313h-174v293q0 45 -20 66.5t-56 21.5t-58 -23t-22 -77z" />
    <glyph glyph-name="o" unicode="o" horiz-adv-x="616" 
d="M308 -13q-82 0 -144.5 34.5t-98 94.5t-35.5 139t35.5 139t98 94t144.5 34t144.5 -34t98 -94t35.5 -139t-35.5 -139t-98 -94.5t-144.5 -34.5zM308 125q46 0 73.5 35.5t27.5 94.5t-27.5 94t-73.5 35t-73.5 -35t-27.5 -94t27.5 -94.5t73.5 -35.5z" />
    <glyph glyph-name="p" unicode="p" horiz-adv-x="640" 
d="M379 -13q-45 0 -82 19t-62 52v-243h-174v694h159l9 -67q24 36 64.5 58t93.5 22q65 0 115 -34t79 -94t29 -139t-29.5 -139.5t-82 -94.5t-119.5 -34zM332 125q46 0 73.5 35.5t27.5 94.5t-27.5 94.5t-73.5 35.5q-45 0 -72.5 -35.5t-27.5 -94.5t27.5 -94.5t72.5 -35.5z" />
    <glyph glyph-name="q" unicode="q" horiz-adv-x="640" 
d="M579 509v-694h-174v243q-24 -33 -61 -52t-86 -19q-67 0 -118.5 34.5t-80.5 94.5t-29 139q0 81 30 141t81 93t114 33q49 0 89.5 -21.5t66.5 -58.5l9 67h159zM308 125q45 0 72.5 35.5t27.5 94.5t-27.5 94.5t-72.5 35.5q-46 0 -73.5 -35.5t-27.5 -94.5t27.5 -94.5
t73.5 -35.5z" />
    <glyph glyph-name="r" unicode="r" horiz-adv-x="432" 
d="M235 197v-197h-174v509h159l11 -85q16 41 52.5 66.5t84.5 25.5q27 0 41 -7v-159q-11 4 -24.5 6t-30.5 2q-52 0 -85.5 -38.5t-33.5 -122.5z" />
    <glyph glyph-name="s" unicode="s" horiz-adv-x="508" 
d="M250 -13q-66 0 -123.5 21t-103.5 60l74 98q35 -28 75.5 -45.5t79.5 -17.5q26 0 41.5 9t15.5 27q0 19 -17.5 30.5t-62.5 22.5l-48 12q-143 38 -143 153q0 51 28 88t77 57t114 20q64 0 120.5 -20t103.5 -58l-76 -100q-35 28 -74 45t-73 17q-55 0 -55 -36q0 -16 16.5 -26
t46.5 -18l65 -18q73 -20 108 -60t35 -95q0 -50 -28 -87.5t-78.5 -58t-117.5 -20.5z" />
    <glyph glyph-name="t" unicode="t" horiz-adv-x="458" 
d="M436 33q-31 -21 -71 -33.5t-84 -12.5q-82 0 -130.5 47.5t-48.5 127.5v217h-83v130h91l22 142h144v-142h133v-130h-133v-195q0 -26 15.5 -40.5t41.5 -14.5q13 0 26.5 5t25.5 12z" />
    <glyph glyph-name="u" unicode="u" horiz-adv-x="617" 
d="M397 0l-9 67q-25 -37 -65.5 -58.5t-87.5 -21.5q-89 0 -136 52.5t-47 151.5v318h174v-298q0 -83 76 -83q80 0 80 100v281h174v-509h-159z" />
    <glyph glyph-name="v" unicode="v" horiz-adv-x="604" 
d="M594 509l-197 -509h-190l-197 509h191l104 -329l102 329h187z" />
    <glyph glyph-name="w" unicode="w" horiz-adv-x="817" 
d="M490 0l-82 309l-81 -309h-180l-132 509h178l53 -328l86 328h153l89 -329l54 329h174l-132 -509h-180z" />
    <glyph glyph-name="x" unicode="x" horiz-adv-x="602" 
d="M393 0l-92 141l-93 -141h-200l189 263l-174 246h200l78 -121l79 121h200l-175 -244l188 -265h-200z" />
    <glyph glyph-name="y" unicode="y" horiz-adv-x="606" 
d="M414 40q-46 -118 -105 -176t-150 -58q-41 0 -74 9t-56 22l49 120q14 -7 31 -12t36 -5q27 0 48.5 13t37.5 47l8 18l-230 491h192l113 -305l93 305h189z" />
    <glyph glyph-name="z" unicode="z" horiz-adv-x="516" 
d="M482 130v-130h-451v109l232 270h-217v130h428v-109l-230 -270h238z" />
    <glyph glyph-name="braceleft" unicode="{" horiz-adv-x="451" 
d="M421 -159q-13 -4 -40 -7.5t-53 -3.5q-94 0 -146.5 44.5t-52.5 116.5q0 45 10.5 86.5t10.5 76.5q0 30 -23 49t-70 19h-17v123h17q47 0 70 18.5t23 48.5q0 35 -10.5 76.5t-10.5 86.5q0 72 52.5 116.5t146.5 44.5q26 0 53 -3.5t40 -7.5l-11 -130q-15 5 -38 5q-33 0 -53 -14
t-20 -45q0 -29 9.5 -62t9.5 -67q0 -40 -24 -78t-74 -50q50 -14 74 -52t24 -78q0 -34 -9.5 -67t-9.5 -62q0 -31 20 -45t53 -14q23 0 38 5z" />
    <glyph glyph-name="bar" unicode="|" horiz-adv-x="324" 
d="M75 -159v889h174v-889h-174z" />
    <glyph glyph-name="braceright" unicode="}" horiz-adv-x="451" 
d="M322 -9q0 -72 -52 -116.5t-147 -44.5q-26 0 -53 3.5t-40 7.5l11 130q15 -5 38 -5q33 0 53 14t20 45q0 29 -9.5 62t-9.5 67q0 40 24 78t74 52q-50 12 -74 50t-24 78q0 34 9.5 67t9.5 62q0 31 -20 45t-53 14q-23 0 -38 -5l-11 130q13 4 40 7.5t53 3.5q95 0 147 -44.5
t52 -116.5q0 -45 -10.5 -86.5t-10.5 -76.5q0 -30 23.5 -48.5t69.5 -18.5h17v-123h-17q-46 0 -69.5 -19t-23.5 -49q0 -35 10.5 -76.5t10.5 -86.5z" />
    <glyph glyph-name="asciitilde" unicode="~" 
d="M389 228q-41 0 -69 14t-51.5 28t-48.5 14q-23 0 -34.5 -13t-17.5 -35l-133 17q7 82 55 124t111 42q31 0 54.5 -8.5t42.5 -20t36 -20t36 -8.5q23 0 35.5 14.5t16.5 34.5l133 -17q-9 -86 -56 -126t-110 -40z" />
    <glyph glyph-name="nbspace" unicode="&#xa0;" horiz-adv-x="240" 
 />
    <glyph glyph-name="exclamdown" unicode="&#xa1;" horiz-adv-x="328" 
d="M164 316q-42 0 -71 29t-29 70t29 70.5t71 29.5q41 0 70.5 -29.5t29.5 -70.5t-29.5 -70t-70.5 -29zM71 -175l20 460h146l20 -460h-186z" />
    <glyph glyph-name="cent" unicode="&#xa2;" 
d="M533 190q-65 -81 -168 -91v-99h-83v100q-63 10 -111.5 42t-75.5 83t-27 115t27 115t75.5 83t111.5 42v100h83v-99q103 -10 168 -91l-108 -80q-12 16 -27 25.5t-33 13.5v-218q18 4 33 13.5t27 25.5zM217 340q0 -38 17.5 -64.5t47.5 -39.5v208q-30 -13 -47.5 -39.5
t-17.5 -64.5z" />
    <glyph glyph-name="sterling" unicode="&#xa3;" 
d="M548 146v-146h-509v133q61 5 95.5 28t34.5 60q0 14 -3.5 28.5t-9.5 30.5h-115v100h77q-7 22 -12 45.5t-5 47.5q0 63 30 109t82.5 71t119.5 25q79 0 138 -27.5t95 -79.5l-113 -91q-18 25 -43.5 41.5t-61.5 16.5q-39 0 -62 -19t-23 -53q0 -21 6.5 -42.5t15.5 -43.5h181
v-100h-142q7 -25 7 -46q0 -27 -12 -50.5t-33 -37.5h262z" />
    <glyph glyph-name="yen" unicode="&#xa5;" 
d="M508 91h-129v-91h-167v91h-129v100h129v57h-129v100h74l-186 318h199l125 -281l127 281h199l-187 -318h74v-100h-129v-57h129v-100z" />
    <glyph glyph-name="section" unicode="&#xa7;" horiz-adv-x="538" 
d="M482 4q0 -51 -28 -89.5t-76 -60.5t-109 -22q-75 0 -136 23t-98 63l88 88q25 -28 62.5 -44t69.5 -16q29 0 43.5 12t14.5 32q0 22 -20 37.5t-51.5 29.5t-66.5 29.5t-66.5 37t-51.5 52.5t-20 75q0 84 66 149q-21 19 -34 45.5t-13 62.5q0 50 28 89t76 61t109 22q75 0 136 -23
t98 -64l-88 -87q-25 27 -62.5 43.5t-69.5 16.5q-29 0 -43.5 -12.5t-14.5 -31.5q0 -22 20 -37.5t51.5 -29.5t66.5 -30t66.5 -37.5t51.5 -52t20 -74.5q0 -84 -66 -149q21 -20 34 -46t13 -62zM189 288q0 -31 20.5 -51t53.5 -35t69 -30q17 25 17 51q0 31 -20.5 51.5t-53.5 35.5
t-69 30q-17 -26 -17 -52z" />
    <glyph glyph-name="dieresis" unicode="&#xa8;" horiz-adv-x="500" 
d="M368 569q-41 0 -68 25t-27 62t27 61.5t68 24.5t68 -24.5t27 -61.5t-27 -62t-68 -25zM133 569q-42 0 -68.5 25t-26.5 62t26.5 61.5t68.5 24.5q41 0 67.5 -24.5t26.5 -61.5t-26.5 -62t-67.5 -25z" />
    <glyph glyph-name="copyright" unicode="&#xa9;" horiz-adv-x="760" 
d="M381 -1q-97 0 -175 43t-123 119.5t-45 176.5t45 176.5t123 119.5t175 43q73 0 135 -24.5t108.5 -70t72.5 -107.5t26 -137t-26 -137t-72.5 -107.5t-108.5 -70t-135 -24.5zM381 94q68 0 121.5 30.5t84 85t30.5 128.5t-30.5 128.5t-84 85t-121.5 30.5t-121.5 -30.5t-84 -85
t-30.5 -128.5t30.5 -128.5t84 -85t121.5 -30.5zM389 168q-50 0 -88.5 21.5t-60.5 60t-22 88.5t22 88.5t60.5 60t88.5 21.5q30 0 59 -13t50.5 -34.5t29.5 -46.5l-91 -34q-15 36 -49 36q-26 0 -41.5 -21.5t-15.5 -56.5t15.5 -56.5t41.5 -21.5q35 0 49 35l89 -35
q-9 -24 -30.5 -45t-49.5 -34t-57 -13z" />
    <glyph glyph-name="ordfeminine" unicode="&#xaa;" horiz-adv-x="380" 
d="M232 335l-6 42q-32 -51 -97 -51q-43 0 -73.5 28t-30.5 71q0 56 43.5 86.5t114.5 30.5q11 0 21.5 -1t21.5 -2q-3 23 -20.5 34.5t-42.5 11.5q-21 0 -45 -9t-44 -21l-41 78q30 19 68.5 30.5t76.5 11.5q70 0 116.5 -35.5t46.5 -108.5v-196h-109zM140 444q0 -14 10.5 -23.5
t26.5 -9.5q21 0 35.5 14.5t14.5 36.5v13q-8 1 -16.5 1.5t-16.5 0.5q-22 0 -38 -7.5t-16 -25.5z" />
    <glyph glyph-name="guillemotleft" unicode="&#xab;" horiz-adv-x="612" 
d="M325 447l-142 -192l142 -192h-158l-142 192l142 192h158zM585 447l-142 -192l142 -192h-158l-142 192l142 192h158z" />
    <glyph glyph-name="logicalnot" unicode="&#xac;" 
d="M15 490h521v-370h-150v238h-371v132z" />
    <glyph glyph-name="registered" unicode="&#xae;" horiz-adv-x="530" 
d="M265 296q-59 0 -106 25.5t-74.5 71t-27.5 106.5q0 60 27.5 105.5t74.5 71t106 25.5t106 -25.5t74.5 -71t27.5 -105.5q0 -61 -27.5 -106.5t-74.5 -71t-106 -25.5zM265 356q63 0 101.5 39t38.5 104q0 64 -38.5 103t-101.5 39t-101.5 -39t-38.5 -103q0 -65 38.5 -104
t101.5 -39zM247 467v-63h-61v194h93q34 0 54.5 -17.5t20.5 -47.5q0 -37 -29 -55l33 -74h-65l-24 63h-22zM247 511h23q22 0 22 22q0 21 -22 21h-23v-43z" />
    <glyph glyph-name="degree" unicode="&#xb0;" horiz-adv-x="460" 
d="M230 328q-54 0 -96 23.5t-66.5 64.5t-24.5 93t24.5 93t66.5 64.5t96 23.5t96 -23.5t66.5 -64.5t24.5 -93t-24.5 -93t-66.5 -64.5t-96 -23.5zM230 437q28 0 46.5 20.5t18.5 51.5t-18.5 51.5t-46.5 20.5t-46.5 -20.5t-18.5 -51.5t18.5 -51.5t46.5 -20.5z" />
    <glyph glyph-name="twosuperior" unicode="&#xb2;" horiz-adv-x="350" 
d="M324 471v-104h-308v88l105 95q42 37 58 57t16 36q0 13 -9.5 21.5t-25.5 8.5q-18 0 -30.5 -11t-15.5 -28l-111 25q17 58 60 87.5t107 29.5q75 0 114 -37.5t39 -89.5q0 -40 -22 -75t-86 -84l-25 -19h134z" />
    <glyph glyph-name="threesuperior" unicode="&#xb3;" horiz-adv-x="350" 
d="M333 477q0 -56 -46.5 -87.5t-126.5 -31.5q-53 0 -98.5 25t-64.5 82l105 35q8 -17 23.5 -28t36.5 -11q42 0 42 31q0 36 -68 36h-29v82h29q30 0 42 10.5t12 24.5q0 13 -10 20.5t-24 7.5q-33 0 -45 -26l-107 31q18 52 65.5 75t101.5 23q69 0 109 -30.5t40 -80.5
q0 -34 -19.5 -57.5t-50.5 -34.5q34 -9 58.5 -32t24.5 -64z" />
    <glyph glyph-name="acute" unicode="&#xb4;" horiz-adv-x="500" 
d="M127 570l65 160h181l-120 -160h-126z" />
    <glyph glyph-name="paragraph" unicode="&#xb6;" horiz-adv-x="723" 
d="M268 -185v433q-66 0 -121 33t-87.5 88t-32.5 121t32.5 120.5t87.5 87t121 32.5h385v-915h-153v785h-79v-785h-153z" />
    <glyph glyph-name="periodcentered" unicode="&#xb7;" horiz-adv-x="300" 
d="M150 209q-42 0 -71 29.5t-29 70.5q0 40 29 69.5t71 29.5q41 0 70.5 -29.5t29.5 -69.5q0 -41 -29.5 -70.5t-70.5 -29.5z" />
    <glyph glyph-name="cedilla" unicode="&#xb8;" horiz-adv-x="500" 
d="M365 -137q0 -41 -35.5 -72t-92.5 -31q-35 0 -59 11.5t-42 29.5l47 51q8 -8 21.5 -13t30.5 -5t29 6t12 21q0 13 -12 21.5t-32 8.5q-18 0 -31 -6l-36 35l47 94h67l-33 -60h7q49 0 80.5 -22.5t31.5 -68.5z" />
    <glyph glyph-name="onesuperior" unicode="&#xb9;" horiz-adv-x="350" 
d="M261 768v-401h-128v270l-73 -28l-37 88l143 71h95z" />
    <glyph glyph-name="ordmasculine" unicode="&#xba;" horiz-adv-x="380" 
d="M189 326q-52 0 -92 22.5t-62.5 62t-22.5 90.5t22.5 90t62.5 61.5t92 22.5q53 0 93 -22.5t62.5 -61.5t22.5 -90t-22.5 -90.5t-62.5 -62t-93 -22.5zM189 420q26 0 42 22t16 59t-16 58.5t-42 21.5q-25 0 -41 -21.5t-16 -58.5t16 -59t41 -22z" />
    <glyph glyph-name="guillemotright" unicode="&#xbb;" horiz-adv-x="612" 
d="M27 447h158l142 -192l-142 -192h-158l142 192zM287 447h158l142 -192l-142 -192h-158l142 192z" />
    <glyph glyph-name="onequarter" unicode="&#xbc;" horiz-adv-x="862" 
d="M142 0l453 680h145l-453 -680h-145zM857 65h-49v-65h-114v65h-194v85l168 250h140v-242h49v-93zM610 158h84v127zM261 668v-401h-128v270l-73 -28l-37 88l143 71h95z" />
    <glyph glyph-name="onehalf" unicode="&#xbd;" horiz-adv-x="832" 
d="M117 0l453 680h145l-453 -680h-145zM806 104v-104h-308v88l105 95q42 37 58 57t16 36q0 13 -9.5 21.5t-25.5 8.5q-18 0 -30.5 -11t-15.5 -28l-111 25q17 58 60 87.5t107 29.5q75 0 114 -37.5t39 -89.5q0 -40 -22 -75t-86 -84l-25 -19h134zM261 668v-401h-128v270l-73 -28
l-37 88l143 71h95z" />
    <glyph glyph-name="threequarters" unicode="&#xbe;" horiz-adv-x="862" 
d="M142 0l453 680h145l-453 -680h-145zM857 65h-49v-65h-114v65h-194v85l168 250h140v-242h49v-93zM610 158h84v127zM333 377q0 -56 -46.5 -87.5t-126.5 -31.5q-53 0 -98.5 25t-64.5 82l105 35q8 -17 23.5 -28t36.5 -11q42 0 42 31q0 36 -68 36h-29v82h29q30 0 42 10.5
t12 24.5q0 13 -10 20.5t-24 7.5q-33 0 -45 -26l-107 31q18 52 65.5 75t101.5 23q69 0 109 -30.5t40 -80.5q0 -34 -19.5 -57.5t-50.5 -34.5q34 -9 58.5 -32t24.5 -64z" />
    <glyph glyph-name="questiondown" unicode="&#xbf;" horiz-adv-x="491" 
d="M311 515q42 0 71.5 -29.5t29.5 -70.5t-29.5 -70t-71.5 -29t-71.5 29t-29.5 70t29.5 70.5t71.5 29.5zM501 -90q-43 -47 -99.5 -72.5t-122.5 -25.5q-75 0 -132 25.5t-89 72t-32 109.5q0 83 55.5 135t157.5 63l6 68h138l8 -177h-37q-78 0 -113 -18t-35 -60q0 -33 22.5 -51.5
t62.5 -18.5q35 0 63 14.5t51 35.5z" />
    <glyph glyph-name="Agrave" unicode="&#xc0;" horiz-adv-x="742" 
d="M539 0l-43 127h-255l-43 -127h-184l249 680h216l249 -680h-189zM288 265h161l-80 238zM318 724l-122 140h181l67 -140h-126z" />
    <glyph glyph-name="Aacute" unicode="&#xc1;" horiz-adv-x="742" 
d="M539 0l-43 127h-255l-43 -127h-184l249 680h216l249 -680h-189zM288 265h161l-80 238zM296 724l67 140h181l-122 -140h-126z" />
    <glyph glyph-name="Acircumflex" unicode="&#xc2;" horiz-adv-x="742" 
d="M539 0l-43 127h-255l-43 -127h-184l249 680h216l249 -680h-189zM288 265h161l-80 238zM436 724l-65 64l-65 -64h-129l130 154h128l130 -154h-129z" />
    <glyph glyph-name="Atilde" unicode="&#xc3;" horiz-adv-x="742" 
d="M539 0l-43 127h-255l-43 -127h-184l249 680h216l249 -680h-189zM288 265h161l-80 238zM452 729q-33 0 -57 14t-43 28t-41 14q-20 0 -31 -12t-12 -44l-108 14q2 70 37 113.5t89 43.5q33 0 57 -14.5t43 -28.5t41 -14q20 0 31 12.5t12 44.5l108 -15q-2 -70 -37 -113t-89 -43
z" />
    <glyph glyph-name="Adieresis" unicode="&#xc4;" horiz-adv-x="742" 
d="M539 0l-43 127h-255l-43 -127h-184l249 680h216l249 -680h-189zM288 265h161l-80 238zM492 719q-39 0 -64.5 24t-25.5 59t25.5 58.5t64.5 23.5q40 0 65.5 -23.5t25.5 -58.5t-25.5 -59t-65.5 -24zM249 719q-40 0 -65.5 24t-25.5 59t25.5 58.5t65.5 23.5q39 0 64 -23.5
t25 -58.5t-25 -59t-64 -24z" />
    <glyph glyph-name="Aring" unicode="&#xc5;" horiz-adv-x="742" 
d="M539 0l-43 127h-255l-43 -127h-184l249 680h216l249 -680h-189zM288 265h161l-80 238zM371 593q-47 0 -84 20.5t-58 56t-21 80.5t21 80t58 55.5t84 20.5q46 0 83 -20.5t58 -55.5t21 -80t-21 -80.5t-58 -56t-83 -20.5zM371 683q27 0 46 19.5t19 47.5q0 26 -19 45.5
t-46 19.5q-28 0 -47 -19.5t-19 -45.5q0 -28 19 -47.5t47 -19.5z" />
    <glyph glyph-name="AE" unicode="&#xc6;" horiz-adv-x="1021" 
d="M10 0l375 680h578v-149h-277v-115h245v-149h-245v-118h293v-149h-475v127h-232l-70 -127h-192zM348 265h156v283z" />
    <glyph glyph-name="Ccedilla" unicode="&#xc7;" horiz-adv-x="685" 
d="M386 -13q-104 0 -182.5 45t-123 124.5t-44.5 184.5t44.5 184t123 123.5t182.5 44.5q88 0 158.5 -35.5t120.5 -102.5l-147 -87q-26 33 -58.5 52t-75.5 19q-71 0 -115 -53.5t-44 -144.5t44 -145.5t115 -54.5q44 0 78 21.5t57 50.5l146 -87q-49 -68 -120.5 -103.5
t-158.5 -35.5zM485 -137q0 -41 -35.5 -72t-92.5 -31q-35 0 -59 11.5t-42 29.5l47 51q8 -8 21.5 -13t30.5 -5t29 6t12 21q0 13 -12 21.5t-32 8.5q-18 0 -31 -6l-36 35l47 94h67l-33 -60h7q49 0 80.5 -22.5t31.5 -68.5z" />
    <glyph glyph-name="Egrave" unicode="&#xc8;" horiz-adv-x="602" 
d="M75 0v680h469v-149h-287v-115h255v-149h-255v-118h303v-149h-485zM258 724l-122 140h181l67 -140h-126z" />
    <glyph glyph-name="Eacute" unicode="&#xc9;" horiz-adv-x="602" 
d="M75 0v680h469v-149h-287v-115h255v-149h-255v-118h303v-149h-485zM236 724l67 140h181l-122 -140h-126z" />
    <glyph glyph-name="Ecircumflex" unicode="&#xca;" horiz-adv-x="602" 
d="M75 0v680h469v-149h-287v-115h255v-149h-255v-118h303v-149h-485zM376 724l-65 64l-65 -64h-129l130 154h128l130 -154h-129z" />
    <glyph glyph-name="Edieresis" unicode="&#xcb;" horiz-adv-x="602" 
d="M75 0v680h469v-149h-287v-115h255v-149h-255v-118h303v-149h-485zM432 719q-39 0 -64.5 24t-25.5 59t25.5 58.5t64.5 23.5q40 0 65.5 -23.5t25.5 -58.5t-25.5 -59t-65.5 -24zM189 719q-40 0 -65.5 24t-25.5 59t25.5 58.5t65.5 23.5q39 0 64 -23.5t25 -58.5t-25 -59
t-64 -24z" />
    <glyph glyph-name="Igrave" unicode="&#xcc;" horiz-adv-x="336" 
d="M261 0h-186v680h186v-680zM115 724l-122 140h181l67 -140h-126z" />
    <glyph glyph-name="Iacute" unicode="&#xcd;" horiz-adv-x="336" 
d="M261 0h-186v680h186v-680zM93 724l67 140h181l-122 -140h-126z" />
    <glyph glyph-name="Icircumflex" unicode="&#xce;" horiz-adv-x="336" 
d="M261 0h-186v680h186v-680zM233 724l-65 64l-65 -64h-129l130 154h128l130 -154h-129z" />
    <glyph glyph-name="Idieresis" unicode="&#xcf;" horiz-adv-x="336" 
d="M261 0h-186v680h186v-680zM289 719q-39 0 -64.5 24t-25.5 59t25.5 58.5t64.5 23.5q40 0 65.5 -23.5t25.5 -58.5t-25.5 -59t-65.5 -24zM46 719q-40 0 -65.5 24t-25.5 59t25.5 58.5t65.5 23.5q39 0 64 -23.5t25 -58.5t-25 -59t-64 -24z" />
    <glyph glyph-name="Eth" unicode="&#xd0;" horiz-adv-x="757" 
d="M721 340q0 -100 -44 -176.5t-121.5 -120t-178.5 -43.5h-268v271h-84v142h84v267h268q101 0 178.5 -43.5t121.5 -120t44 -176.5zM292 147h85q73 0 115.5 53t42.5 140t-42.5 140t-115.5 53h-85v-120h124v-142h-124v-124z" />
    <glyph glyph-name="Ntilde" unicode="&#xd1;" horiz-adv-x="758" 
d="M513 0l-267 392v-392h-171v680h170l266 -399v399h172v-680h-170zM460 729q-33 0 -57 14t-43 28t-41 14q-20 0 -31 -12t-12 -44l-108 14q2 70 37 113.5t89 43.5q33 0 57 -14.5t43 -28.5t41 -14q20 0 31 12.5t12 44.5l108 -15q-2 -70 -37 -113t-89 -43z" />
    <glyph glyph-name="Ograve" unicode="&#xd2;" horiz-adv-x="778" 
d="M389 -13q-102 0 -181.5 45t-125.5 124.5t-46 182.5q0 78 26 142.5t74 112t112 73.5t141 26t141 -26t112 -73.5t74 -112t26 -142.5q0 -103 -46 -182.5t-125.5 -124.5t-181.5 -45zM389 141q49 0 85.5 25t57.5 69.5t21 103.5t-21 104t-57.5 70.5t-85.5 25.5t-85.5 -25.5
t-57.5 -70.5t-21 -104t21 -103.5t57.5 -69.5t85.5 -25zM336 724l-122 140h181l67 -140h-126z" />
    <glyph glyph-name="Oacute" unicode="&#xd3;" horiz-adv-x="778" 
d="M389 -13q-102 0 -181.5 45t-125.5 124.5t-46 182.5q0 78 26 142.5t74 112t112 73.5t141 26t141 -26t112 -73.5t74 -112t26 -142.5q0 -103 -46 -182.5t-125.5 -124.5t-181.5 -45zM389 141q49 0 85.5 25t57.5 69.5t21 103.5t-21 104t-57.5 70.5t-85.5 25.5t-85.5 -25.5
t-57.5 -70.5t-21 -104t21 -103.5t57.5 -69.5t85.5 -25zM314 724l67 140h181l-122 -140h-126z" />
    <glyph glyph-name="Ocircumflex" unicode="&#xd4;" horiz-adv-x="778" 
d="M389 -13q-102 0 -181.5 45t-125.5 124.5t-46 182.5q0 78 26 142.5t74 112t112 73.5t141 26t141 -26t112 -73.5t74 -112t26 -142.5q0 -103 -46 -182.5t-125.5 -124.5t-181.5 -45zM389 141q49 0 85.5 25t57.5 69.5t21 103.5t-21 104t-57.5 70.5t-85.5 25.5t-85.5 -25.5
t-57.5 -70.5t-21 -104t21 -103.5t57.5 -69.5t85.5 -25zM454 724l-65 64l-65 -64h-129l130 154h128l130 -154h-129z" />
    <glyph glyph-name="Otilde" unicode="&#xd5;" horiz-adv-x="778" 
d="M389 -13q-102 0 -181.5 45t-125.5 124.5t-46 182.5q0 78 26 142.5t74 112t112 73.5t141 26t141 -26t112 -73.5t74 -112t26 -142.5q0 -103 -46 -182.5t-125.5 -124.5t-181.5 -45zM389 141q49 0 85.5 25t57.5 69.5t21 103.5t-21 104t-57.5 70.5t-85.5 25.5t-85.5 -25.5
t-57.5 -70.5t-21 -104t21 -103.5t57.5 -69.5t85.5 -25zM470 729q-33 0 -57 14t-43 28t-41 14q-20 0 -31 -12t-12 -44l-108 14q2 70 37 113.5t89 43.5q33 0 57 -14.5t43 -28.5t41 -14q20 0 31 12.5t12 44.5l108 -15q-2 -70 -37 -113t-89 -43z" />
    <glyph glyph-name="Odieresis" unicode="&#xd6;" horiz-adv-x="778" 
d="M389 -13q-102 0 -181.5 45t-125.5 124.5t-46 182.5q0 78 26 142.5t74 112t112 73.5t141 26t141 -26t112 -73.5t74 -112t26 -142.5q0 -103 -46 -182.5t-125.5 -124.5t-181.5 -45zM389 141q49 0 85.5 25t57.5 69.5t21 103.5t-21 104t-57.5 70.5t-85.5 25.5t-85.5 -25.5
t-57.5 -70.5t-21 -104t21 -103.5t57.5 -69.5t85.5 -25zM510 719q-39 0 -64.5 24t-25.5 59t25.5 58.5t64.5 23.5q40 0 65.5 -23.5t25.5 -58.5t-25.5 -59t-65.5 -24zM267 719q-40 0 -65.5 24t-25.5 59t25.5 58.5t65.5 23.5q39 0 64 -23.5t25 -58.5t-25 -59t-64 -24z" />
    <glyph glyph-name="multiply" unicode="&#xd7;" 
d="M545 457l-150 -149l150 -150l-100 -100l-150 150l-150 -150l-100 100l150 150l-150 149l100 100l150 -150l150 150z" />
    <glyph glyph-name="Oslash" unicode="&#xd8;" horiz-adv-x="778" 
d="M389 -13q-85 0 -157 33l-36 -58h-149q46 62 90 122q-47 47 -74 112t-27 143t26 142.5t74 112t112 73.5t141 26q80 0 149 -29q17 26 34 53h149q-45 -59 -88 -115q51 -47 80 -114.5t29 -148.5q0 -103 -46 -182.5t-125.5 -124.5t-181.5 -45zM225 339q0 -58 21 -104
q52 73 102.5 146.5t99.5 146.5q-28 11 -59 11q-49 0 -85.5 -25.5t-57.5 -70.5t-21 -104zM553 339q0 67 -27 117q-54 -74 -105.5 -148.5t-101.5 -150.5q32 -16 70 -16q49 0 85.5 25t57.5 69.5t21 103.5z" />
    <glyph glyph-name="Ugrave" unicode="&#xd9;" horiz-adv-x="730" 
d="M365 142q56 0 86.5 33t30.5 94v411h186v-410q0 -135 -79 -209t-224 -74t-224 74t-79 209v410h186v-411q0 -61 30.5 -94t86.5 -33zM312 724l-122 140h181l67 -140h-126z" />
    <glyph glyph-name="Uacute" unicode="&#xda;" horiz-adv-x="730" 
d="M365 142q56 0 86.5 33t30.5 94v411h186v-410q0 -135 -79 -209t-224 -74t-224 74t-79 209v410h186v-411q0 -61 30.5 -94t86.5 -33zM290 724l67 140h181l-122 -140h-126z" />
    <glyph glyph-name="Ucircumflex" unicode="&#xdb;" horiz-adv-x="730" 
d="M365 142q56 0 86.5 33t30.5 94v411h186v-410q0 -135 -79 -209t-224 -74t-224 74t-79 209v410h186v-411q0 -61 30.5 -94t86.5 -33zM430 724l-65 64l-65 -64h-129l130 154h128l130 -154h-129z" />
    <glyph glyph-name="Udieresis" unicode="&#xdc;" horiz-adv-x="730" 
d="M365 142q56 0 86.5 33t30.5 94v411h186v-410q0 -135 -79 -209t-224 -74t-224 74t-79 209v410h186v-411q0 -61 30.5 -94t86.5 -33zM486 719q-39 0 -64.5 24t-25.5 59t25.5 58.5t64.5 23.5q40 0 65.5 -23.5t25.5 -58.5t-25.5 -59t-65.5 -24zM243 719q-40 0 -65.5 24
t-25.5 59t25.5 58.5t65.5 23.5q39 0 64 -23.5t25 -58.5t-25 -59t-64 -24z" />
    <glyph glyph-name="Yacute" unicode="&#xdd;" horiz-adv-x="691" 
d="M440 245v-245h-189v245l-241 435h210l126 -270l125 270h210zM271 724l67 140h181l-122 -140h-126z" />
    <glyph glyph-name="Thorn" unicode="&#xde;" horiz-adv-x="651" 
d="M75 0v680h180v-113h108q120 0 190 -61.5t70 -167.5q0 -69 -31.5 -119.5t-88.5 -78t-136 -27.5h-112v-113h-180zM255 256h90q43 0 68 22t25 60t-25 60t-68 22h-90v-164z" />
    <glyph glyph-name="germandbls" unicode="&#xdf;" horiz-adv-x="666" 
d="M464 215q0 48 -43.5 73t-120.5 21v130q46 0 73.5 25t27.5 68q0 33 -22 54.5t-55 21.5q-39 0 -64 -27t-25 -75v-506h-174v506q0 70 35 123.5t96 83t140 29.5q68 0 124.5 -25t89.5 -67.5t33 -96.5q0 -47 -26 -87t-68 -68q42 -16 78 -44t57.5 -67t21.5 -88q0 -64 -33 -111.5
t-89.5 -73.5t-128.5 -26q-64 0 -121 23l35 126q12 -5 26.5 -8t29.5 -3q44 0 73.5 22.5t29.5 66.5z" />
    <glyph glyph-name="agrave" unicode="&#xe0;" horiz-adv-x="560" 
d="M351 0l-9 67q-50 -80 -152 -80q-45 0 -81.5 19.5t-58 53.5t-21.5 79q0 85 66.5 132t175.5 47q34 0 72 -6q-4 38 -32.5 57.5t-69.5 19.5q-36 0 -72.5 -13.5t-69.5 -32.5l-59 112q50 32 108 49.5t116 17.5q70 0 126 -24t88 -73t32 -124v-301h-159zM198 165q0 -23 17 -37.5
t44 -14.5q36 0 60.5 24.5t24.5 61.5v17q-27 5 -57 5q-38 0 -63.5 -13t-25.5 -43zM227 570l-114 160h181l59 -160h-126z" />
    <glyph glyph-name="aacute" unicode="&#xe1;" horiz-adv-x="560" 
d="M351 0l-9 67q-50 -80 -152 -80q-45 0 -81.5 19.5t-58 53.5t-21.5 79q0 85 66.5 132t175.5 47q34 0 72 -6q-4 38 -32.5 57.5t-69.5 19.5q-36 0 -72.5 -13.5t-69.5 -32.5l-59 112q50 32 108 49.5t116 17.5q70 0 126 -24t88 -73t32 -124v-301h-159zM198 165q0 -23 17 -37.5
t44 -14.5q36 0 60.5 24.5t24.5 61.5v17q-27 5 -57 5q-38 0 -63.5 -13t-25.5 -43zM207 570l65 160h181l-120 -160h-126z" />
    <glyph glyph-name="acircumflex" unicode="&#xe2;" horiz-adv-x="560" 
d="M351 0l-9 67q-50 -80 -152 -80q-45 0 -81.5 19.5t-58 53.5t-21.5 79q0 85 66.5 132t175.5 47q34 0 72 -6q-4 38 -32.5 57.5t-69.5 19.5q-36 0 -72.5 -13.5t-69.5 -32.5l-59 112q50 32 108 49.5t116 17.5q70 0 126 -24t88 -73t32 -124v-301h-159zM198 165q0 -23 17 -37.5
t44 -14.5q36 0 60.5 24.5t24.5 61.5v17q-27 5 -57 5q-38 0 -63.5 -13t-25.5 -43zM344 570l-65 69l-65 -69h-122l123 172h128l123 -172h-122z" />
    <glyph glyph-name="atilde" unicode="&#xe3;" horiz-adv-x="560" 
d="M351 0l-9 67q-50 -80 -152 -80q-45 0 -81.5 19.5t-58 53.5t-21.5 79q0 85 66.5 132t175.5 47q34 0 72 -6q-4 38 -32.5 57.5t-69.5 19.5q-36 0 -72.5 -13.5t-69.5 -32.5l-59 112q50 32 108 49.5t116 17.5q70 0 126 -24t88 -73t32 -124v-301h-159zM198 165q0 -23 17 -37.5
t44 -14.5q36 0 60.5 24.5t24.5 61.5v17q-27 5 -57 5q-38 0 -63.5 -13t-25.5 -43zM360 568q-34 0 -57.5 14t-42.5 28.5t-41 14.5q-20 0 -31 -12t-12 -44l-107 14q2 70 37 112.5t88 42.5q34 0 57.5 -14t42.5 -28.5t41 -14.5q20 0 31 12.5t12 44.5l107 -15q-2 -70 -37 -112.5
t-88 -42.5z" />
    <glyph glyph-name="adieresis" unicode="&#xe4;" horiz-adv-x="560" 
d="M351 0l-9 67q-50 -80 -152 -80q-45 0 -81.5 19.5t-58 53.5t-21.5 79q0 85 66.5 132t175.5 47q34 0 72 -6q-4 38 -32.5 57.5t-69.5 19.5q-36 0 -72.5 -13.5t-69.5 -32.5l-59 112q50 32 108 49.5t116 17.5q70 0 126 -24t88 -73t32 -124v-301h-159zM198 165q0 -23 17 -37.5
t44 -14.5q36 0 60.5 24.5t24.5 61.5v17q-27 5 -57 5q-38 0 -63.5 -13t-25.5 -43zM396 569q-41 0 -68 25t-27 62t27 61.5t68 24.5t68 -24.5t27 -61.5t-27 -62t-68 -25zM161 569q-42 0 -68.5 25t-26.5 62t26.5 61.5t68.5 24.5q41 0 67.5 -24.5t26.5 -61.5t-26.5 -62t-67.5 -25
z" />
    <glyph glyph-name="aring" unicode="&#xe5;" horiz-adv-x="560" 
d="M351 0l-9 67q-50 -80 -152 -80q-45 0 -81.5 19.5t-58 53.5t-21.5 79q0 85 66.5 132t175.5 47q34 0 72 -6q-4 38 -32.5 57.5t-69.5 19.5q-36 0 -72.5 -13.5t-69.5 -32.5l-59 112q50 32 108 49.5t116 17.5q70 0 126 -24t88 -73t32 -124v-301h-159zM198 165q0 -23 17 -37.5
t44 -14.5q36 0 60.5 24.5t24.5 61.5v17q-27 5 -57 5q-38 0 -63.5 -13t-25.5 -43zM279 565q-58 0 -96 36.5t-38 92.5t38 92.5t96 36.5q57 0 95 -36.5t38 -92.5t-38 -92.5t-95 -36.5zM279 642q21 0 36 15t15 37q0 21 -15 36t-36 15q-22 0 -37 -15t-15 -36q0 -22 15 -37t37 -15
z" />
    <glyph glyph-name="ae" unicode="&#xe6;" horiz-adv-x="923" 
d="M874 52q-38 -27 -96 -46t-123 -19q-67 0 -122 24t-91 67q-42 -47 -94.5 -69t-113.5 -22q-102 0 -153.5 42.5t-51.5 109.5q0 85 66.5 132t175.5 47q34 0 72 -6q-4 38 -32.5 57.5t-69.5 19.5q-36 0 -72.5 -13.5t-69.5 -32.5l-59 112q50 32 108 49.5t116 17.5
q59 0 108 -19.5t81 -56.5q34 36 81 56t100 20q76 0 135 -33.5t92.5 -93t33.5 -139.5q0 -11 -1 -23t-3 -25h-351q23 -88 129 -88q48 0 84 15t61 30zM638 396q-83 0 -100 -90h190q-8 49 -33.5 69.5t-56.5 20.5zM198 165q0 -23 17 -37.5t44 -14.5q36 0 60.5 24.5t24.5 61.5v17
q-28 5 -57 5q-38 0 -63.5 -13t-25.5 -43z" />
    <glyph glyph-name="ccedilla" unicode="&#xe7;" horiz-adv-x="529" 
d="M299 -13q-78 0 -138.5 33.5t-95.5 93.5t-35 140t35 140t95.5 93.5t138.5 33.5q69 0 121 -25.5t92 -81.5l-115 -84q-14 21 -36.5 34.5t-48.5 13.5q-45 0 -75 -33.5t-30 -90.5t30 -90.5t75 -33.5q26 0 48.5 13.5t36.5 34.5l115 -84q-40 -56 -92 -81.5t-121 -25.5zM415 -137
q0 -41 -35.5 -72t-92.5 -31q-35 0 -59 11.5t-42 29.5l47 51q8 -8 21.5 -13t30.5 -5t29 6t12 21q0 13 -12 21.5t-32 8.5q-18 0 -31 -6l-36 35l47 94h67l-33 -60h7q49 0 80.5 -22.5t31.5 -68.5z" />
    <glyph glyph-name="egrave" unicode="&#xe8;" 
d="M540 52q-38 -27 -96.5 -46t-124.5 -19q-91 0 -155.5 33.5t-99 93.5t-34.5 138q0 79 34 140t94 95.5t140 34.5q78 0 137.5 -33.5t93 -93t33.5 -139.5q0 -11 -1.5 -23t-3.5 -25h-355q24 -88 131 -88q48 0 85 15t62 30zM302 396q-85 0 -102 -90h194q-7 49 -33.5 69.5
t-58.5 20.5zM250 570l-114 160h181l59 -160h-126z" />
    <glyph glyph-name="eacute" unicode="&#xe9;" 
d="M540 52q-38 -27 -96.5 -46t-124.5 -19q-91 0 -155.5 33.5t-99 93.5t-34.5 138q0 79 34 140t94 95.5t140 34.5q78 0 137.5 -33.5t93 -93t33.5 -139.5q0 -11 -1.5 -23t-3.5 -25h-355q24 -88 131 -88q48 0 85 15t62 30zM302 396q-85 0 -102 -90h194q-7 49 -33.5 69.5
t-58.5 20.5zM230 570l65 160h181l-120 -160h-126z" />
    <glyph glyph-name="ecircumflex" unicode="&#xea;" 
d="M540 52q-38 -27 -96.5 -46t-124.5 -19q-91 0 -155.5 33.5t-99 93.5t-34.5 138q0 79 34 140t94 95.5t140 34.5q78 0 137.5 -33.5t93 -93t33.5 -139.5q0 -11 -1.5 -23t-3.5 -25h-355q24 -88 131 -88q48 0 85 15t62 30zM302 396q-85 0 -102 -90h194q-7 49 -33.5 69.5
t-58.5 20.5zM367 570l-65 69l-65 -69h-122l123 172h128l123 -172h-122z" />
    <glyph glyph-name="edieresis" unicode="&#xeb;" 
d="M540 52q-38 -27 -96.5 -46t-124.5 -19q-91 0 -155.5 33.5t-99 93.5t-34.5 138q0 79 34 140t94 95.5t140 34.5q78 0 137.5 -33.5t93 -93t33.5 -139.5q0 -11 -1.5 -23t-3.5 -25h-355q24 -88 131 -88q48 0 85 15t62 30zM302 396q-85 0 -102 -90h194q-7 49 -33.5 69.5
t-58.5 20.5zM419 569q-41 0 -68 25t-27 62t27 61.5t68 24.5t68 -24.5t27 -61.5t-27 -62t-68 -25zM184 569q-42 0 -68.5 25t-26.5 62t26.5 61.5t68.5 24.5q41 0 67.5 -24.5t26.5 -61.5t-26.5 -62t-67.5 -25z" />
    <glyph glyph-name="igrave" unicode="&#xec;" horiz-adv-x="296" 
d="M61 0v509h174v-509h-174zM96 570l-114 160h181l59 -160h-126z" />
    <glyph glyph-name="iacute" unicode="&#xed;" horiz-adv-x="296" 
d="M61 0v509h174v-509h-174zM76 570l65 160h181l-120 -160h-126z" />
    <glyph glyph-name="icircumflex" unicode="&#xee;" horiz-adv-x="296" 
d="M61 0v509h174v-509h-174zM213 570l-65 69l-65 -69h-122l123 172h128l123 -172h-122z" />
    <glyph glyph-name="idieresis" unicode="&#xef;" horiz-adv-x="296" 
d="M61 0v509h174v-509h-174zM265 569q-41 0 -68 25t-27 62t27 61.5t68 24.5t68 -24.5t27 -61.5t-27 -62t-68 -25zM30 569q-42 0 -68.5 25t-26.5 62t26.5 61.5t68.5 24.5q41 0 67.5 -24.5t26.5 -61.5t-26.5 -62t-67.5 -25z" />
    <glyph glyph-name="eth" unicode="&#xf0;" horiz-adv-x="598" 
d="M560 314q0 -99 -32.5 -172.5t-93 -114t-144.5 -40.5q-78 0 -136.5 34t-91 92.5t-32.5 132.5q0 72 31 123t82 78t110 27q45 0 79 -15.5t54 -41.5q-6 63 -50 130l-118 -30l-19 70l89 23q-30 34 -70 70l119 78q27 -25 53.5 -52t49.5 -57l111 28l18 -71l-84 -21
q34 -57 54.5 -124.5t20.5 -146.5zM297 130q42 0 70 31.5t28 79.5t-28 78t-70 30q-41 0 -69.5 -30t-28.5 -78t28.5 -79.5t69.5 -31.5z" />
    <glyph glyph-name="ntilde" unicode="&#xf1;" horiz-adv-x="617" 
d="M235 281v-281h-174v509h159l9 -67q25 36 65 58t88 22q83 0 133 -54t50 -155v-313h-174v293q0 45 -20 66.5t-56 21.5t-58 -23t-22 -77zM392 568q-34 0 -57.5 14t-42.5 28.5t-41 14.5q-20 0 -31 -12t-12 -44l-107 14q2 70 37 112.5t88 42.5q34 0 57.5 -14t42.5 -28.5
t41 -14.5q20 0 31 12.5t12 44.5l107 -15q-2 -70 -37 -112.5t-88 -42.5z" />
    <glyph glyph-name="ograve" unicode="&#xf2;" horiz-adv-x="616" 
d="M308 -13q-82 0 -144.5 34.5t-98 94.5t-35.5 139t35.5 139t98 94t144.5 34t144.5 -34t98 -94t35.5 -139t-35.5 -139t-98 -94.5t-144.5 -34.5zM308 125q46 0 73.5 35.5t27.5 94.5t-27.5 94t-73.5 35t-73.5 -35t-27.5 -94t27.5 -94.5t73.5 -35.5zM256 570l-114 160h181
l59 -160h-126z" />
    <glyph glyph-name="oacute" unicode="&#xf3;" horiz-adv-x="616" 
d="M308 -13q-82 0 -144.5 34.5t-98 94.5t-35.5 139t35.5 139t98 94t144.5 34t144.5 -34t98 -94t35.5 -139t-35.5 -139t-98 -94.5t-144.5 -34.5zM308 125q46 0 73.5 35.5t27.5 94.5t-27.5 94t-73.5 35t-73.5 -35t-27.5 -94t27.5 -94.5t73.5 -35.5zM236 570l65 160h181
l-120 -160h-126z" />
    <glyph glyph-name="ocircumflex" unicode="&#xf4;" horiz-adv-x="616" 
d="M308 -13q-82 0 -144.5 34.5t-98 94.5t-35.5 139t35.5 139t98 94t144.5 34t144.5 -34t98 -94t35.5 -139t-35.5 -139t-98 -94.5t-144.5 -34.5zM308 125q46 0 73.5 35.5t27.5 94.5t-27.5 94t-73.5 35t-73.5 -35t-27.5 -94t27.5 -94.5t73.5 -35.5zM373 570l-65 69l-65 -69
h-122l123 172h128l123 -172h-122z" />
    <glyph glyph-name="otilde" unicode="&#xf5;" horiz-adv-x="616" 
d="M308 -13q-82 0 -144.5 34.5t-98 94.5t-35.5 139t35.5 139t98 94t144.5 34t144.5 -34t98 -94t35.5 -139t-35.5 -139t-98 -94.5t-144.5 -34.5zM308 125q46 0 73.5 35.5t27.5 94.5t-27.5 94t-73.5 35t-73.5 -35t-27.5 -94t27.5 -94.5t73.5 -35.5zM389 568q-34 0 -57.5 14
t-42.5 28.5t-41 14.5q-20 0 -31 -12t-12 -44l-107 14q2 70 37 112.5t88 42.5q34 0 57.5 -14t42.5 -28.5t41 -14.5q20 0 31 12.5t12 44.5l107 -15q-2 -70 -37 -112.5t-88 -42.5z" />
    <glyph glyph-name="odieresis" unicode="&#xf6;" horiz-adv-x="616" 
d="M308 -13q-82 0 -144.5 34.5t-98 94.5t-35.5 139t35.5 139t98 94t144.5 34t144.5 -34t98 -94t35.5 -139t-35.5 -139t-98 -94.5t-144.5 -34.5zM308 125q46 0 73.5 35.5t27.5 94.5t-27.5 94t-73.5 35t-73.5 -35t-27.5 -94t27.5 -94.5t73.5 -35.5zM425 569q-41 0 -68 25
t-27 62t27 61.5t68 24.5t68 -24.5t27 -61.5t-27 -62t-68 -25zM190 569q-42 0 -68.5 25t-26.5 62t26.5 61.5t68.5 24.5q41 0 67.5 -24.5t26.5 -61.5t-26.5 -62t-67.5 -25z" />
    <glyph glyph-name="divide" unicode="&#xf7;" 
d="M295 456q-42 0 -71 29.5t-29 70.5q0 40 29 69.5t71 29.5q41 0 70.5 -29.5t29.5 -69.5q0 -41 -29.5 -70.5t-70.5 -29.5zM55 267v132h490v-132h-490zM295 15q-42 0 -71 29.5t-29 70.5t29 70t71 29q41 0 70.5 -29t29.5 -70t-29.5 -70.5t-70.5 -29.5z" />
    <glyph glyph-name="oslash" unicode="&#xf8;" horiz-adv-x="616" 
d="M308 -13q-61 0 -114 20q-16 -26 -32 -53h-129q40 53 78 105q-38 36 -59.5 86t-21.5 110q0 79 35.5 139t98 94t144.5 34q59 0 110 -19q19 29 37 58h129q-42 -54 -83 -107q40 -36 62.5 -86.5t22.5 -112.5q0 -79 -35.5 -139t-98 -94.5t-144.5 -34.5zM199 255q0 -34 9 -62
q72 101 136 196q-17 6 -36 6q-50 0 -79.5 -38t-29.5 -102zM417 255q0 39 -11 69q-73 -102 -139 -202q19 -8 41 -8q50 0 79.5 38.5t29.5 102.5z" />
    <glyph glyph-name="ugrave" unicode="&#xf9;" horiz-adv-x="617" 
d="M397 0l-9 67q-25 -37 -65.5 -58.5t-87.5 -21.5q-89 0 -136 52.5t-47 151.5v318h174v-298q0 -83 76 -83q80 0 80 100v281h174v-509h-159zM259 570l-114 160h181l59 -160h-126z" />
    <glyph glyph-name="uacute" unicode="&#xfa;" horiz-adv-x="617" 
d="M397 0l-9 67q-25 -37 -65.5 -58.5t-87.5 -21.5q-89 0 -136 52.5t-47 151.5v318h174v-298q0 -83 76 -83q80 0 80 100v281h174v-509h-159zM239 570l65 160h181l-120 -160h-126z" />
    <glyph glyph-name="ucircumflex" unicode="&#xfb;" horiz-adv-x="617" 
d="M397 0l-9 67q-25 -37 -65.5 -58.5t-87.5 -21.5q-89 0 -136 52.5t-47 151.5v318h174v-298q0 -83 76 -83q80 0 80 100v281h174v-509h-159zM376 570l-65 69l-65 -69h-122l123 172h128l123 -172h-122z" />
    <glyph glyph-name="udieresis" unicode="&#xfc;" horiz-adv-x="617" 
d="M397 0l-9 67q-25 -37 -65.5 -58.5t-87.5 -21.5q-89 0 -136 52.5t-47 151.5v318h174v-298q0 -83 76 -83q80 0 80 100v281h174v-509h-159zM428 569q-41 0 -68 25t-27 62t27 61.5t68 24.5t68 -24.5t27 -61.5t-27 -62t-68 -25zM193 569q-42 0 -68.5 25t-26.5 62t26.5 61.5
t68.5 24.5q41 0 67.5 -24.5t26.5 -61.5t-26.5 -62t-67.5 -25z" />
    <glyph glyph-name="yacute" unicode="&#xfd;" horiz-adv-x="606" 
d="M414 40q-46 -118 -105 -176t-150 -58q-41 0 -74 9t-56 22l49 120q14 -7 31 -12t36 -5q27 0 48.5 13t37.5 47l8 18l-230 491h192l113 -305l93 305h189zM233 570l65 160h181l-120 -160h-126z" />
    <glyph glyph-name="thorn" unicode="&#xfe;" horiz-adv-x="640" 
d="M379 -13q-45 0 -82 19t-62 52v-243h-174v915h174v-280q25 33 63.5 52.5t88.5 19.5q65 0 115 -34t79 -94t29 -139t-29.5 -139.5t-82 -94.5t-119.5 -34zM332 125q46 0 73.5 35.5t27.5 94.5t-27.5 94.5t-73.5 35.5q-45 0 -72.5 -35.5t-27.5 -94.5t27.5 -94.5t72.5 -35.5z
" />
    <glyph glyph-name="ydieresis" unicode="&#xff;" horiz-adv-x="606" 
d="M414 40q-46 -118 -105 -176t-150 -58q-41 0 -74 9t-56 22l49 120q14 -7 31 -12t36 -5q27 0 48.5 13t37.5 47l8 18l-230 491h192l113 -305l93 305h189zM422 569q-41 0 -68 25t-27 62t27 61.5t68 24.5t68 -24.5t27 -61.5t-27 -62t-68 -25zM187 569q-42 0 -68.5 25t-26.5 62
t26.5 61.5t68.5 24.5q41 0 67.5 -24.5t26.5 -61.5t-26.5 -62t-67.5 -25z" />
    <glyph glyph-name="Abreve" unicode="&#x102;" horiz-adv-x="742" 
d="M539 0l-43 127h-255l-43 -127h-184l249 680h216l249 -680h-189zM288 265h161l-80 238zM371 717q-81 0 -130.5 42t-49.5 111h112q3 -66 68 -66t68 66h112q0 -69 -49.5 -111t-130.5 -42z" />
    <glyph glyph-name="abreve" unicode="&#x103;" horiz-adv-x="560" 
d="M351 0l-9 67q-50 -80 -152 -80q-45 0 -81.5 19.5t-58 53.5t-21.5 79q0 85 66.5 132t175.5 47q34 0 72 -6q-4 38 -32.5 57.5t-69.5 19.5q-36 0 -72.5 -13.5t-69.5 -32.5l-59 112q50 32 108 49.5t116 17.5q70 0 126 -24t88 -73t32 -124v-301h-159zM198 165q0 -23 17 -37.5
t44 -14.5q36 0 60.5 24.5t24.5 61.5v17q-27 5 -57 5q-38 0 -63.5 -13t-25.5 -43zM279 557q-81 0 -130.5 51t-49.5 134h112q3 -88 68 -88t68 88h112q0 -83 -49.5 -134t-130.5 -51z" />
    <glyph glyph-name="dotlessi" unicode="&#x131;" horiz-adv-x="296" 
d="M61 0v509h174v-509h-174z" />
    <glyph glyph-name="IJ" unicode="&#x132;" horiz-adv-x="681" 
d="M346 -13q-101 0 -170.5 44.5t-91.5 123.5l169 52q9 -29 31.5 -47.5t60.5 -18.5q37 0 62 18.5t25 59.5v461h185v-456q0 -74 -34 -127t-95 -81.5t-142 -28.5zM75 304v376h185v-376h-185z" />
    <glyph glyph-name="ij" unicode="&#x133;" horiz-adv-x="587" 
d="M61 600v140h465v-140h-465zM333 -194q-40 0 -73.5 8t-59.5 19l46 120q12 -5 26 -9t29 -4q23 0 37 13.5t14 41.5v514h174v-507q0 -88 -47.5 -142t-145.5 -54zM61 0v509h174v-509h-174z" />
    <glyph glyph-name="OE" unicode="&#x152;" horiz-adv-x="1003" 
d="M36 339q0 100 44.5 177t123 120.5t179.5 43.5h562v-149h-287v-115h255v-149h-255v-118h303v-149h-578q-101 0 -179.5 43.5t-123 120t-44.5 175.5zM383 150h93v381h-93q-71 0 -114.5 -53.5t-43.5 -138.5t43.5 -137t114.5 -52z" />
    <glyph glyph-name="oe" unicode="&#x153;" horiz-adv-x="976" 
d="M927 52q-37 -27 -97 -46t-127 -19q-68 0 -119.5 24t-84.5 67q-34 -43 -84 -67t-112 -24q-80 0 -141.5 34.5t-96.5 94.5t-35 139t35 139t96.5 94t141.5 34q62 0 112.5 -24t84.5 -66q32 42 80 66t107 24q77 0 136 -34t92 -94t33 -138q0 -13 -1 -25t-3 -23h-344
q23 -88 117 -88q52 0 89 15t62 30zM691 396q-38 0 -61 -25t-31 -65h180q-7 49 -32 69.5t-56 20.5zM303 125q44 0 70.5 35.5t26.5 94.5t-26.5 94t-70.5 35q-43 0 -69.5 -35t-26.5 -94t26.5 -94.5t69.5 -35.5z" />
    <glyph glyph-name="Scaron" unicode="&#x160;" horiz-adv-x="622" 
d="M315 -13q-83 0 -159 28.5t-132 81.5l90 113q40 -36 90 -56.5t110 -20.5q40 0 63 14t23 42q0 27 -27 43.5t-95 34.5l-42 11q-92 24 -140 73.5t-48 125.5q0 65 34 114t94 75.5t139 26.5q78 0 149 -28.5t126 -77.5l-93 -117q-36 31 -84.5 54t-96.5 23q-40 0 -61.5 -13.5
t-21.5 -39.5q0 -24 22.5 -41.5t77.5 -32.5l51 -14q110 -30 155.5 -82t45.5 -121q0 -65 -33.5 -113.5t-94.5 -75.5t-142 -27zM497 864l-118 -140h-128l-118 140h131l51 -52l51 52h131z" />
    <glyph glyph-name="scaron" unicode="&#x161;" horiz-adv-x="508" 
d="M250 -13q-66 0 -123.5 21t-103.5 60l74 98q35 -28 75.5 -45.5t79.5 -17.5q26 0 41.5 9t15.5 27q0 19 -17.5 30.5t-62.5 22.5l-48 12q-143 38 -143 153q0 51 28 88t77 57t114 20q64 0 120.5 -20t103.5 -58l-76 -100q-35 28 -74 45t-73 17q-55 0 -55 -36q0 -16 16.5 -26
t46.5 -18l65 -18q73 -20 108 -60t35 -95q0 -50 -28 -87.5t-78.5 -58t-117.5 -20.5zM450 745l-123 -172h-128l-123 172h122l65 -69l65 69h122z" />
    <glyph glyph-name="Wcircumflex" unicode="&#x174;" horiz-adv-x="990" 
d="M605 0l-110 442l-110 -442h-197l-169 680h180l103 -464l114 464h159l113 -461l106 461h177l-169 -680h-197zM560 724l-65 64l-65 -64h-129l130 154h128l130 -154h-129z" />
    <glyph glyph-name="wcircumflex" unicode="&#x175;" horiz-adv-x="817" 
d="M490 0l-82 309l-81 -309h-180l-132 509h178l53 -328l86 328h153l89 -329l54 329h174l-132 -509h-180zM474 570l-65 69l-65 -69h-122l123 172h128l123 -172h-122z" />
    <glyph glyph-name="Ycircumflex" unicode="&#x176;" horiz-adv-x="691" 
d="M440 245v-245h-189v245l-241 435h210l126 -270l125 270h210zM411 724l-65 64l-65 -64h-129l130 154h128l130 -154h-129z" />
    <glyph glyph-name="ycircumflex" unicode="&#x177;" horiz-adv-x="606" 
d="M414 40q-46 -118 -105 -176t-150 -58q-41 0 -74 9t-56 22l49 120q14 -7 31 -12t36 -5q27 0 48.5 13t37.5 47l8 18l-230 491h192l113 -305l93 305h189zM370 570l-65 69l-65 -69h-122l123 172h128l123 -172h-122z" />
    <glyph glyph-name="Ydieresis" unicode="&#x178;" horiz-adv-x="691" 
d="M440 245v-245h-189v245l-241 435h210l126 -270l125 270h210zM467 719q-39 0 -64.5 24t-25.5 59t25.5 58.5t64.5 23.5q40 0 65.5 -23.5t25.5 -58.5t-25.5 -59t-65.5 -24zM224 719q-40 0 -65.5 24t-25.5 59t25.5 58.5t65.5 23.5q39 0 64 -23.5t25 -58.5t-25 -59t-64 -24z
" />
    <glyph glyph-name="Zcaron" unicode="&#x17d;" horiz-adv-x="626" 
d="M588 150v-150h-553v137l313 393h-292v150h520v-137l-314 -393h326zM496 864l-118 -140h-128l-118 140h131l51 -52l51 52h131z" />
    <glyph glyph-name="zcaron" unicode="&#x17e;" horiz-adv-x="516" 
d="M482 130v-130h-451v109l232 270h-217v130h428v-109l-230 -270h238zM444 742l-123 -172h-128l-123 172h122l65 -69l65 69h122z" />
    <glyph glyph-name="Scommabelow" unicode="&#x218;" horiz-adv-x="622" 
d="M315 -13q-83 0 -159 28.5t-132 81.5l90 113q40 -36 90 -56.5t110 -20.5q40 0 63 14t23 42q0 27 -27 43.5t-95 34.5l-42 11q-92 24 -140 73.5t-48 125.5q0 65 34 114t94 75.5t139 26.5q78 0 149 -28.5t126 -77.5l-93 -117q-36 31 -84.5 54t-96.5 23q-40 0 -61.5 -13.5
t-21.5 -39.5q0 -24 22.5 -41.5t77.5 -32.5l51 -14q110 -30 155.5 -82t45.5 -121q0 -65 -33.5 -113.5t-94.5 -75.5t-142 -27zM379 -124q0 -28 -11.5 -61t-39.5 -69h-74q20 26 33 46.5t20 41.5q-25 1 -42 18.5t-17 42.5q0 26 18.5 44.5t45.5 18.5q28 0 47.5 -21.5t19.5 -60.5z
" />
    <glyph glyph-name="scommabelow" unicode="&#x219;" horiz-adv-x="508" 
d="M250 -13q-66 0 -123.5 21t-103.5 60l74 98q35 -28 75.5 -45.5t79.5 -17.5q26 0 41.5 9t15.5 27q0 19 -17.5 30.5t-62.5 22.5l-48 12q-143 38 -143 153q0 51 28 88t77 57t114 20q64 0 120.5 -20t103.5 -58l-76 -100q-35 28 -74 45t-73 17q-55 0 -55 -36q0 -16 16.5 -26
t46.5 -18l65 -18q73 -20 108 -60t35 -95q0 -50 -28 -87.5t-78.5 -58t-117.5 -20.5zM330 -124q0 -28 -11.5 -61t-39.5 -69h-74q20 26 33 46.5t20 41.5q-25 1 -42 18.5t-17 42.5q0 26 18.5 44.5t45.5 18.5q28 0 47.5 -21.5t19.5 -60.5z" />
    <glyph glyph-name="Tcommabelow" unicode="&#x21a;" horiz-adv-x="636" 
d="M225 0v530h-202v150h590v-150h-202v-530h-186zM385 -124q0 -28 -11.5 -61t-39.5 -69h-74q20 26 33 46.5t20 41.5q-25 1 -42 18.5t-17 42.5q0 26 18.5 44.5t45.5 18.5q28 0 47.5 -21.5t19.5 -60.5z" />
    <glyph glyph-name="tcommabelow" unicode="&#x21b;" horiz-adv-x="458" 
d="M436 33q-31 -21 -71 -33.5t-84 -12.5q-82 0 -130.5 47.5t-48.5 127.5v217h-83v130h91l22 142h144v-142h133v-130h-133v-195q0 -26 15.5 -40.5t41.5 -14.5q13 0 26.5 5t25.5 12zM328 -124q0 -28 -11.5 -61t-39.5 -69h-74q20 26 33 46.5t20 41.5q-25 1 -42 18.5t-17 42.5
q0 26 18.5 44.5t45.5 18.5q28 0 47.5 -21.5t19.5 -60.5z" />
    <glyph glyph-name="dotlessj" unicode="&#x237;" horiz-adv-x="297" 
d="M43 -194q-40 0 -73.5 8t-59.5 19l46 120q12 -5 26 -9t29 -4q23 0 37 13.5t14 41.5v514h174v-507q0 -88 -47.5 -142t-145.5 -54z" />
    <glyph glyph-name="circumflex" unicode="&#x2c6;" horiz-adv-x="500" 
d="M315 570l-65 69l-65 -69h-122l123 172h128l123 -172h-122z" />
    <glyph glyph-name="caron" unicode="&#x2c7;" horiz-adv-x="500" 
d="M437 742l-123 -172h-128l-123 172h122l65 -69l65 69h122z" />
    <glyph glyph-name="breve" unicode="&#x2d8;" horiz-adv-x="500" 
d="M250 557q-81 0 -130.5 51t-49.5 134h112q3 -88 68 -88t68 88h112q0 -83 -49.5 -134t-130.5 -51z" />
    <glyph glyph-name="ring" unicode="&#x2da;" horiz-adv-x="500" 
d="M251 565q-58 0 -96 36.5t-38 92.5t38 92.5t96 36.5q57 0 95 -36.5t38 -92.5t-38 -92.5t-95 -36.5zM251 642q21 0 36 15t15 37q0 21 -15 36t-36 15q-22 0 -37 -15t-15 -36q0 -22 15 -37t37 -15z" />
    <glyph glyph-name="tilde" unicode="&#x2dc;" horiz-adv-x="500" 
d="M333 568q-34 0 -57.5 14t-42.5 28.5t-41 14.5q-20 0 -31 -12t-12 -44l-107 14q2 70 37 112.5t88 42.5q34 0 57.5 -14t42.5 -28.5t41 -14.5q20 0 31 12.5t12 44.5l107 -15q-2 -70 -37 -112.5t-88 -42.5z" />
    <glyph glyph-name="gravecomb" unicode="&#x300;" horiz-adv-x="0" 
d="M-52 570l-114 160h181l59 -160h-126z" />
    <glyph glyph-name="acutecomb" unicode="&#x301;" horiz-adv-x="0" 
d="M-72 570l65 160h181l-120 -160h-126z" />
    <glyph glyph-name="circumflexcomb" unicode="&#x302;" horiz-adv-x="0" 
d="M65 570l-65 69l-65 -69h-122l123 172h128l123 -172h-122z" />
    <glyph glyph-name="tildecomb" unicode="&#x303;" horiz-adv-x="0" 
d="M81 568q-34 0 -57.5 14t-42.5 28.5t-41 14.5q-20 0 -31 -12t-12 -44l-107 14q2 70 37 112.5t88 42.5q34 0 57.5 -14t42.5 -28.5t41 -14.5q20 0 31 12.5t12 44.5l107 -15q-2 -70 -37 -112.5t-88 -42.5z" />
    <glyph glyph-name="brevecomb" unicode="&#x306;" horiz-adv-x="0" 
d="M0 557q-81 0 -130.5 51t-49.5 134h112q3 -88 68 -88t68 88h112q0 -83 -49.5 -134t-130.5 -51z" />
    <glyph glyph-name="dieresiscomb" unicode="&#x308;" horiz-adv-x="0" 
d="M117 569q-41 0 -68 25t-27 62t27 61.5t68 24.5t68 -24.5t27 -61.5t-27 -62t-68 -25zM-118 569q-42 0 -68.5 25t-26.5 62t26.5 61.5t68.5 24.5q41 0 67.5 -24.5t26.5 -61.5t-26.5 -62t-67.5 -25z" />
    <glyph glyph-name="ringcomb" unicode="&#x30a;" horiz-adv-x="0" 
d="M0 565q-58 0 -96 36.5t-38 92.5t38 92.5t96 36.5q57 0 95 -36.5t38 -92.5t-38 -92.5t-95 -36.5zM0 642q21 0 36 15t15 37q0 21 -15 36t-36 15q-22 0 -37 -15t-15 -36q0 -22 15 -37t37 -15z" />
    <glyph glyph-name="caroncomb" unicode="&#x30c;" horiz-adv-x="0" 
d="M187 742l-123 -172h-128l-123 172h122l65 -69l65 69h122z" />
    <glyph glyph-name="commabelowcomb" unicode="&#x326;" horiz-adv-x="0" 
d="M67 -124q0 -28 -11.5 -61t-39.5 -69h-74q20 26 33 46.5t20 41.5q-25 1 -42 18.5t-17 42.5q0 26 18.5 44.5t45.5 18.5q28 0 47.5 -21.5t19.5 -60.5z" />
    <glyph glyph-name="cedillacomb" unicode="&#x327;" horiz-adv-x="0" 
d="M119 -137q0 -41 -35.5 -72t-92.5 -31q-35 0 -59 11.5t-42 29.5l47 51q8 -8 21.5 -13t30.5 -5t29 6t12 21q0 13 -12 21.5t-32 8.5q-18 0 -31 -6l-36 35l47 94h67l-33 -60h7q49 0 80.5 -22.5t31.5 -68.5z" />
    <glyph glyph-name="Wgrave" unicode="&#x1e80;" horiz-adv-x="990" 
d="M605 0l-110 442l-110 -442h-197l-169 680h180l103 -464l114 464h159l113 -461l106 461h177l-169 -680h-197zM442 724l-122 140h181l67 -140h-126z" />
    <glyph glyph-name="wgrave" unicode="&#x1e81;" horiz-adv-x="817" 
d="M490 0l-82 309l-81 -309h-180l-132 509h178l53 -328l86 328h153l89 -329l54 329h174l-132 -509h-180zM357 570l-114 160h181l59 -160h-126z" />
    <glyph glyph-name="Wacute" unicode="&#x1e82;" horiz-adv-x="990" 
d="M605 0l-110 442l-110 -442h-197l-169 680h180l103 -464l114 464h159l113 -461l106 461h177l-169 -680h-197zM420 724l67 140h181l-122 -140h-126z" />
    <glyph glyph-name="wacute" unicode="&#x1e83;" horiz-adv-x="817" 
d="M490 0l-82 309l-81 -309h-180l-132 509h178l53 -328l86 328h153l89 -329l54 329h174l-132 -509h-180zM337 570l65 160h181l-120 -160h-126z" />
    <glyph glyph-name="Wdieresis" unicode="&#x1e84;" horiz-adv-x="990" 
d="M605 0l-110 442l-110 -442h-197l-169 680h180l103 -464l114 464h159l113 -461l106 461h177l-169 -680h-197zM616 719q-39 0 -64.5 24t-25.5 59t25.5 58.5t64.5 23.5q40 0 65.5 -23.5t25.5 -58.5t-25.5 -59t-65.5 -24zM373 719q-40 0 -65.5 24t-25.5 59t25.5 58.5
t65.5 23.5q39 0 64 -23.5t25 -58.5t-25 -59t-64 -24z" />
    <glyph glyph-name="wdieresis" unicode="&#x1e85;" horiz-adv-x="817" 
d="M490 0l-82 309l-81 -309h-180l-132 509h178l53 -328l86 328h153l89 -329l54 329h174l-132 -509h-180zM526 569q-41 0 -68 25t-27 62t27 61.5t68 24.5t68 -24.5t27 -61.5t-27 -62t-68 -25zM291 569q-42 0 -68.5 25t-26.5 62t26.5 61.5t68.5 24.5q41 0 67.5 -24.5
t26.5 -61.5t-26.5 -62t-67.5 -25z" />
    <glyph glyph-name="Germandbls" unicode="&#x1e9e;" horiz-adv-x="748" 
d="M712 207q0 -59 -29 -108.5t-84 -79.5t-134 -30q-43 0 -95 10.5t-92 33.5l49 127q25 -12 53.5 -19.5t55.5 -7.5q41 0 65.5 20t24.5 53q0 47 -45 66.5t-151 19.5v107l143 139h-121q-50 0 -77.5 -27.5t-27.5 -77.5v-433h-183v449q0 113 73 177t203 64h346v-130l-155 -150
q79 -13 130 -67t51 -136z" />
    <glyph glyph-name="Ygrave" unicode="&#x1ef2;" horiz-adv-x="691" 
d="M440 245v-245h-189v245l-241 435h210l126 -270l125 270h210zM293 724l-122 140h181l67 -140h-126z" />
    <glyph glyph-name="ygrave" unicode="&#x1ef3;" horiz-adv-x="606" 
d="M414 40q-46 -118 -105 -176t-150 -58q-41 0 -74 9t-56 22l49 120q14 -7 31 -12t36 -5q27 0 48.5 13t37.5 47l8 18l-230 491h192l113 -305l93 305h189zM253 570l-114 160h181l59 -160h-126z" />
    <glyph glyph-name="enquad" unicode="&#x2000;" horiz-adv-x="500" 
 />
    <glyph glyph-name="emquad" unicode="&#x2001;" horiz-adv-x="1000" 
 />
    <glyph glyph-name="enspace" unicode="&#x2002;" horiz-adv-x="500" 
 />
    <glyph glyph-name="emspace" unicode="&#x2003;" horiz-adv-x="1000" 
 />
    <glyph glyph-name="thirdemspace" unicode="&#x2004;" horiz-adv-x="334" 
 />
    <glyph glyph-name="fourthemspace" unicode="&#x2005;" horiz-adv-x="250" 
 />
    <glyph glyph-name="sixthemspace" unicode="&#x2006;" horiz-adv-x="167" 
 />
    <glyph glyph-name="figurespace" unicode="&#x2007;" 
 />
    <glyph glyph-name="punctuationspace" unicode="&#x2008;" horiz-adv-x="300" 
 />
    <glyph glyph-name="thinspace" unicode="&#x2009;" horiz-adv-x="200" 
 />
    <glyph glyph-name="hairspace" unicode="&#x200a;" horiz-adv-x="100" 
 />
    <glyph glyph-name="zerowidthspace" unicode="&#x200b;" horiz-adv-x="0" 
 />
    <glyph glyph-name="endash" unicode="&#x2013;" horiz-adv-x="550" 
d="M25 230v154h500v-154h-500z" />
    <glyph glyph-name="emdash" unicode="&#x2014;" horiz-adv-x="900" 
d="M50 230v154h800v-154h-800z" />
    <glyph glyph-name="quoteleft" unicode="&#x2018;" horiz-adv-x="256" 
d="M228 506q0 -40 -28 -66.5t-69 -26.5q-44 0 -73.5 31t-29.5 85q0 45 24 96t63 100h109q-12 -19 -36 -56.5t-41 -80.5q35 -3 58 -24.5t23 -57.5z" />
    <glyph glyph-name="quoteright" unicode="&#x2019;" horiz-adv-x="256" 
d="M228 614q0 -45 -24 -95.5t-63 -100.5h-109q12 19 36 56.5t41 80.5q-35 3 -58 24.5t-23 57.5q0 41 28 67t69 26q44 0 73.5 -31t29.5 -85z" />
    <glyph glyph-name="quotesinglbase" unicode="&#x201a;" horiz-adv-x="256" 
d="M228 55q0 -45 -24 -96t-63 -100h-109q12 19 36 56.5t41 80.5q-35 3 -58 24.5t-23 57.5q0 40 28 66.5t69 26.5q44 0 73.5 -31t29.5 -85z" />
    <glyph glyph-name="quotedblleft" unicode="&#x201c;" horiz-adv-x="487" 
d="M228 506q0 -40 -28 -66.5t-69 -26.5q-44 0 -73.5 31t-29.5 85q0 45 24 96t63 100h109q-12 -19 -36 -56.5t-41 -80.5q35 -3 58 -24.5t23 -57.5zM459 506q0 -40 -28 -66.5t-69 -26.5q-44 0 -73.5 31t-29.5 85q0 45 24 96t63 100h109q-12 -19 -36 -56.5t-41 -80.5
q35 -3 58 -24.5t23 -57.5z" />
    <glyph glyph-name="quotedblright" unicode="&#x201d;" horiz-adv-x="487" 
d="M228 614q0 -45 -24 -95.5t-63 -100.5h-109q12 19 36 56.5t41 80.5q-35 3 -58 24.5t-23 57.5q0 41 28 67t69 26q44 0 73.5 -31t29.5 -85zM459 614q0 -45 -24 -95.5t-63 -100.5h-109q12 19 36 56.5t41 80.5q-35 3 -58 24.5t-23 57.5q0 41 28 67t69 26q44 0 73.5 -31
t29.5 -85z" />
    <glyph glyph-name="quotedblbase" unicode="&#x201e;" horiz-adv-x="487" 
d="M228 55q0 -45 -24 -96t-63 -100h-109q12 19 36 56.5t41 80.5q-35 3 -58 24.5t-23 57.5q0 40 28 66.5t69 26.5q44 0 73.5 -31t29.5 -85zM459 55q0 -45 -24 -96t-63 -100h-109q12 19 36 56.5t41 80.5q-35 3 -58 24.5t-23 57.5q0 40 28 66.5t69 26.5q44 0 73.5 -31t29.5 -85
z" />
    <glyph glyph-name="bullet" unicode="&#x2022;" horiz-adv-x="500" 
d="M250 114q-56 0 -102.5 27.5t-74 74t-27.5 102.5t27.5 102.5t74 74t102.5 27.5t102.5 -27.5t74 -74t27.5 -102.5t-27.5 -102.5t-74 -74t-102.5 -27.5z" />
    <glyph glyph-name="ellipsis" unicode="&#x2026;" horiz-adv-x="814" 
d="M407 -10q-42 0 -71 29.5t-29 70.5q0 40 29 69.5t71 29.5q41 0 70.5 -29.5t29.5 -69.5q0 -41 -29.5 -70.5t-70.5 -29.5zM677 -10q-42 0 -71 29.5t-29 70.5q0 40 29 69.5t71 29.5q41 0 70.5 -29.5t29.5 -69.5q0 -41 -29.5 -70.5t-70.5 -29.5zM137 -10q-42 0 -71 29.5
t-29 70.5q0 40 29 69.5t71 29.5q41 0 70.5 -29.5t29.5 -69.5q0 -41 -29.5 -70.5t-70.5 -29.5z" />
    <glyph glyph-name="guilsinglleft" unicode="&#x2039;" horiz-adv-x="352" 
d="M325 447l-142 -192l142 -192h-158l-142 192l142 192h158z" />
    <glyph glyph-name="guilsinglright" unicode="&#x203a;" horiz-adv-x="352" 
d="M27 447h158l142 -192l-142 -192h-158l142 192z" />
    <glyph glyph-name="fraction" unicode="&#x2044;" horiz-adv-x="132" 
d="M-233 0l453 680h145l-453 -680h-145z" />
    <glyph glyph-name="Euro" unicode="&#x20ac;" horiz-adv-x="692" 
d="M680 125q-46 -68 -120.5 -103t-152.5 -35q-113 0 -189 58t-107 155h-85v100h66q-1 17 -1 34v13h-65v100h79q27 106 105.5 169.5t196.5 63.5q97 0 161.5 -35t111.5 -103l-144 -76q-18 33 -48 52t-72 19q-46 0 -80 -22.5t-52 -67.5h234l-40 -100h-212v-13q0 -18 1 -34h195
l-40 -100h-128q37 -70 115 -70q49 0 79 21t49 50z" />
    <glyph glyph-name="liraturkish" unicode="&#x20ba;" 
d="M580 293q0 -293 -306 -293h-167v227l-83 -16v100l83 16v57l-83 -16v100l83 16v182h165v-150l113 22v-100l-113 -22v-57l113 22v-100l-113 -22v-114h15q78 0 114 35.5t36 112.5h143z" />
    <glyph glyph-name="ruble" unicode="&#x20bd;" 
d="M405 91h-144v-91h-165v91h-61v100h61v55h-62v130h62v290h216q80 0 138.5 -27t90 -75t31.5 -109t-31.5 -108t-89 -74t-135.5 -27h-55v-55h144v-100zM261 376h44q43 0 68 20.5t25 58.5q0 37 -25 58t-68 21h-44v-158z" />
    <glyph glyph-name="trademark" unicode="&#x2122;" horiz-adv-x="921" 
d="M135 312v264h-101v104h332v-104h-100v-264h-131zM580 355l-66 174v-217h-112v368h151l75 -190l72 190h151v-368h-110v225l-69 -182h-92z" />
    <glyph glyph-name="minus" unicode="&#x2212;" 
d="M50 267v132h490v-132h-490z" />
    <glyph glyph-name="period.ss01" horiz-adv-x="300" 
d="M150 -11q-32 0 -58.5 15.5t-42 42t-15.5 58.5t15.5 58.5t42 42t58.5 15.5t58.5 -15.5t42 -42t15.5 -58.5t-15.5 -58.5t-42 -42t-58.5 -15.5z" />
    <glyph glyph-name="zero.pnum" horiz-adv-x="635" 
d="M318 -10q-87 0 -148.5 42.5t-94 120t-32.5 181.5t32.5 181.5t94 120t148.5 42.5q86 0 147.5 -42.5t94 -120t32.5 -181.5t-32.5 -181.5t-94 -120t-147.5 -42.5zM318 138q50 0 71 51t21 145t-21 145t-71 51q-51 0 -72 -51t-21 -145t21 -145t72 -51z" />
    <glyph glyph-name="one.pnum" horiz-adv-x="459" 
d="M385 668v-668h-178v478l-126 -55l-59 131l223 114h140z" />
    <glyph glyph-name="two.pnum" horiz-adv-x="588" 
d="M548 146v-146h-496v123l171 169q49 48 76.5 80.5t39 56t11.5 44.5q0 27 -18.5 44t-47.5 17q-76 0 -91 -88l-163 35q25 95 92.5 147t167.5 52q72 0 126 -25.5t84 -71t30 -106.5q0 -39 -15 -76t-52 -82t-103 -108l-67 -65h255z" />
    <glyph glyph-name="three.pnum" horiz-adv-x="591" 
d="M553 184q0 -60 -32.5 -104t-91.5 -68.5t-141 -24.5q-92 0 -159 40.5t-103 120.5l145 64q15 -34 40.5 -56.5t70.5 -22.5q34 0 62.5 15.5t28.5 52.5q0 33 -31.5 51.5t-91.5 18.5h-44v129h44q54 0 77.5 21t23.5 47q0 28 -21.5 47t-52.5 19q-35 0 -57 -17.5t-34 -50.5
l-151 52q33 80 100.5 121t156.5 41q71 0 125 -23t84.5 -64.5t30.5 -95.5q0 -55 -30.5 -95.5t-79.5 -59.5q56 -17 93.5 -56.5t37.5 -101.5z" />
    <glyph glyph-name="four.pnum" horiz-adv-x="633" 
d="M603 122h-91v-122h-164v122h-317v133l282 411h199v-409h91v-135zM193 257h155v228z" />
    <glyph glyph-name="five.pnum" horiz-adv-x="584" 
d="M547 216q0 -68 -33 -119t-91.5 -79t-133.5 -28q-80 0 -147.5 35t-103.5 112l138 66q37 -69 103 -69q44 0 68.5 23.5t24.5 64.5q0 38 -26 62t-67 24q-64 0 -102 -52l-127 47l39 363h414v-146h-271l-11 -105q22 10 48 15.5t51 5.5q69 0 120 -27t79 -76.5t28 -116.5z" />
    <glyph glyph-name="six.pnum" horiz-adv-x="610" 
d="M573 225q0 -70 -32.5 -123.5t-90 -84t-131.5 -30.5q-131 0 -203 85.5t-72 241.5q0 111 30.5 193.5t93 127.5t159.5 45q68 0 132 -29t104 -88l-129 -82q-14 21 -41.5 37t-59.5 16q-58 0 -90 -39t-32 -112q21 25 57 39t84 14q61 0 111 -26t80 -73.5t30 -111.5zM308 130
q42 0 68.5 25t26.5 65t-26.5 65.5t-68.5 25.5q-41 0 -68 -25.5t-27 -65.5t27 -65t68 -25z" />
    <glyph glyph-name="seven.pnum" horiz-adv-x="569" 
d="M541 532q-93 -80 -145.5 -166.5t-75 -178t-24.5 -187.5h-182q3 97 25.5 189t71 175.5t129.5 155.5h-311v146h512v-134z" />
    <glyph glyph-name="eight.pnum" horiz-adv-x="616" 
d="M578 186q0 -92 -71.5 -145.5t-198.5 -53.5t-198.5 53.5t-71.5 145.5q0 55 32 96t80 63q-41 22 -65 60.5t-24 85.5q0 57 31 99.5t86.5 66t129.5 23.5q72 0 128 -23.5t87.5 -66t31.5 -99.5q0 -47 -24 -85.5t-65 -60.5q48 -22 80 -63t32 -96zM308 396q38 0 63 20t25 52
t-25 52.5t-63 20.5t-63 -20.5t-25 -52.5t25 -52t63 -20zM308 128q46 0 75.5 21.5t29.5 60.5q0 40 -30.5 60.5t-74.5 20.5t-74.5 -20.5t-30.5 -60.5q0 -39 30.5 -60.5t74.5 -21.5z" />
    <glyph glyph-name="nine.pnum" horiz-adv-x="610" 
d="M566 352q0 -111 -30.5 -193.5t-93 -127.5t-159.5 -45q-68 0 -132 29t-104 88l129 82q14 -21 41.5 -37t59.5 -16q58 0 90 39t32 112q-21 -25 -57 -39t-84 -14q-60 0 -110.5 26t-80.5 73.5t-30 111.5q0 70 32.5 123.5t89.5 84t132 30.5q131 0 203 -85.5t72 -241.5zM302 536
q-42 0 -68.5 -25t-26.5 -65t26.5 -65.5t68.5 -25.5q41 0 68 25.5t27 65.5t-27 65t-68 25z" />
    <glyph glyph-name="one.dnom" horiz-adv-x="350" 
d="M261 401v-401h-128v270l-73 -28l-37 88l143 71h95z" />
    <glyph glyph-name="two.dnom" horiz-adv-x="350" 
d="M324 104v-104h-308v88l105 95q42 37 58 57t16 36q0 13 -9.5 21.5t-25.5 8.5q-18 0 -30.5 -11t-15.5 -28l-111 25q17 58 60 87.5t107 29.5q75 0 114 -37.5t39 -89.5q0 -40 -22 -75t-86 -84l-25 -19h134z" />
    <glyph glyph-name="three.dnom" horiz-adv-x="350" 
d="M333 110q0 -56 -46.5 -87.5t-126.5 -31.5q-53 0 -98.5 25t-64.5 82l105 35q8 -17 23.5 -28t36.5 -11q42 0 42 31q0 36 -68 36h-29v82h29q30 0 42 10.5t12 24.5q0 13 -10 20.5t-24 7.5q-33 0 -45 -26l-107 31q18 52 65.5 75t101.5 23q69 0 109 -30.5t40 -80.5
q0 -34 -19.5 -57.5t-50.5 -34.5q34 -9 58.5 -32t24.5 -64z" />
    <glyph glyph-name="four.dnom" horiz-adv-x="350" 
d="M345 65h-49v-65h-114v65h-194v85l168 250h140v-242h49v-93zM98 158h84v127z" />
    <glyph glyph-name="one.numr" horiz-adv-x="350" 
d="M261 668v-401h-128v270l-73 -28l-37 88l143 71h95z" />
    <glyph glyph-name="three.numr" horiz-adv-x="350" 
d="M333 377q0 -56 -46.5 -87.5t-126.5 -31.5q-53 0 -98.5 25t-64.5 82l105 35q8 -17 23.5 -28t36.5 -11q42 0 42 31q0 36 -68 36h-29v82h29q30 0 42 10.5t12 24.5q0 13 -10 20.5t-24 7.5q-33 0 -45 -26l-107 31q18 52 65.5 75t101.5 23q69 0 109 -30.5t40 -80.5
q0 -34 -19.5 -57.5t-50.5 -34.5q34 -9 58.5 -32t24.5 -64z" />
    <glyph glyph-name="percent.ss01" horiz-adv-x="849" 
d="M125 0l453 680h145l-453 -680h-145zM183 261q-84 0 -130.5 57.5t-46.5 149.5t46.5 149t130.5 57q85 0 131.5 -57t46.5 -149t-46.5 -149.5t-131.5 -57.5zM183 366q28 0 38 26.5t10 75.5t-10 75.5t-38 26.5q-27 0 -37 -26.5t-10 -75.5t10 -75.5t37 -26.5zM665 -6
q-84 0 -130.5 57.5t-46.5 149.5t46.5 149t130.5 57q85 0 131.5 -57t46.5 -149t-46.5 -149.5t-131.5 -57.5zM665 99q28 0 38 26.5t10 75.5t-10 75.5t-38 26.5q-27 0 -37 -26.5t-10 -75.5t10 -75.5t37 -26.5z" />
    <glyph glyph-name="Euro.ss01" 
d="M560 10q-61 -23 -126 -23q-114 0 -195 59.5t-114 159.5h-122l40 100h63q-1 14 -1 28t1 28h-81l41 100h59q33 101 116 159.5t198 58.5q63 0 121 -20v-135q-21 10 -48 14.5t-56 4.5q-58 0 -99.5 -21.5t-64.5 -60.5h253l-40 -100h-243q-1 -13 -1 -28q0 -14 1 -28h220
l-40 -100h-151q23 -39 62.5 -61.5t97.5 -22.5q61 0 109 20v-132z" />
    <glyph glyph-name="i.ss01" horiz-adv-x="296" 
d="M146 549q-43 0 -73.5 30.5t-30.5 73.5t30.5 73.5t73.5 30.5t73.5 -30.5t30.5 -73.5t-30.5 -73.5t-73.5 -30.5zM61 0v509q42 -9 85 -9q44 0 89 9v-509h-174z" />
    <glyph glyph-name="j.ss01" horiz-adv-x="297" 
d="M147 549q-43 0 -73.5 30.5t-30.5 73.5t30.5 73.5t73.5 30.5t73.5 -30.5t30.5 -73.5t-30.5 -73.5t-73.5 -30.5zM-3 -185l-33 142q44 4 71 29t27 70v453q42 -9 85 -9q44 0 89 9v-444q0 -111 -57.5 -175t-181.5 -75z" />
    <glyph glyph-name="periodcentered.loclCAT" horiz-adv-x="200" 
d="M100 231q-42 0 -71 29.5t-29 70.5q0 40 29 69.5t71 29.5q41 0 70.5 -29.5t29.5 -69.5q0 -41 -29.5 -70.5t-70.5 -29.5z" />
    <glyph glyph-name="periodcentered.loclCAT.cap" horiz-adv-x="0" 
d="M-120 284q-42 0 -71 29.5t-29 70.5q0 40 29 69.5t71 29.5q41 0 70.5 -29.5t29.5 -69.5q0 -41 -29.5 -70.5t-70.5 -29.5z" />
    <glyph glyph-name="dotlessij" horiz-adv-x="587" 
d="M333 -194q-40 0 -73.5 8t-59.5 19l46 120q12 -5 26 -9t29 -4q23 0 37 13.5t14 41.5v514h174v-507q0 -88 -47.5 -142t-145.5 -54zM61 0v509h174v-509h-174z" />
    <glyph glyph-name="acutecomb.cap" horiz-adv-x="0" 
d="M-75 553l67 140h181l-122 -140h-126z" />
    <glyph glyph-name="IJacute" horiz-adv-x="682" 
d="M346 -13q-101 0 -170.5 44.5t-91.5 123.5l169 52q9 -29 31.5 -47.5t60.5 -18.5q37 0 62 18.5t25 59.5v461h185v-456q0 -74 -34 -127t-95 -81.5t-142 -28.5zM75 304v376h185v-376h-185zM94 724l67 140h181l-122 -140h-126zM451 724l67 140h181l-122 -140h-126z" />
    <glyph glyph-name="ijacute" horiz-adv-x="581" 
d="M330 -194q-40 0 -73.5 8t-59.5 19l46 120q12 -5 26 -9t29 -4q23 0 37 13.5t14 41.5v514h174v-507q0 -88 -47.5 -142t-145.5 -54zM58 0v509h174v-509h-174zM58 570l65 160h181l-120 -160h-126zM349 570l65 160h181l-120 -160h-126z" />
    <glyph glyph-name="gravecomb.cap" horiz-adv-x="0" 
d="M-53 553l-122 140h181l67 -140h-126z" />
    <glyph glyph-name="gravemod" horiz-adv-x="500" 
d="M244 570l-114 160h181l59 -160h-126z" />
    <glyph glyph-name="circumflexcomb.cap" horiz-adv-x="0" 
d="M65 553l-65 64l-65 -64h-129l130 154h128l130 -154h-129z" />
    <glyph glyph-name="tildecomb.cap" horiz-adv-x="0" 
d="M81 558q-33 0 -57 14t-43 28t-41 14q-20 0 -31 -12t-12 -44l-108 14q2 70 37 113.5t89 43.5q33 0 57 -14.5t43 -28.5t41 -14q20 0 31 12.5t12 44.5l108 -15q-2 -70 -37 -113t-89 -43z" />
    <glyph glyph-name="caroncomb.cap" horiz-adv-x="0" 
d="M182 693l-118 -140h-128l-118 140h131l51 -52l51 52h131z" />
    <glyph glyph-name="dieresiscomb.cap" horiz-adv-x="0" 
d="M121 547q-39 0 -64.5 24t-25.5 59t25.5 58.5t64.5 23.5q40 0 65.5 -23.5t25.5 -58.5t-25.5 -59t-65.5 -24zM-122 547q-40 0 -65.5 24t-25.5 59t25.5 58.5t65.5 23.5q39 0 64 -23.5t25 -58.5t-25 -59t-64 -24z" />
    <glyph glyph-name="brevecomb.cap" horiz-adv-x="0" 
d="M0 546q-81 0 -130.5 42t-49.5 111h112q3 -66 68 -66t68 66h112q0 -69 -49.5 -111t-130.5 -42z" />
    <glyph glyph-name="ringcomb.cap" horiz-adv-x="0" 
d="M0 420q-47 0 -84 20.5t-58 56t-21 80.5t21 80t58 55.5t84 20.5q46 0 83 -20.5t58 -55.5t21 -80t-21 -80.5t-58 -56t-83 -20.5zM0 510q27 0 46 19.5t19 47.5q0 26 -19 45.5t-46 19.5q-28 0 -47 -19.5t-19 -45.5q0 -28 19 -47.5t47 -19.5z" />
    </font>
</defs>
</svg>
