<?xml version="1.0" standalone="no"?>
<!DOCTYPE svg PUBLIC "-//W3C//DTD SVG 1.1//EN" "http://www.w3.org/Graphics/SVG/1.1/DTD/svg11.dtd" >
<svg xmlns="http://www.w3.org/2000/svg" xmlns:xlink="http://www.w3.org/1999/xlink" version="1.1">
<metadata>
Created by FontForge 20170731 at Thu May 18 18:59:50 2017
 By Aleksey,,,
(c) 2017 Gannett Co., Inc. All Rights Reserved.
</metadata>
<defs>
<font id="UnifySans-Italic" horiz-adv-x="590" >
  <font-face 
    font-family="Unify Sans"
    font-weight="400"
    font-style="italic"
    font-stretch="normal"
    units-per-em="1000"
    panose-1="2 11 6 3 2 2 3 9 2 4"
    ascent="730"
    descent="-270"
    x-height="504"
    cap-height="680"
    bbox="-259 -233 996 869"
    underline-thickness="85"
    underline-position="-186"
    slope="-11.23"
    unicode-range="U+000D-2212"
  />
<missing-glyph horiz-adv-x="550" 
d="M75 0v730h400v-730h-400zM125 47h300v636h-300v-636z" />
    <glyph glyph-name="f_i" unicode="fi" horiz-adv-x="640" 
d="M261 563l-11 -59h360l-98 -504h-95l82 422h-265l-105 -543h-96l106 543h-77l16 82h77l15 78q14 74 59 116t119 42q36 0 65.5 -12t55.5 -35l-49 -63q-18 14 -36 19.5t-38 5.5q-67 0 -85 -92zM586 603q-25 0 -40 14.5t-15 36.5q0 30 20.5 50.5t48.5 20.5q25 0 40 -14.5
t15 -36.5q0 -30 -20.5 -50.5t-48.5 -20.5z" />
    <glyph glyph-name="f_j" unicode="fj" horiz-adv-x="640" 
d="M261 563l-11 -59h360l-105 -534q-16 -80 -56.5 -120.5t-111.5 -40.5q-46 0 -89 20l34 77q28 -12 56 -12q26 0 45 16.5t27 53.5l89 458h-265l-105 -543h-96l106 543h-77l16 82h77l15 78q14 74 59 116t119 42q36 0 65.5 -12t55.5 -35l-49 -63q-18 14 -36 19.5t-38 5.5
q-67 0 -85 -92zM586 603q-25 0 -40 14.5t-15 36.5q0 30 20.5 50.5t48.5 20.5q25 0 40 -14.5t15 -36.5q0 -30 -20.5 -50.5t-48.5 -20.5z" />
    <glyph glyph-name=".notdef" horiz-adv-x="550" 
d="M75 0v730h400v-730h-400zM125 47h300v636h-300v-636z" />
    <glyph glyph-name="uni0000" horiz-adv-x="0" 
 />
    <glyph glyph-name="uni0000" horiz-adv-x="0" 
 />
    <glyph glyph-name="uni000D" unicode="&#xd;" horiz-adv-x="240" 
 />
    <glyph glyph-name="space" unicode=" " horiz-adv-x="240" 
 />
    <glyph glyph-name="exclam" unicode="!" horiz-adv-x="311" 
d="M98 180l89 500h99l-109 -500h-79zM115 -9q-25 0 -43 17.5t-18 42.5q0 32 21.5 51.5t49.5 19.5q25 0 43 -17t18 -43q0 -32 -21.5 -51.5t-49.5 -19.5z" />
    <glyph glyph-name="quotedbl" unicode="&#x22;" horiz-adv-x="400" 
d="M344 730h82l-50 -251h-82zM161 730h82l-50 -251h-82z" />
    <glyph glyph-name="numbersign" unicode="#" horiz-adv-x="675" 
d="M314 0l60 169h-156l-60 -169h-88l60 169h-85v76h111l63 176h-86v76h112l60 169h88l-60 -169h156l60 169h88l-60 -169h86v-76h-112l-63 -176h87v-76h-113l-60 -169h-88zM244 245h156l63 176h-156z" />
    <glyph glyph-name="dollar" unicode="$" 
d="M521 212q0 -50 -29 -91.5t-81.5 -67.5t-123.5 -29l-19 -97h-74l20 100q-56 9 -102 32.5t-78 54.5l60 67q57 -56 137 -69l38 194q-67 23 -113 64t-46 102q0 52 28.5 93t80 65t119.5 26l15 74h74l-16 -80q53 -9 96 -31.5t76 -53.5l-60 -67q-55 53 -129 67l-38 -191
q91 -32 128 -70.5t37 -91.5zM211 482q0 -54 76 -84l34 173q-56 -3 -83 -30.5t-27 -58.5zM420 201q0 27 -18.5 46t-63.5 36l-34 -174q61 4 88.5 31.5t27.5 60.5z" />
    <glyph glyph-name="percent" unicode="%" horiz-adv-x="859" 
d="M222 338q-44 0 -81 19.5t-58.5 55t-21.5 83.5q0 50 23.5 91t64.5 65t92 24q45 0 81.5 -19.5t58 -55t21.5 -83.5q0 -50 -23.5 -91t-64 -65t-92.5 -24zM97 0l573 666h110l-573 -666h-110zM225 412q39 0 63.5 30t24.5 75q0 37 -21.5 61t-53.5 24q-39 0 -63.5 -29.5
t-24.5 -74.5q0 -38 21.5 -62t53.5 -24zM641 -4q-45 0 -81.5 19.5t-58 55t-21.5 83.5q0 50 23.5 91t64 65t92.5 24q44 0 81 -19.5t58.5 -55t21.5 -83.5q0 -50 -23.5 -91t-64.5 -65t-92 -24zM644 70q39 0 63.5 30t24.5 75q0 37 -21.5 61t-53.5 24q-39 0 -63.5 -29.5
t-24.5 -74.5q0 -38 21.5 -62t53.5 -24z" />
    <glyph glyph-name="ampersand" unicode="&#x26;" horiz-adv-x="661" 
d="M473 0l-36 50q-42 -28 -92 -44t-107 -16q-56 0 -104 21t-77 61t-29 97q0 72 45.5 123t130.5 83q-27 39 -38 67.5t-11 56.5q0 53 26 96t72.5 69t108.5 26q54 0 92 -22t58 -57.5t20 -75.5q0 -119 -155 -177l-47 -17l122 -171q24 29 40.5 63.5t24.5 71.5l85 -19
q-12 -49 -38 -96.5t-64 -86.5l74 -103h-101zM242 501q0 -22 9 -42.5t33 -53.5l59 22q53 19 75.5 45t22.5 58t-23 55t-66 23q-47 0 -78.5 -29t-31.5 -78zM119 175q0 -45 34 -73t90 -28q43 0 80 11t67 30l-141 196l-10 -4q-62 -23 -91 -55t-29 -77z" />
    <glyph glyph-name="quotesingle" unicode="'" horiz-adv-x="217" 
d="M161 730h82l-50 -251h-82z" />
    <glyph glyph-name="parenleft" unicode="(" horiz-adv-x="368" 
d="M272 -160h-100q-42 88 -65.5 179.5t-23.5 182.5q0 152 62.5 287t175.5 241h126q-126 -100 -198 -236t-72 -292q0 -92 24.5 -183t70.5 -179z" />
    <glyph glyph-name="parenright" unicode=")" horiz-adv-x="368" 
d="M60 -160h-126q126 100 198 236t72 292q0 92 -24.5 183t-70.5 179h100q42 -88 65.5 -179.5t23.5 -182.5q0 -152 -63 -287t-175 -241z" />
    <glyph glyph-name="asterisk" unicode="*" horiz-adv-x="456" 
d="M386 366l-71 -45l-53 110l-97 -110l-52 55l96 100l-110 37l38 72l107 -40l20 135h90l-35 -136l120 38l19 -74l-130 -38z" />
    <glyph glyph-name="plus" unicode="+" 
d="M221 107l37 182h-167l16 85h167l36 177h89l-35 -177h167l-16 -85h-168l-36 -182h-90z" />
    <glyph glyph-name="comma" unicode="," horiz-adv-x="300" 
d="M180 49q0 -47 -31.5 -102t-84.5 -102h-89q50 46 77.5 79.5t41.5 67.5q-21 5 -33.5 20t-12.5 36q0 31 20.5 52t49.5 21q28 0 45 -19t17 -53z" />
    <glyph glyph-name="hyphen" unicode="-" horiz-adv-x="466" 
d="M95 325h304l-16 -85h-304z" />
    <glyph glyph-name="period" unicode="." horiz-adv-x="300" 
d="M107 -9q-25 0 -43 17.5t-18 42.5q0 32 21.5 51.5t49.5 19.5q25 0 43 -17t18 -43q0 -32 -21.5 -51.5t-49.5 -19.5z" />
    <glyph glyph-name="slash" unicode="/" horiz-adv-x="482" 
d="M-64 -130l519 860h110l-519 -860h-110z" />
    <glyph glyph-name="zero" unicode="0" 
d="M268 -10q-78 0 -128.5 35t-74.5 94.5t-24 134.5q0 86 24 162t66.5 134.5t99.5 92t123 33.5q78 0 128.5 -35t74.5 -94.5t24 -134.5q0 -86 -24 -162t-66.5 -134.5t-99.5 -92t-123 -33.5zM270 75q50 0 89 28.5t66 76.5t41 107t14 120q0 83 -30.5 133.5t-97.5 50.5
q-50 0 -89 -28.5t-66 -76.5t-41 -107t-14 -120q0 -83 30.5 -133.5t97.5 -50.5z" />
    <glyph glyph-name="one" unicode="1" 
d="M485 666l-132 -666h-97l110 556l-146 -59l-28 85l210 84h83z" />
    <glyph glyph-name="two" unicode="2" 
d="M495 86l-18 -86h-452l13 68l257 218q61 51 94.5 86.5t47.5 64.5t14 60q0 41 -30 67t-78 26q-102 0 -153 -106l-88 28q35 80 99.5 122t151.5 42q57 0 102 -23.5t71 -64t26 -92.5q0 -45 -17.5 -85t-59.5 -84.5t-115 -102.5l-172 -138h307z" />
    <glyph glyph-name="three" unicode="3" 
d="M516 197q0 -61 -33 -108t-89 -73t-125 -26q-95 0 -153.5 34t-88.5 98l79 44q26 -51 68 -70.5t92 -19.5q64 0 106.5 29.5t42.5 82.5q0 50 -34 78t-99 28h-34l17 87h31q80 0 125 31.5t45 87.5q0 43 -33 66.5t-85 23.5q-58 0 -96.5 -27t-60.5 -68l-81 48q34 61 94 97t150 36
q98 0 155.5 -47t57.5 -122q0 -60 -39.5 -106t-100.5 -68q42 -18 65.5 -53t23.5 -83z" />
    <glyph glyph-name="four" unicode="4" 
d="M534 142h-86l-28 -142h-98l28 142h-337l16 83l411 441h112l-87 -441h86zM139 225h228l61 309z" />
    <glyph glyph-name="five" unicode="5" 
d="M520 238q0 -83 -34 -138t-90 -82.5t-124 -27.5q-97 0 -154 37.5t-82 93.5l80 42q24 -48 64 -67.5t89 -19.5q72 0 111 41t39 111q0 56 -32.5 89.5t-87.5 33.5q-44 0 -73 -15t-60 -43l-72 36l104 337h365l-17 -83h-282l-56 -181q51 31 120 31q53 0 96.5 -23.5t69.5 -67.5
t26 -104z" />
    <glyph glyph-name="six" unicode="6" 
d="M540 236q0 -69 -30.5 -124.5t-85 -88.5t-127.5 -33q-107 0 -169 67t-62 194q0 76 18.5 151t56.5 137t96 99.5t137 37.5q78 0 130.5 -33.5t77.5 -83.5l-73 -43q-22 36 -56 55.5t-79 19.5q-59 0 -100.5 -31.5t-67.5 -85.5t-37 -122q25 35 69.5 58t106.5 23q56 0 100 -25.5
t69.5 -70.5t25.5 -101zM297 75q65 0 103.5 40.5t38.5 101.5q0 62 -35.5 98t-92.5 36q-65 0 -103.5 -40.5t-38.5 -101.5q0 -59 35.5 -96.5t92.5 -37.5z" />
    <glyph glyph-name="seven" unicode="7" 
d="M596 589q-104 -81 -174.5 -181t-114 -206t-63.5 -202h-101q21 93 62 196.5t106 203.5t159 183h-347l16 83h472z" />
    <glyph glyph-name="eight" unicode="8" 
d="M531 195q0 -57 -32 -103.5t-91 -74t-140 -27.5q-74 0 -126.5 23.5t-79.5 63.5t-27 90q0 63 41.5 113t121.5 68q-42 22 -64.5 60.5t-22.5 82.5q0 54 32 95.5t86.5 65.5t122.5 24q64 0 112.5 -21.5t76 -60.5t27.5 -91t-32.5 -98.5t-92.5 -70.5q43 -22 65.5 -59.5
t22.5 -79.5zM331 370q60 0 99 31.5t39 84.5q0 47 -33 76t-87 29q-63 0 -100.5 -31.5t-37.5 -84.5q0 -47 33 -76t87 -29zM271 75q45 0 81 15t57.5 42.5t21.5 65.5q0 45 -37.5 74.5t-98.5 29.5q-45 0 -81 -15t-57.5 -43t-21.5 -65q0 -45 37.5 -74.5t98.5 -29.5z" />
    <glyph glyph-name="nine" unicode="9" 
d="M556 415q0 -76 -18.5 -151t-56.5 -137t-96 -99.5t-137 -37.5q-78 0 -130.5 33.5t-77.5 83.5l73 43q22 -36 56 -55.5t79 -19.5q59 0 100.5 31.5t67.5 85.5t37 122q-25 -35 -69.5 -58t-106.5 -23q-47 0 -92 22t-74 66t-29 109q0 69 30.5 124.5t85 88.5t127.5 33
q107 0 169 -67t62 -194zM311 315q65 0 103.5 40.5t38.5 101.5q0 59 -35.5 96.5t-92.5 37.5q-65 0 -103.5 -40.5t-38.5 -101.5q0 -59 35.5 -96.5t92.5 -37.5z" />
    <glyph glyph-name="colon" unicode=":" horiz-adv-x="300" 
d="M107 -9q-25 0 -43 17.5t-18 42.5q0 32 21.5 51.5t49.5 19.5q25 0 43 -17t18 -43q0 -32 -21.5 -51.5t-49.5 -19.5zM184 387q-25 0 -43 17.5t-18 42.5q0 32 21.5 51.5t49.5 19.5q25 0 43 -17t18 -43q0 -32 -21.5 -51.5t-49.5 -19.5z" />
    <glyph glyph-name="semicolon" unicode=";" horiz-adv-x="300" 
d="M180 49q0 -47 -31.5 -102t-84.5 -102h-89q50 46 77.5 79.5t41.5 67.5q-21 5 -33.5 20t-12.5 36q0 31 20.5 52t49.5 21q28 0 45 -19t17 -53zM186 388q-25 0 -43 17.5t-18 42.5q0 32 21.5 51.5t49.5 19.5q25 0 43 -17t18 -43q0 -32 -21.5 -51.5t-49.5 -19.5z" />
    <glyph glyph-name="less" unicode="&#x3c;" 
d="M492 194l-18 -90l-411 170l15 80l478 171l-17 -92l-357 -120z" />
    <glyph glyph-name="equal" unicode="=" 
d="M120 484h441l-16 -85h-442zM76 264h442l-17 -85h-441z" />
    <glyph glyph-name="greater" unicode="&#x3e;" 
d="M536 275l-478 -171l18 96l357 120l-311 119l18 86l411 -170z" />
    <glyph glyph-name="question" unicode="?" horiz-adv-x="495" 
d="M505 514q0 -64 -32.5 -114t-91 -81t-137.5 -39l-23 -100h-89l31 178h12q107 0 168 38t61 107q0 48 -29 74.5t-82 26.5q-35 0 -76 -14t-76 -39l-43 70q48 33 103 51t107 18q58 0 102.5 -22t69.5 -62t25 -92zM154 -9q-26 0 -43.5 17.5t-17.5 42.5q0 30 20.5 50.5t50.5 20.5
q26 0 43.5 -17t17.5 -43q0 -30 -20.5 -50.5t-50.5 -20.5z" />
    <glyph glyph-name="at" unicode="@" horiz-adv-x="909" 
d="M583 -60q-79 -38 -172 -38q-106 0 -185 42.5t-122.5 119t-43.5 179.5q0 101 34 185t97 145.5t149.5 95t190.5 33.5q75 0 138.5 -24t110.5 -67t73 -101.5t26 -126.5q0 -77 -28.5 -136.5t-78.5 -93.5t-115 -34q-38 0 -66 16.5t-39 43.5q-52 -60 -131 -60q-45 0 -80 19.5
t-55 52.5t-20 76q0 59 26.5 107t72 76t101.5 28q77 0 117 -57l13 48h79l-41 -208q-3 -12 -3 -27q0 -42 37 -42q32 0 58 25.5t41 69t15 96.5q0 68 -33.5 121t-94 83t-139.5 30q-78 0 -143 -28t-113.5 -78t-75 -118.5t-26.5 -149.5q0 -79 32 -136.5t90.5 -88.5t139.5 -31
q36 0 67 7t66 23zM442 192q32 0 59 17t42.5 46t15.5 65q0 38 -23 61.5t-58 23.5q-32 0 -59 -17t-42.5 -46.5t-15.5 -64.5q0 -37 23 -61t58 -24z" />
    <glyph glyph-name="A" unicode="A" horiz-adv-x="687" 
d="M518 0l-31 171h-308l-99 -171h-105l401 680h107l131 -680h-96zM229 256h242l-58 318z" />
    <glyph glyph-name="B" unicode="B" horiz-adv-x="637" 
d="M580 212q0 -62 -32.5 -109.5t-96 -75t-156.5 -27.5h-256l135 680h236q102 0 153 -43t51 -118q0 -54 -37.5 -99t-100.5 -68q49 -17 76.5 -53.5t27.5 -86.5zM216 397h156q63 0 102 32t39 83q0 38 -26.5 60.5t-84.5 22.5h-146zM155 85h157q80 0 123.5 34t43.5 93
q0 51 -31.5 76.5t-90.5 25.5h-157z" />
    <glyph glyph-name="C" unicode="C" horiz-adv-x="663" 
d="M355 -10q-88 0 -153.5 37t-102 105t-36.5 161q0 78 27 150t76 128t117 88.5t150 32.5q91 0 154 -33t98 -80l-71 -61q-32 38 -78 62t-104 24q-78 0 -138.5 -41.5t-95 -112t-34.5 -157.5q0 -101 52 -158t145 -57q51 0 99 20.5t87 66.5l66 -57q-43 -56 -109 -87t-149 -31z
" />
    <glyph glyph-name="D" unicode="D" horiz-adv-x="703" 
d="M39 0l135 680h226q92 0 153.5 -38t92 -102t30.5 -142q0 -85 -28.5 -157.5t-82 -126.5t-129 -84t-170.5 -30h-227zM155 85h127q88 0 153 39.5t101.5 109.5t36.5 164q0 90 -48 143.5t-141 53.5h-128z" />
    <glyph glyph-name="E" unicode="E" horiz-adv-x="567" 
d="M39 0l135 680h428l-17 -85h-327l-41 -210h288l-18 -85h-288l-42 -215h335l-17 -85h-436z" />
    <glyph glyph-name="F" unicode="F" horiz-adv-x="538" 
d="M39 0l135 680h416l-17 -85h-315l-45 -230h280l-17 -85h-281l-55 -280h-101z" />
    <glyph glyph-name="G" unicode="G" horiz-adv-x="718" 
d="M618 61q-52 -37 -112.5 -54.5t-140.5 -17.5q-95 0 -163 37.5t-103.5 105.5t-35.5 161q0 78 27 149.5t77.5 127.5t119.5 88.5t153 32.5q81 0 148.5 -28t113.5 -83l-71 -56q-41 41 -88 60t-105 19q-81 0 -142.5 -41t-96.5 -111.5t-35 -157.5q0 -101 53 -158.5t154 -57.5
q44 0 84.5 6t74.5 27l34 171h-173l16 88h273z" />
    <glyph glyph-name="H" unicode="H" horiz-adv-x="721" 
d="M482 0l60 302h-344l-60 -302h-99l135 680h99l-58 -291h344l58 291h99l-135 -680h-99z" />
    <glyph glyph-name="I" unicode="I" horiz-adv-x="278" 
d="M39 0l135 680h99l-135 -680h-99z" />
    <glyph glyph-name="J" unicode="J" horiz-adv-x="496" 
d="M181 -12q-83 0 -128 35.5t-68 90.5l83 36q17 -34 40.5 -54t71.5 -20q55 0 83.5 32t38.5 85l97 487h99l-97 -489q-20 -103 -70 -153t-150 -50z" />
    <glyph glyph-name="K" unicode="K" horiz-adv-x="614" 
d="M439 0l-233 344l-68 -344h-99l135 680h99l-59 -298l330 298h130l-357 -323l244 -357h-122z" />
    <glyph glyph-name="L" unicode="L" horiz-adv-x="520" 
d="M39 0l135 680h101l-118 -595h304l-17 -85h-405z" />
    <glyph glyph-name="M" unicode="M" horiz-adv-x="869" 
d="M351 66l-118 454l-103 -520h-91l135 680h111l129 -515l339 515h111l-135 -680h-91l103 517l-298 -451h-92z" />
    <glyph glyph-name="N" unicode="N" horiz-adv-x="719" 
d="M487 0l-250 529l-105 -529h-93l135 680h92l250 -529l105 529h93l-135 -680h-92z" />
    <glyph glyph-name="O" unicode="O" horiz-adv-x="754" 
d="M355 -11q-89 0 -154.5 38t-101.5 106.5t-36 159.5q0 78 27 149.5t76 127.5t117 88.5t150 32.5q89 0 154.5 -38t101.5 -106.5t36 -159.5q0 -78 -27 -149.5t-76 -127.5t-117 -88.5t-150 -32.5zM361 77q75 0 134.5 41t94 111.5t34.5 157.5q0 99 -53 157.5t-144 58.5
q-75 0 -134.5 -41t-94 -111.5t-34.5 -157.5q0 -99 53 -157.5t144 -58.5z" />
    <glyph glyph-name="P" unicode="P" horiz-adv-x="606" 
d="M39 0l135 680h229q101 0 156 -47.5t55 -129.5q0 -73 -36.5 -126t-101.5 -82t-150 -29h-135l-53 -266h-99zM207 349h134q77 0 124.5 40t47.5 106q0 46 -32 73t-91 27h-134z" />
    <glyph glyph-name="Q" unicode="Q" horiz-adv-x="754" 
d="M725 387q0 -95 -39 -179.5t-108 -140.5l64 -107h-110l-35 58q-32 -14 -67.5 -21.5t-74.5 -7.5q-89 0 -154.5 38t-101.5 106.5t-36 159.5q0 78 27 149.5t76 127.5t117 88.5t150 32.5q89 0 154.5 -38t101.5 -106.5t36 -159.5zM164 293q0 -99 53 -157.5t144 -58.5
q48 0 91 18l-109 183h110l78 -131q43 42 68 104t25 136q0 99 -53 157.5t-144 58.5q-75 0 -134.5 -41t-94 -111.5t-34.5 -157.5z" />
    <glyph glyph-name="R" unicode="R" horiz-adv-x="624" 
d="M193 276l-55 -276h-99l135 680h229q100 0 155.5 -45.5t55.5 -126.5q0 -82 -51 -141t-137 -80l105 -287h-104l-96 276h-138zM209 359h132q77 0 124.5 39t47.5 102q0 44 -33 69.5t-90 25.5h-134z" />
    <glyph glyph-name="S" unicode="S" horiz-adv-x="573" 
d="M270 -11q-80 0 -146 24t-116 74l59 72q44 -45 96.5 -64t111.5 -19q73 0 108.5 31t35.5 73q0 36 -21.5 63t-76.5 47l-70 26q-47 17 -84 39t-58.5 55.5t-21.5 82.5q0 51 26 96t81 73t141 28q83 0 144 -29t106 -73l-65 -65q-44 38 -89 59t-103 21q-68 0 -105.5 -29
t-37.5 -70q0 -38 24.5 -60t78.5 -41l71 -26q78 -29 118 -72.5t40 -112.5q0 -58 -30.5 -103.5t-86 -72.5t-130.5 -27z" />
    <glyph glyph-name="T" unicode="T" horiz-adv-x="602" 
d="M195 0l118 595h-225l16 85h548l-16 -85h-224l-118 -595h-99z" />
    <glyph glyph-name="U" unicode="U" horiz-adv-x="696" 
d="M317 -12q-71 0 -126 25.5t-86.5 73t-31.5 113.5q0 22 2.5 47.5t9.5 57.5l75 375h98l-74 -375q-5 -26 -8 -49t-3 -42q0 -63 39.5 -100.5t112.5 -37.5q89 0 135 50t63 136l83 418h99l-87 -434q-26 -132 -100.5 -195t-200.5 -63z" />
    <glyph glyph-name="V" unicode="V" horiz-adv-x="677" 
d="M736 680l-401 -680h-97l-131 680h97l102 -561l326 561h104z" />
    <glyph glyph-name="W" unicode="W" horiz-adv-x="949" 
d="M577 0l-44 540l-263 -540h-106l-45 680h97l30 -541l258 541h102l46 -541l240 541h104l-314 -680h-105z" />
    <glyph glyph-name="X" unicode="X" horiz-adv-x="637" 
d="M452 0l-128 271l-229 -271h-119l304 349l-164 331h111l125 -263l222 263h119l-297 -342l167 -338h-111z" />
    <glyph glyph-name="Y" unicode="Y" horiz-adv-x="606" 
d="M355 270l-53 -270h-99l53 270l-153 410h110l106 -316l231 316h119z" />
    <glyph glyph-name="Z" unicode="Z" horiz-adv-x="583" 
d="M498 85l-17 -85h-489l15 75l475 520h-363l17 85h489l-15 -75l-475 -520h363z" />
    <glyph glyph-name="bracketleft" unicode="[" horiz-adv-x="378" 
d="M204 730h215l-16 -84h-125l-143 -722h132l-16 -84h-223z" />
    <glyph glyph-name="backslash" unicode="\" horiz-adv-x="520" 
d="M103 730h97l236 -860h-97z" />
    <glyph glyph-name="bracketright" unicode="]" horiz-adv-x="378" 
d="M-28 -160l16 84h125l143 722h-132l16 84h223l-176 -890h-215z" />
    <glyph glyph-name="asciicircum" unicode="^" 
d="M448 320l-78 262l-182 -262h-99l250 360h91l107 -360h-89z" />
    <glyph glyph-name="underscore" unicode="_" horiz-adv-x="500" 
d="M-61 -60h500l-16 -85h-500z" />
    <glyph glyph-name="grave" unicode="`" horiz-adv-x="500" 
d="M335 577l-107 147h116l64 -147h-73z" />
    <glyph glyph-name="a" unicode="a" horiz-adv-x="629" 
d="M417 0l8 80q-32 -41 -78 -65.5t-101 -24.5q-53 0 -99.5 26t-75 74.5t-28.5 117.5q0 62 22 117.5t60.5 98t88 66.5t104.5 24q52 0 99.5 -25.5t73.5 -71.5l24 87h85l-99 -504h-84zM269 73q52 0 95 30t68.5 79.5t25.5 109.5q0 66 -37.5 102.5t-91.5 36.5q-52 0 -95 -30
t-68.5 -79.5t-25.5 -109.5q0 -66 37.5 -102.5t91.5 -36.5z" />
    <glyph glyph-name="b" unicode="b" horiz-adv-x="630" 
d="M587 296q0 -62 -22 -117.5t-60.5 -98t-88 -66.5t-104.5 -24q-52 0 -99.5 25.5t-73.5 71.5l-24 -87h-85l143 730h95l-59 -301q31 39 76 62t99 23q53 0 99.5 -26t75 -74.5t28.5 -117.5zM301 73q52 0 95 30t68.5 79.5t25.5 109.5q0 66 -37.5 102.5t-91.5 36.5q-52 0 -95 -30
t-68.5 -79.5t-25.5 -109.5q0 -66 37.5 -102.5t91.5 -36.5z" />
    <glyph glyph-name="c" unicode="c" horiz-adv-x="513" 
d="M265 -11q-58 0 -108 26.5t-81 77t-31 121.5q0 63 21.5 117.5t60.5 95.5t90.5 64t111.5 23q71 0 118.5 -28t74.5 -65l-71 -58q-23 31 -53.5 48.5t-72.5 17.5q-47 0 -88 -26.5t-67 -75.5t-26 -117q0 -60 36.5 -98t89.5 -38q38 0 67 14t57 48l67 -55q-33 -43 -82 -67.5
t-114 -24.5z" />
    <glyph glyph-name="d" unicode="d" horiz-adv-x="629" 
d="M417 0l8 80q-32 -41 -78 -65.5t-101 -24.5q-53 0 -99.5 26t-75 74.5t-28.5 117.5q0 62 22 117.5t60.5 98t88 66.5t104.5 24q51 0 98 -25t73 -68l60 309h95l-143 -730h-84zM269 73q52 0 95 30t68.5 79.5t25.5 109.5q0 66 -37.5 102.5t-91.5 36.5q-52 0 -95 -30
t-68.5 -79.5t-25.5 -109.5q0 -66 37.5 -102.5t91.5 -36.5z" />
    <glyph glyph-name="e" unicode="e" horiz-adv-x="582" 
d="M490 67q-38 -33 -93.5 -55t-120.5 -22q-66 0 -118.5 27.5t-83 77t-30.5 116.5q0 62 21 116.5t60 96.5t92.5 66t118.5 24q64 0 110.5 -25.5t72 -70t25.5 -100.5q0 -25 -4 -50.5t-9 -45.5h-391v-12q0 -42 19.5 -72.5t52 -47.5t70.5 -17q44 0 82 15t74 45zM329 431
q-57 0 -105.5 -36t-69.5 -99h292q1 12 1 24q0 52 -32.5 81.5t-85.5 29.5z" />
    <glyph glyph-name="f" unicode="f" horiz-adv-x="387" 
d="M392 422h-158l-105 -543h-96l106 543h-77l16 82h77l15 78q14 74 59 116t119 42q36 0 65.5 -12t55.5 -35l-49 -63q-18 14 -36 19.5t-38 5.5q-67 0 -85 -92l-11 -59h158z" />
    <glyph glyph-name="g" unicode="g" horiz-adv-x="630" 
d="M507 27q-23 -116 -97.5 -167t-184.5 -51q-56 0 -109.5 14.5t-104.5 47.5l44 75q43 -28 84.5 -40t98.5 -12q66 0 112.5 31t60.5 102l11 55q-31 -34 -76.5 -54t-94.5 -20q-52 0 -99 25t-77 72t-30 112q0 61 22 115t60.5 95t88.5 64t105 23q58 0 102.5 -28t68.5 -69l24 87
h85zM272 93q52 0 94.5 28t68 74.5t25.5 103.5q0 60 -37.5 95t-92.5 35q-52 0 -94.5 -28t-68 -74.5t-25.5 -103.5q0 -60 37.5 -95t92.5 -35z" />
    <glyph glyph-name="h" unicode="h" horiz-adv-x="586" 
d="M175 258l-50 -258h-95l143 730h95l-58 -293q32 36 75.5 56.5t92.5 20.5q69 0 112.5 -45t43.5 -115q0 -14 -2 -30t-5 -32l-57 -292h-95l57 289q2 12 4 25t2 24q0 41 -24.5 66t-68.5 25q-36 0 -71 -19t-61.5 -57t-37.5 -95z" />
    <glyph glyph-name="i" unicode="i" horiz-adv-x="253" 
d="M199 603q-25 0 -40 14.5t-15 36.5q0 30 20.5 50.5t48.5 20.5q25 0 40 -14.5t15 -36.5q0 -30 -20.5 -50.5t-48.5 -20.5zM30 0l98 504h95l-98 -504h-95z" />
    <glyph glyph-name="j" unicode="j" horiz-adv-x="253" 
d="M199 603q-25 0 -40 14.5t-15 36.5q0 30 20.5 50.5t48.5 20.5q25 0 40 -14.5t15 -36.5q0 -30 -20.5 -50.5t-48.5 -20.5zM-50 -191q-46 0 -89 20l34 77q29 -12 56 -12q26 0 45.5 16.5t26.5 53.5l105 540h95l-105 -534q-16 -80 -56.5 -120.5t-111.5 -40.5z" />
    <glyph glyph-name="k" unicode="k" horiz-adv-x="519" 
d="M363 0l-187 264l-51 -264h-95l142 730h95l-84 -433l249 207h127l-280 -232l195 -272h-111z" />
    <glyph glyph-name="l" unicode="l" horiz-adv-x="252" 
d="M172 730h95l-142 -730h-95z" />
    <glyph glyph-name="m" unicode="m" horiz-adv-x="881" 
d="M175 255l-50 -255h-95l99 504h84l-7 -73q29 39 68.5 61t88.5 22q55 0 90.5 -28t49.5 -73q29 44 74 72.5t103 28.5q46 0 79.5 -20t52 -54t18.5 -76q0 -20 -2 -37t-6 -35l-57 -292h-95l57 289q3 16 5 30t2 30q0 35 -22 57.5t-56 22.5q-49 0 -92.5 -36t-65.5 -120l-53 -273
h-95l57 289q3 16 5 30t2 28q0 35 -20.5 58.5t-61.5 23.5q-51 0 -95 -42t-62 -132z" />
    <glyph glyph-name="n" unicode="n" horiz-adv-x="586" 
d="M175 258l-50 -258h-95l99 504h82l-7 -75q31 39 77 62t97 23q69 0 112.5 -45t43.5 -115q0 -14 -2 -30t-5 -32l-57 -292h-95l57 289q2 12 4 25t2 24q0 41 -24.5 66t-68.5 25q-36 0 -71 -19t-61.5 -57t-37.5 -95z" />
    <glyph glyph-name="o" unicode="o" horiz-adv-x="607" 
d="M274 -10q-64 0 -116 27.5t-82.5 78t-30.5 120.5q0 80 35 147.5t99.5 109t153.5 41.5q65 0 116.5 -27.5t82 -78t30.5 -120.5q0 -80 -35 -147.5t-100 -109t-153 -41.5zM283 73q52 0 93 28.5t65 76t24 103.5q0 66 -38.5 108t-102.5 42q-52 0 -93 -28.5t-65 -76t-24 -103.5
q0 -66 38.5 -108t102.5 -42z" />
    <glyph glyph-name="p" unicode="p" horiz-adv-x="630" 
d="M312 -10q-51 0 -98 25t-73 68l-52 -268h-95l135 689h84l-8 -80q32 41 78 65.5t101 24.5q53 0 99.5 -26t75 -74.5t28.5 -117.5q0 -62 -22 -117.5t-60.5 -98t-88 -66.5t-104.5 -24zM301 73q52 0 95 30t68.5 79.5t25.5 109.5q0 66 -37.5 102.5t-91.5 36.5q-52 0 -95 -30
t-68.5 -79.5t-25.5 -109.5q0 -66 37.5 -102.5t91.5 -36.5z" />
    <glyph glyph-name="q" unicode="q" horiz-adv-x="630" 
d="M601 504l-135 -689h-95l49 250q-32 -36 -74.5 -55.5t-94.5 -19.5q-55 0 -102 26t-76 74.5t-29 117.5q0 60 21 115t59 98t88.5 68t110.5 25q51 0 97.5 -24.5t72.5 -67.5l23 82h85zM270 73q52 0 95 30t68.5 79.5t25.5 109.5q0 66 -37.5 102.5t-91.5 36.5q-52 0 -95 -30
t-68.5 -79.5t-25.5 -109.5q0 -66 37.5 -102.5t91.5 -36.5z" />
    <glyph glyph-name="r" unicode="r" horiz-adv-x="392" 
d="M178 266l-53 -266h-95l99 504h84l-8 -85q32 45 79 66.5t99 21.5q14 0 29 -3l-26 -94q-20 6 -39 6q-39 0 -74 -19t-60.5 -52.5t-34.5 -78.5z" />
    <glyph glyph-name="s" unicode="s" horiz-adv-x="478" 
d="M209 -12q-61 0 -113 23t-88 66l59 59q30 -33 65.5 -50.5t78.5 -17.5q47 0 78.5 18t31.5 52q0 47 -80 73l-40 13q-68 22 -99.5 55.5t-31.5 82.5q0 68 52 110t135 42q119 0 196 -85l-60 -59q-34 34 -66 49t-69 15q-44 0 -68.5 -16t-24.5 -44q0 -46 74 -71l38 -13
q71 -25 105 -59.5t34 -83.5t-27.5 -84.5t-74 -55t-105.5 -19.5z" />
    <glyph glyph-name="t" unicode="t" horiz-adv-x="409" 
d="M334 26q-18 -14 -49 -25t-64 -11q-57 0 -92.5 31t-35.5 82q0 11 1.5 22t2.5 20l54 277h-90l16 82h91l43 137h78l-27 -137h139l-16 -82h-139l-55 -285q-1 -5 -1.5 -10t-0.5 -12q0 -17 12.5 -28.5t32.5 -11.5q19 0 35 6.5t32 16.5z" />
    <glyph glyph-name="u" unicode="u" horiz-adv-x="573" 
d="M360 0l7 74q-27 -39 -66 -61.5t-86 -22.5t-84 20.5t-58 57t-21 83.5q0 25 5 52l59 301h95l-59 -301q-2 -8 -3 -17.5t-1 -18.5q0 -43 25 -67.5t68 -24.5q50 0 95 45.5t61 124.5l51 259h95l-99 -504h-84z" />
    <glyph glyph-name="v" unicode="v" horiz-adv-x="542" 
d="M566 504l-293 -504h-100l-99 504h95l73 -401l217 401h107z" />
    <glyph glyph-name="w" unicode="w" horiz-adv-x="772" 
d="M442 0l-34 378l-178 -378h-103l-49 504h93l29 -399l182 399h96l29 -400l183 400h103l-249 -504h-102z" />
    <glyph glyph-name="x" unicode="x" horiz-adv-x="532" 
d="M356 0l-100 189l-177 -189h-114l246 262l-133 242h107l93 -176l165 176h114l-234 -250l140 -254h-107z" />
    <glyph glyph-name="y" unicode="y" horiz-adv-x="556" 
d="M252 -47q-44 -74 -92 -109t-114 -35q-20 0 -41 5.5t-39 16.5l38 77q14 -8 27 -11t26 -3q55 0 98 66l36 57l-118 487h101l82 -377l215 377h109z" />
    <glyph glyph-name="z" unicode="z" horiz-adv-x="485" 
d="M410 82l-16 -82h-404l14 71l341 351h-258l17 82h382l-14 -71l-341 -351h279z" />
    <glyph glyph-name="braceleft" unicode="{" horiz-adv-x="428" 
d="M310 -152q-16 -6 -33 -9.5t-38 -3.5q-62 0 -106 33t-44 92q0 30 9.5 60.5t21.5 60.5t21.5 57.5t9.5 50.5q0 55 -71 55h-24l16 80h25q53 0 77.5 26.5t24.5 91.5q0 16 -1 37.5l-2 43t-1 36.5q0 85 44 129.5t120 44.5q54 0 100 -22l-26 -77q-35 17 -67 17q-81 0 -81 -108
q0 -24 2.5 -59.5t2.5 -57.5q0 -58 -25.5 -93t-71.5 -49q22 -11 35.5 -33t13.5 -52q0 -27 -9.5 -57t-22 -60t-22 -57.5t-9.5 -48.5q0 -26 16.5 -42.5t49.5 -16.5q25 0 56 9z" />
    <glyph glyph-name="bar" unicode="|" horiz-adv-x="272" 
d="M181 730h96l-173 -890h-96z" />
    <glyph glyph-name="braceright" unicode="}" horiz-adv-x="428" 
d="M245 9q0 -85 -44 -129.5t-120 -44.5q-54 0 -100 22l26 77q35 -17 67 -17q81 0 81 108q0 24 -2.5 59.5t-2.5 57.5q0 58 25.5 93t71.5 49q-22 11 -35.5 33t-13.5 52q0 27 9.5 57t22 60t22 57.5t9.5 48.5q0 26 -16.5 42.5t-49.5 16.5q-25 0 -56 -9l-9 78q16 6 33 9.5t38 3.5
q62 0 106 -33t44 -92q0 -30 -9.5 -60.5t-21.5 -60.5t-21.5 -57.5t-9.5 -50.5q0 -55 71 -55h24l-16 -80h-25q-53 0 -77.5 -26.5t-24.5 -91.5q0 -16 1 -37.5l2 -43t1 -36.5z" />
    <glyph glyph-name="asciitilde" unicode="~" 
d="M391 246q-29 0 -52 11.5t-43 27t-37.5 27t-34.5 11.5q-22 0 -41 -18t-28 -53l-85 10q16 65 58 102.5t97 37.5q29 0 52 -11.5t43 -27t37.5 -27t34.5 -11.5q22 0 41 18t28 53l85 -10q-16 -65 -58 -102.5t-97 -37.5z" />
    <glyph glyph-name="uni00A0" unicode="&#xa0;" horiz-adv-x="240" 
 />
    <glyph glyph-name="exclamdown" unicode="&#xa1;" horiz-adv-x="311" 
d="M192 383q-26 0 -43.5 17.5t-17.5 42.5q0 32 21.5 51.5t49.5 19.5q26 0 43.5 -17t17.5 -43q0 -32 -21.5 -51.5t-49.5 -19.5zM31 -175l109 500h79l-89 -500h-99z" />
    <glyph glyph-name="cent" unicode="&#xa2;" 
d="M509 188q-30 -37 -74 -59.5t-104 -25.5l-20 -103h-75l21 110q-44 10 -81 36.5t-58.5 68t-21.5 95.5q0 72 32.5 130t89.5 94t129 41l20 101h75l-20 -105q48 -8 83.5 -30.5t57.5 -50.5l-70 -55q-18 20 -39 34t-48 20l-58 -300q51 7 93 52zM195 308q0 -42 22 -71.5t57 -41.5
l57 294q-56 -12 -96 -60t-40 -121z" />
    <glyph glyph-name="sterling" unicode="&#xa3;" 
d="M505 83l-16 -83h-484l16 82q41 0 75.5 19t55 51t20.5 70q0 16 -2 32.5t-5 33.5h-102l16 83h74q-1 12 -2 24.5t-1 25.5q0 120 68 187.5t189 67.5q59 0 110 -24.5t84 -69.5l-71 -60q-21 32 -55 50t-72 18q-71 0 -111.5 -43t-40.5 -119q0 -14 1 -28.5t2 -28.5h228l-16 -83
h-201q2 -18 3.5 -34t1.5 -31q0 -44 -22.5 -82t-54.5 -58h312z" />
    <glyph glyph-name="yen" unicode="&#xa5;" 
d="M470 107h-152l-21 -107h-99l21 107h-154l16 83h154l14 72h-154l17 83h107l-117 321h115l96 -309l216 309h121l-241 -321h108l-17 -83h-152l-14 -72h152z" />
    <glyph glyph-name="section" unicode="&#xa7;" horiz-adv-x="520" 
d="M402 11q0 -83 -57.5 -127.5t-156.5 -44.5q-63 0 -109 22t-78 60l61 61q27 -29 63.5 -45.5t74.5 -16.5q44 0 73.5 17.5t29.5 51.5q0 29 -23 51.5t-78 48.5q-80 38 -113 72.5t-33 80.5q0 45 24 90t76 85q-37 41 -37 100q0 43 22.5 79t69.5 58t122 22q60 0 107.5 -22
t79.5 -60l-61 -61q-26 29 -63.5 45.5t-74.5 16.5q-43 0 -73 -18.5t-30 -49.5q0 -32 25.5 -54.5t89.5 -53.5q51 -25 80 -46.5t40.5 -45t11.5 -54.5q0 -44 -24.5 -89.5t-75.5 -84.5q37 -40 37 -88zM253 171q29 -13 52 -26q31 29 45 53t14 48q0 32 -24 54t-85 50q-22 10 -39 20
q-33 -30 -46 -52.5t-13 -48.5q0 -30 21.5 -52.5t74.5 -45.5z" />
    <glyph glyph-name="dieresis" unicode="&#xa8;" horiz-adv-x="500" 
d="M210 603q-25 0 -40 14.5t-15 36.5q0 30 20.5 50.5t48.5 20.5q25 0 40 -14.5t15 -36.5q0 -30 -20.5 -50.5t-48.5 -20.5zM436 603q-25 0 -40 14.5t-15 36.5q0 30 20.5 50.5t48.5 20.5q25 0 40 -14.5t15 -36.5q0 -30 -20.5 -50.5t-48.5 -20.5z" />
    <glyph glyph-name="copyright" unicode="&#xa9;" horiz-adv-x="744" 
d="M390 24q-91 0 -162 41t-112 112t-41 162t41 162t112 112t162 41t162 -41t112 -112t41 -162t-41 -162t-112 -112t-162 -41zM390 96q72 0 126 31t84 85.5t30 126.5t-30 126.5t-84 85.5t-126 31t-126 -31t-84 -85.5t-30 -126.5t30 -126.5t84 -85.5t126 -31zM399 177
q-47 0 -84 21t-57.5 57.5t-20.5 83.5t20.5 83.5t57.5 57.5t84 21q39 0 72 -18t53 -48l-59 -37q-11 17 -28 27.5t-38 10.5q-36 0 -59.5 -27t-23.5 -70t23.5 -70t59.5 -27q21 0 38 10.5t28 27.5l59 -37q-20 -30 -53 -48t-72 -18z" />
    <glyph glyph-name="ordfeminine" unicode="&#xaa;" horiz-adv-x="380" 
d="M288 335l4 49q-19 -25 -47.5 -40.5t-62.5 -15.5q-32 0 -60.5 16.5t-46 48t-17.5 74.5q0 57 24 103t64 73.5t87 27.5q33 0 60.5 -16t42.5 -45l15 54h70l-65 -329h-68zM207 392q29 0 53.5 18t39.5 48.5t15 67.5q0 38 -20 59.5t-51 21.5q-28 0 -53 -18t-40 -48.5t-15 -68.5
q0 -37 20 -58.5t51 -21.5z" />
    <glyph glyph-name="guillemotleft" unicode="&#xab;" horiz-adv-x="587" 
d="M331 424l-180 -177l106 -167h-111l-109 172l175 172h119zM581 424l-180 -177l106 -167h-111l-109 172l175 172h119z" />
    <glyph glyph-name="logicalnot" unicode="&#xac;" 
d="M43 373l17 85h490l-60 -306h-92l43 221h-398z" />
    <glyph glyph-name="registered" unicode="&#xae;" horiz-adv-x="537" 
d="M316 300q-57 0 -102.5 25.5t-72 70t-26.5 102.5t26.5 102.5t72 70t102.5 25.5t102.5 -25.5t72.5 -70t27 -102.5t-27 -102.5t-72.5 -70t-102.5 -25.5zM316 352q63 0 104 40.5t41 105.5q0 66 -41 106t-104 40q-62 0 -103 -40t-41 -106q0 -65 41 -105.5t103 -40.5zM295 471
v-67h-50v193h85q32 0 51 -17t19 -47q0 -40 -33 -55l36 -74h-54l-29 67h-25zM295 509h27q27 0 27 24q0 25 -27 25h-27v-49z" />
    <glyph glyph-name="degree" unicode="&#xb0;" horiz-adv-x="469" 
d="M267 338q-67 0 -109 41t-42 107q0 56 24 100t66 69t96 25q68 0 109.5 -41t41.5 -106q0 -57 -24 -101t-66.5 -69t-95.5 -25zM272 414q40 0 68.5 32t28.5 79q0 35 -20.5 57t-51.5 22q-41 0 -69 -32t-28 -78q0 -35 20 -57.5t52 -22.5z" />
    <glyph glyph-name="uni00B2" unicode="&#xb2;" horiz-adv-x="350" 
d="M353 437l-14 -70h-289l11 57l137 114q42 35 64 56t30 35.5t8 29.5q0 20 -14.5 32.5t-38.5 12.5q-55 0 -76 -57l-77 19q19 52 60 80t99 28q57 0 94.5 -31.5t37.5 -78.5q0 -29 -12 -54.5t-41 -54t-80 -66.5l-69 -52h170z" />
    <glyph glyph-name="uni00B3" unicode="&#xb3;" horiz-adv-x="350" 
d="M356 486q0 -38 -21.5 -66.5t-57.5 -44t-79 -15.5q-59 0 -95.5 23.5t-53.5 66.5l69 31q21 -50 80 -50q30 0 51.5 14t21.5 40q0 51 -74 51h-24l13 66h26q45 0 67 15.5t22 40.5q0 21 -16 33t-42 12q-28 0 -48 -13.5t-30 -33.5l-70 30q20 38 57 63t99 25t98.5 -30t36.5 -75
q0 -37 -23 -63t-59 -38q24 -12 38 -33t14 -49z" />
    <glyph glyph-name="acute" unicode="&#xb4;" horiz-adv-x="500" 
d="M241 577l77 147h117l-120 -147h-74z" />
    <glyph glyph-name="paragraph" unicode="&#xb6;" horiz-adv-x="661" 
d="M193 -185l88 452q-57 0 -100 26t-67 70.5t-24 99.5q0 54 23.5 102t63.5 85t90 58.5t104 21.5h289l-178 -915h-97l162 833h-95l-162 -833h-97z" />
    <glyph glyph-name="periodcentered" unicode="&#xb7;" horiz-adv-x="301" 
d="M160 262q-25 0 -43 17.5t-18 42.5q0 32 21.5 51.5t49.5 19.5q25 0 43 -17t18 -43q0 -32 -21.5 -51.5t-49.5 -19.5z" />
    <glyph glyph-name="cedilla" unicode="&#xb8;" horiz-adv-x="500" 
d="M282 -136q0 -44 -38 -70.5t-90 -26.5q-28 0 -52 7.5t-42 24.5l38 44q8 -6 23 -12t33 -6q22 0 38.5 10t16.5 27q0 28 -40 28q-16 0 -31 -6l-29 31l43 94h53l-26 -66q7 1 15 1q40 0 64 -21.5t24 -58.5z" />
    <glyph glyph-name="uni00B9" unicode="&#xb9;" horiz-adv-x="350" 
d="M337 767l-79 -400h-84l62 310l-89 -32l-22 67l144 55h68z" />
    <glyph glyph-name="ordmasculine" unicode="&#xba;" horiz-adv-x="380" 
d="M219 330q-63 0 -105.5 39t-42.5 107q0 54 23.5 99t65.5 71.5t99 26.5q63 0 105.5 -39.5t42.5 -106.5q0 -54 -23.5 -98.5t-65.5 -71.5t-99 -27zM226 394q44 0 73.5 37.5t29.5 90.5q0 39 -21 63t-56 24q-44 0 -73.5 -37.5t-29.5 -90.5q0 -39 21 -63t56 -24z" />
    <glyph glyph-name="guillemotright" unicode="&#xbb;" horiz-adv-x="587" 
d="M300 252l-175 -172h-119l180 177l-106 167h111zM550 252l-175 -172h-119l180 177l-106 167h111z" />
    <glyph glyph-name="onequarter" unicode="&#xbc;" horiz-adv-x="854" 
d="M703 680h114l-590 -680h-114zM799 81h-52l-16 -81h-79l16 81h-199l14 68l232 251h95l-49 -250h52zM571 150h111l30 153zM318 667l-79 -400h-84l62 310l-89 -32l-22 67l144 55h68z" />
    <glyph glyph-name="onehalf" unicode="&#xbd;" horiz-adv-x="854" 
d="M663 680h114l-590 -680h-114zM786 70l-14 -70h-289l11 57l137 114q42 35 64 56t30 35.5t8 29.5q0 20 -14.5 32.5t-38.5 12.5q-55 0 -76 -57l-77 19q19 52 60 80t99 28q57 0 94.5 -31.5t37.5 -78.5q0 -29 -12 -54.5t-41 -54t-80 -66.5l-69 -52h170zM318 667l-79 -400h-84
l62 310l-89 -32l-22 67l144 55h68z" />
    <glyph glyph-name="threequarters" unicode="&#xbe;" horiz-adv-x="854" 
d="M703 680h114l-590 -680h-114zM799 81h-52l-16 -81h-79l16 81h-199l14 68l232 251h95l-49 -250h52zM571 150h111l30 153zM337 386q0 -38 -21.5 -66.5t-57.5 -44t-79 -15.5q-59 0 -95.5 23.5t-53.5 66.5l69 31q21 -50 80 -50q30 0 51.5 14t21.5 40q0 51 -74 51h-24l13 66
h26q45 0 67 15.5t22 40.5q0 21 -16 33t-42 12q-28 0 -48 -13.5t-30 -33.5l-70 30q20 38 57 63t99 25t98.5 -30t36.5 -75q0 -37 -23 -63t-59 -38q24 -12 38 -33t14 -49z" />
    <glyph glyph-name="questiondown" unicode="&#xbf;" horiz-adv-x="476" 
d="M330 383q-26 0 -43.5 17.5t-17.5 42.5q0 30 20.5 50.5t50.5 20.5q26 0 43.5 -17t17.5 -43q0 -30 -20.5 -50.5t-50.5 -20.5zM396 -116q-48 -33 -103 -51t-107 -18q-58 0 -102.5 22t-69.5 61.5t-25 92.5q0 64 32.5 114t91 81t137.5 39l23 100h89l-31 -178h-12
q-107 0 -168 -38t-61 -107q0 -48 29 -74.5t82 -26.5q35 0 76 14t76 39z" />
    <glyph glyph-name="Agrave" unicode="&#xc0;" horiz-adv-x="687" 
d="M518 0l-31 171h-308l-99 -171h-105l401 680h107l131 -680h-96zM229 256h242l-58 318zM385 734l-92 129h107l49 -129h-64z" />
    <glyph glyph-name="Aacute" unicode="&#xc1;" horiz-adv-x="687" 
d="M518 0l-31 171h-308l-99 -171h-105l401 680h107l131 -680h-96zM229 256h242l-58 318zM393 734l74 129h116l-117 -129h-73z" />
    <glyph glyph-name="Acircumflex" unicode="&#xc2;" horiz-adv-x="687" 
d="M518 0l-31 171h-308l-99 -171h-105l401 680h107l131 -680h-96zM229 256h242l-58 318zM515 734l-58 64l-84 -64h-93l145 129h82l93 -129h-85z" />
    <glyph glyph-name="Atilde" unicode="&#xc3;" horiz-adv-x="687" 
d="M518 0l-31 171h-308l-99 -171h-105l401 680h107l131 -680h-96zM229 256h242l-58 318zM525 725q-23 0 -44 9t-46 30q-16 14 -27 21.5t-23 7.5q-16 0 -27 -15.5t-12 -43.5l-77 10q2 58 30.5 91.5t75.5 33.5q23 0 44 -9t46 -30q16 -14 27 -21.5t23 -7.5q16 0 27 15.5
t12 43.5l77 -10q-2 -58 -30.5 -91.5t-75.5 -33.5z" />
    <glyph glyph-name="Adieresis" unicode="&#xc4;" horiz-adv-x="687" 
d="M518 0l-31 171h-308l-99 -171h-105l401 680h107l131 -680h-96zM229 256h242l-58 318zM332 736q-25 0 -40 14.5t-15 36.5q0 30 20.5 50.5t48.5 20.5q25 0 40 -14.5t15 -36.5q0 -30 -20.5 -50.5t-48.5 -20.5zM558 736q-25 0 -40 14.5t-15 36.5q0 30 20.5 50.5t48.5 20.5
q25 0 40 -14.5t15 -36.5q0 -30 -20.5 -50.5t-48.5 -20.5z" />
    <glyph glyph-name="Aring" unicode="&#xc5;" horiz-adv-x="687" 
d="M518 0l-31 171h-308l-99 -171h-105l401 680h107l131 -680h-96zM229 256h242l-58 318zM427 623q-47 0 -79 29.5t-32 75.5q0 40 18.5 71t50 49t70.5 18q47 0 79 -29t32 -75q0 -40 -18.5 -71.5t-50 -49.5t-70.5 -18zM433 684q27 0 45.5 21t18.5 50q0 21 -13.5 35t-34.5 14
q-27 0 -45.5 -20.5t-18.5 -48.5q0 -22 13.5 -36.5t34.5 -14.5z" />
    <glyph glyph-name="AE" unicode="&#xc6;" horiz-adv-x="904" 
d="M-55 0l521 680h470l-16 -85h-303l-40 -210h265l-17 -85h-265l-42 -215h311l-17 -85h-413l33 171h-234l-131 -171h-122zM263 256h186l63 324z" />
    <glyph glyph-name="Ccedilla" unicode="&#xc7;" horiz-adv-x="670" 
d="M355 -10q-88 0 -153.5 37t-102 105t-36.5 161q0 78 27 150t76 128t117 88.5t150 32.5q91 0 154 -33t98 -80l-71 -61q-32 38 -78 62t-104 24q-78 0 -138.5 -41.5t-95 -112t-34.5 -157.5q0 -101 52 -158t145 -57q51 0 99 20.5t87 66.5l66 -57q-43 -56 -109 -87t-149 -31z
M454 -136q0 -44 -38 -70.5t-90 -26.5q-28 0 -52 7.5t-42 24.5l38 44q8 -6 23 -12t33 -6q22 0 38.5 10t16.5 27q0 28 -40 28q-16 0 -31 -6l-29 31l43 94h53l-26 -66q7 1 15 1q40 0 64 -21.5t24 -58.5z" />
    <glyph glyph-name="Egrave" unicode="&#xc8;" horiz-adv-x="567" 
d="M39 0l135 680h428l-17 -85h-327l-41 -210h288l-18 -85h-288l-42 -215h335l-17 -85h-436zM348 734l-92 129h107l49 -129h-64z" />
    <glyph glyph-name="Eacute" unicode="&#xc9;" horiz-adv-x="567" 
d="M39 0l135 680h428l-17 -85h-327l-41 -210h288l-18 -85h-288l-42 -215h335l-17 -85h-436zM356 734l74 129h116l-117 -129h-73z" />
    <glyph glyph-name="Ecircumflex" unicode="&#xca;" horiz-adv-x="567" 
d="M39 0l135 680h428l-17 -85h-327l-41 -210h288l-18 -85h-288l-42 -215h335l-17 -85h-436zM478 734l-58 64l-84 -64h-93l145 129h82l93 -129h-85z" />
    <glyph glyph-name="Edieresis" unicode="&#xcb;" horiz-adv-x="567" 
d="M39 0l135 680h428l-17 -85h-327l-41 -210h288l-18 -85h-288l-42 -215h335l-17 -85h-436zM295 736q-25 0 -40 14.5t-15 36.5q0 30 20.5 50.5t48.5 20.5q25 0 40 -14.5t15 -36.5q0 -30 -20.5 -50.5t-48.5 -20.5zM521 736q-25 0 -40 14.5t-15 36.5q0 30 20.5 50.5t48.5 20.5
q25 0 40 -14.5t15 -36.5q0 -30 -20.5 -50.5t-48.5 -20.5z" />
    <glyph glyph-name="Igrave" unicode="&#xcc;" horiz-adv-x="278" 
d="M39 0l135 680h99l-135 -680h-99zM181 734l-92 129h107l49 -129h-64z" />
    <glyph glyph-name="Iacute" unicode="&#xcd;" horiz-adv-x="278" 
d="M39 0l135 680h99l-135 -680h-99zM189 734l74 129h116l-117 -129h-73z" />
    <glyph glyph-name="Icircumflex" unicode="&#xce;" horiz-adv-x="278" 
d="M39 0l135 680h99l-135 -680h-99zM311 734l-58 64l-84 -64h-93l145 129h82l93 -129h-85z" />
    <glyph glyph-name="Idieresis" unicode="&#xcf;" horiz-adv-x="278" 
d="M39 0l135 680h99l-135 -680h-99zM128 736q-25 0 -40 14.5t-15 36.5q0 30 20.5 50.5t48.5 20.5q25 0 40 -14.5t15 -36.5q0 -30 -20.5 -50.5t-48.5 -20.5zM354 736q-25 0 -40 14.5t-15 36.5q0 30 20.5 50.5t48.5 20.5q25 0 40 -14.5t15 -36.5q0 -30 -20.5 -50.5
t-48.5 -20.5z" />
    <glyph glyph-name="Eth" unicode="&#xd0;" horiz-adv-x="760" 
d="M733 398q0 -85 -28.5 -157.5t-82 -126.5t-129 -84t-170.5 -30h-227l60 302h-103l17 87h103l58 291h226q92 0 153.5 -38t92 -102t30.5 -142zM212 85h127q87 0 152.5 39.5t102 109.5t36.5 164q0 90 -48 143.5t-141 53.5h-128l-41 -206h172l-17 -87h-172z" />
    <glyph glyph-name="Ntilde" unicode="&#xd1;" horiz-adv-x="719" 
d="M487 0l-250 529l-105 -529h-93l135 680h92l250 -529l105 529h93l-135 -680h-92zM537 725q-23 0 -44 9t-46 30q-16 14 -27 21.5t-23 7.5q-16 0 -27 -15.5t-12 -43.5l-77 10q2 58 30.5 91.5t75.5 33.5q23 0 44 -9t46 -30q16 -14 27 -21.5t23 -7.5q16 0 27 15.5t12 43.5
l77 -10q-2 -58 -30.5 -91.5t-75.5 -33.5z" />
    <glyph glyph-name="Ograve" unicode="&#xd2;" horiz-adv-x="754" 
d="M355 -11q-89 0 -154.5 38t-101.5 106.5t-36 159.5q0 78 27 149.5t76 127.5t117 88.5t150 32.5q89 0 154.5 -38t101.5 -106.5t36 -159.5q0 -78 -27 -149.5t-76 -127.5t-117 -88.5t-150 -32.5zM361 77q75 0 134.5 41t94 111.5t34.5 157.5q0 99 -53 157.5t-144 58.5
q-75 0 -134.5 -41t-94 -111.5t-34.5 -157.5q0 -99 53 -157.5t144 -58.5zM390 734l-92 129h107l49 -129h-64z" />
    <glyph glyph-name="Oacute" unicode="&#xd3;" horiz-adv-x="754" 
d="M355 -11q-89 0 -154.5 38t-101.5 106.5t-36 159.5q0 78 27 149.5t76 127.5t117 88.5t150 32.5q89 0 154.5 -38t101.5 -106.5t36 -159.5q0 -78 -27 -149.5t-76 -127.5t-117 -88.5t-150 -32.5zM361 77q75 0 134.5 41t94 111.5t34.5 157.5q0 99 -53 157.5t-144 58.5
q-75 0 -134.5 -41t-94 -111.5t-34.5 -157.5q0 -99 53 -157.5t144 -58.5zM398 734l74 129h116l-117 -129h-73z" />
    <glyph glyph-name="Ocircumflex" unicode="&#xd4;" horiz-adv-x="754" 
d="M355 -11q-89 0 -154.5 38t-101.5 106.5t-36 159.5q0 78 27 149.5t76 127.5t117 88.5t150 32.5q89 0 154.5 -38t101.5 -106.5t36 -159.5q0 -78 -27 -149.5t-76 -127.5t-117 -88.5t-150 -32.5zM361 77q75 0 134.5 41t94 111.5t34.5 157.5q0 99 -53 157.5t-144 58.5
q-75 0 -134.5 -41t-94 -111.5t-34.5 -157.5q0 -99 53 -157.5t144 -58.5zM520 734l-58 64l-84 -64h-93l145 129h82l93 -129h-85z" />
    <glyph glyph-name="Otilde" unicode="&#xd5;" horiz-adv-x="754" 
d="M355 -11q-89 0 -154.5 38t-101.5 106.5t-36 159.5q0 78 27 149.5t76 127.5t117 88.5t150 32.5q89 0 154.5 -38t101.5 -106.5t36 -159.5q0 -78 -27 -149.5t-76 -127.5t-117 -88.5t-150 -32.5zM361 77q75 0 134.5 41t94 111.5t34.5 157.5q0 99 -53 157.5t-144 58.5
q-75 0 -134.5 -41t-94 -111.5t-34.5 -157.5q0 -99 53 -157.5t144 -58.5zM530 725q-23 0 -44 9t-46 30q-16 14 -27 21.5t-23 7.5q-16 0 -27 -15.5t-12 -43.5l-77 10q2 58 30.5 91.5t75.5 33.5q23 0 44 -9t46 -30q16 -14 27 -21.5t23 -7.5q16 0 27 15.5t12 43.5l77 -10
q-2 -58 -30.5 -91.5t-75.5 -33.5z" />
    <glyph glyph-name="Odieresis" unicode="&#xd6;" horiz-adv-x="754" 
d="M355 -11q-89 0 -154.5 38t-101.5 106.5t-36 159.5q0 78 27 149.5t76 127.5t117 88.5t150 32.5q89 0 154.5 -38t101.5 -106.5t36 -159.5q0 -78 -27 -149.5t-76 -127.5t-117 -88.5t-150 -32.5zM361 77q75 0 134.5 41t94 111.5t34.5 157.5q0 99 -53 157.5t-144 58.5
q-75 0 -134.5 -41t-94 -111.5t-34.5 -157.5q0 -99 53 -157.5t144 -58.5zM337 736q-25 0 -40 14.5t-15 36.5q0 30 20.5 50.5t48.5 20.5q25 0 40 -14.5t15 -36.5q0 -30 -20.5 -50.5t-48.5 -20.5zM563 736q-25 0 -40 14.5t-15 36.5q0 30 20.5 50.5t48.5 20.5q25 0 40 -14.5
t15 -36.5q0 -30 -20.5 -50.5t-48.5 -20.5z" />
    <glyph glyph-name="multiply" unicode="&#xd7;" 
d="M498 167l-70 -61l-126 155l-186 -154l-55 69l185 154l-128 158l72 61l129 -159l192 159l57 -69l-194 -160z" />
    <glyph glyph-name="Oslash" unicode="&#xd8;" horiz-adv-x="754" 
d="M355 -11q-73 0 -133 27q-18 -27 -36 -53h-105q17 25 34.5 50.5t35.5 50.5q-42 40 -65 98.5t-23 130.5q0 79 27 150.5t76 127.5t117 88.5t150 32.5q73 0 133 -27q18 27 36 53h105q-17 -25 -34.5 -50.5t-35.5 -50.5q42 -40 65 -98.5t23 -130.5q0 -79 -27 -150.5t-76 -127.5
t-117 -88.5t-150 -32.5zM164 293q0 -89 44 -146l152 220l152 220q-38 17 -85 17q-75 0 -134.5 -41t-94 -111.5t-34.5 -158.5zM624 388q0 89 -44 146l-152 -220l-152 -220q38 -17 85 -17q75 0 134.5 41t94 111.5t34.5 158.5z" />
    <glyph glyph-name="Ugrave" unicode="&#xd9;" horiz-adv-x="696" 
d="M317 -12q-71 0 -126 25.5t-86.5 73t-31.5 113.5q0 22 2.5 47.5t9.5 57.5l75 375h98l-74 -375q-5 -26 -8 -49t-3 -42q0 -63 39.5 -100.5t112.5 -37.5q89 0 135 50t63 136l83 418h99l-87 -434q-26 -132 -100.5 -195t-200.5 -63zM387 734l-92 129h107l49 -129h-64z" />
    <glyph glyph-name="Uacute" unicode="&#xda;" horiz-adv-x="696" 
d="M317 -12q-71 0 -126 25.5t-86.5 73t-31.5 113.5q0 22 2.5 47.5t9.5 57.5l75 375h98l-74 -375q-5 -26 -8 -49t-3 -42q0 -63 39.5 -100.5t112.5 -37.5q89 0 135 50t63 136l83 418h99l-87 -434q-26 -132 -100.5 -195t-200.5 -63zM395 734l74 129h116l-117 -129h-73z" />
    <glyph glyph-name="Ucircumflex" unicode="&#xdb;" horiz-adv-x="696" 
d="M317 -12q-71 0 -126 25.5t-86.5 73t-31.5 113.5q0 22 2.5 47.5t9.5 57.5l75 375h98l-74 -375q-5 -26 -8 -49t-3 -42q0 -63 39.5 -100.5t112.5 -37.5q89 0 135 50t63 136l83 418h99l-87 -434q-26 -132 -100.5 -195t-200.5 -63zM517 734l-58 64l-84 -64h-93l145 129h82
l93 -129h-85z" />
    <glyph glyph-name="Udieresis" unicode="&#xdc;" horiz-adv-x="696" 
d="M317 -12q-71 0 -126 25.5t-86.5 73t-31.5 113.5q0 22 2.5 47.5t9.5 57.5l75 375h98l-74 -375q-5 -26 -8 -49t-3 -42q0 -63 39.5 -100.5t112.5 -37.5q89 0 135 50t63 136l83 418h99l-87 -434q-26 -132 -100.5 -195t-200.5 -63zM334 736q-25 0 -40 14.5t-15 36.5
q0 30 20.5 50.5t48.5 20.5q25 0 40 -14.5t15 -36.5q0 -30 -20.5 -50.5t-48.5 -20.5zM560 736q-25 0 -40 14.5t-15 36.5q0 30 20.5 50.5t48.5 20.5q25 0 40 -14.5t15 -36.5q0 -30 -20.5 -50.5t-48.5 -20.5z" />
    <glyph glyph-name="Yacute" unicode="&#xdd;" horiz-adv-x="606" 
d="M355 270l-53 -270h-99l53 270l-153 410h110l106 -316l231 316h119zM350 734l74 129h116l-117 -129h-73z" />
    <glyph glyph-name="Thorn" unicode="&#xde;" horiz-adv-x="606" 
d="M39 0l135 680h97l-26 -133h132q101 0 156 -47.5t55 -129.5q0 -73 -36.5 -126t-101.5 -82t-150 -29h-135l-27 -133h-99zM181 216h134q77 0 124.5 40t47.5 106q0 46 -32 73t-91 27h-134z" />
    <glyph glyph-name="germandbls" unicode="&#xdf;" horiz-adv-x="614" 
d="M463 225q0 55 -46 84.5t-133 29.5l15 73q46 0 83 21t58.5 57t21.5 80q0 39 -23.5 62t-63.5 23q-55 0 -94 -34.5t-50 -89.5l-140 -716h-97l144 734q18 90 85 140.5t170 50.5q77 0 124.5 -43t47.5 -112q0 -65 -35 -117.5t-93 -83.5q59 -17 92.5 -56t33.5 -96
q0 -116 -73 -179t-202 -63q-64 0 -114 24l34 78q38 -20 87 -20q79 0 123.5 40.5t44.5 112.5z" />
    <glyph glyph-name="agrave" unicode="&#xe0;" horiz-adv-x="629" 
d="M417 0l8 80q-32 -41 -78 -65.5t-101 -24.5q-53 0 -99.5 26t-75 74.5t-28.5 117.5q0 62 22 117.5t60.5 98t88 66.5t104.5 24q52 0 99.5 -25.5t73.5 -71.5l24 87h85l-99 -504h-84zM269 73q52 0 95 30t68.5 79.5t25.5 109.5q0 66 -37.5 102.5t-91.5 36.5q-52 0 -95 -30
t-68.5 -79.5t-25.5 -109.5q0 -66 37.5 -102.5t91.5 -36.5zM310 577l-107 147h116l64 -147h-73z" />
    <glyph glyph-name="aacute" unicode="&#xe1;" horiz-adv-x="629" 
d="M417 0l8 80q-32 -41 -78 -65.5t-101 -24.5q-53 0 -99.5 26t-75 74.5t-28.5 117.5q0 62 22 117.5t60.5 98t88 66.5t104.5 24q52 0 99.5 -25.5t73.5 -71.5l24 87h85l-99 -504h-84zM269 73q52 0 95 30t68.5 79.5t25.5 109.5q0 66 -37.5 102.5t-91.5 36.5q-52 0 -95 -30
t-68.5 -79.5t-25.5 -109.5q0 -66 37.5 -102.5t91.5 -36.5zM325 577l77 147h117l-120 -147h-74z" />
    <glyph glyph-name="acircumflex" unicode="&#xe2;" horiz-adv-x="629" 
d="M417 0l8 80q-32 -41 -78 -65.5t-101 -24.5q-53 0 -99.5 26t-75 74.5t-28.5 117.5q0 62 22 117.5t60.5 98t88 66.5t104.5 24q52 0 99.5 -25.5t73.5 -71.5l24 87h85l-99 -504h-84zM269 73q52 0 95 30t68.5 79.5t25.5 109.5q0 66 -37.5 102.5t-91.5 36.5q-52 0 -95 -30
t-68.5 -79.5t-25.5 -109.5q0 -66 37.5 -102.5t91.5 -36.5zM438 577l-61 71l-89 -71h-85l143 147h82l85 -147h-75z" />
    <glyph glyph-name="atilde" unicode="&#xe3;" horiz-adv-x="629" 
d="M417 0l8 80q-32 -41 -78 -65.5t-101 -24.5q-53 0 -99.5 26t-75 74.5t-28.5 117.5q0 62 22 117.5t60.5 98t88 66.5t104.5 24q52 0 99.5 -25.5t73.5 -71.5l24 87h85l-99 -504h-84zM269 73q52 0 95 30t68.5 79.5t25.5 109.5q0 66 -37.5 102.5t-91.5 36.5q-52 0 -95 -30
t-68.5 -79.5t-25.5 -109.5q0 -66 37.5 -102.5t91.5 -36.5zM447 579q-23 0 -44 9t-46 30q-16 14 -27 21.5t-23 7.5q-16 0 -27 -15.5t-12 -43.5l-77 10q2 58 30.5 91.5t75.5 33.5q23 0 44 -9t46 -30q16 -14 27 -21.5t23 -7.5q16 0 27 15.5t12 43.5l77 -10q-2 -58 -30.5 -91.5
t-75.5 -33.5z" />
    <glyph glyph-name="adieresis" unicode="&#xe4;" horiz-adv-x="629" 
d="M417 0l8 80q-32 -41 -78 -65.5t-101 -24.5q-53 0 -99.5 26t-75 74.5t-28.5 117.5q0 62 22 117.5t60.5 98t88 66.5t104.5 24q52 0 99.5 -25.5t73.5 -71.5l24 87h85l-99 -504h-84zM269 73q52 0 95 30t68.5 79.5t25.5 109.5q0 66 -37.5 102.5t-91.5 36.5q-52 0 -95 -30
t-68.5 -79.5t-25.5 -109.5q0 -66 37.5 -102.5t91.5 -36.5zM255 603q-25 0 -40 14.5t-15 36.5q0 30 20.5 50.5t48.5 20.5q25 0 40 -14.5t15 -36.5q0 -30 -20.5 -50.5t-48.5 -20.5zM481 603q-25 0 -40 14.5t-15 36.5q0 30 20.5 50.5t48.5 20.5q25 0 40 -14.5t15 -36.5
q0 -30 -20.5 -50.5t-48.5 -20.5z" />
    <glyph glyph-name="aring" unicode="&#xe5;" horiz-adv-x="629" 
d="M417 0l8 80q-32 -41 -78 -65.5t-101 -24.5q-53 0 -99.5 26t-75 74.5t-28.5 117.5q0 62 22 117.5t60.5 98t88 66.5t104.5 24q52 0 99.5 -25.5t73.5 -71.5l24 87h85l-99 -504h-84zM269 73q52 0 95 30t68.5 79.5t25.5 109.5q0 66 -37.5 102.5t-91.5 36.5q-52 0 -95 -30
t-68.5 -79.5t-25.5 -109.5q0 -66 37.5 -102.5t91.5 -36.5zM357 564q-47 0 -77.5 29t-30.5 76q0 60 39 99t97 39q47 0 77.5 -29t30.5 -75q0 -61 -39 -100t-97 -39zM363 625q27 0 45.5 21t18.5 50q0 21 -13.5 35t-34.5 14q-27 0 -45.5 -20.5t-18.5 -48.5q0 -22 13.5 -36.5
t34.5 -14.5z" />
    <glyph glyph-name="ae" unicode="&#xe6;" horiz-adv-x="1032" 
d="M940 67q-38 -33 -93.5 -55t-120.5 -22q-68 0 -122 29.5t-83 82.5l-20 -102h-84l8 80q-32 -41 -78 -65.5t-101 -24.5q-53 0 -99.5 26t-75 74.5t-28.5 117.5q0 62 22 117.5t60.5 98t88 66.5t104.5 24q52 0 99.5 -25.5t73.5 -71.5l24 87h85l-13 -68q38 36 88.5 57t110.5 21
q64 0 110.5 -25.5t72 -70t25.5 -100.5q0 -25 -4 -50.5t-9 -45.5h-391v-12q0 -42 19.5 -72.5t52 -47.5t70.5 -17q44 0 82 15t74 45zM269 73q52 0 95 30t68.5 79.5t25.5 109.5q0 66 -37.5 102.5t-91.5 36.5q-52 0 -95 -30t-68.5 -79.5t-25.5 -109.5q0 -66 37.5 -102.5
t91.5 -36.5zM779 431q-57 0 -105.5 -36t-69.5 -99h292q1 12 1 24q0 52 -32.5 81.5t-85.5 29.5z" />
    <glyph glyph-name="ccedilla" unicode="&#xe7;" horiz-adv-x="513" 
d="M265 -11q-58 0 -108 26.5t-81 77t-31 121.5q0 63 21.5 117.5t60.5 95.5t90.5 64t111.5 23q71 0 118.5 -28t74.5 -65l-71 -58q-23 31 -53.5 48.5t-72.5 17.5q-47 0 -88 -26.5t-67 -75.5t-26 -117q0 -60 36.5 -98t89.5 -38q38 0 67 14t57 48l67 -55q-33 -43 -82 -67.5
t-114 -24.5zM358 -136q0 -44 -38 -70.5t-90 -26.5q-28 0 -52 7.5t-42 24.5l38 44q8 -6 23 -12t33 -6q22 0 38.5 10t16.5 27q0 28 -40 28q-16 0 -31 -6l-29 31l43 94h53l-26 -66q7 1 15 1q40 0 64 -21.5t24 -58.5z" />
    <glyph glyph-name="egrave" unicode="&#xe8;" horiz-adv-x="582" 
d="M490 67q-38 -33 -93.5 -55t-120.5 -22q-66 0 -118.5 27.5t-83 77t-30.5 116.5q0 62 21 116.5t60 96.5t92.5 66t118.5 24q64 0 110.5 -25.5t72 -70t25.5 -100.5q0 -25 -4 -50.5t-9 -45.5h-391v-12q0 -42 19.5 -72.5t52 -47.5t70.5 -17q44 0 82 15t74 45zM329 431
q-57 0 -105.5 -36t-69.5 -99h292q1 12 1 24q0 52 -32.5 81.5t-85.5 29.5zM307 577l-107 147h116l64 -147h-73z" />
    <glyph glyph-name="eacute" unicode="&#xe9;" horiz-adv-x="582" 
d="M490 67q-38 -33 -93.5 -55t-120.5 -22q-66 0 -118.5 27.5t-83 77t-30.5 116.5q0 62 21 116.5t60 96.5t92.5 66t118.5 24q64 0 110.5 -25.5t72 -70t25.5 -100.5q0 -25 -4 -50.5t-9 -45.5h-391v-12q0 -42 19.5 -72.5t52 -47.5t70.5 -17q44 0 82 15t74 45zM329 431
q-57 0 -105.5 -36t-69.5 -99h292q1 12 1 24q0 52 -32.5 81.5t-85.5 29.5zM322 577l77 147h117l-120 -147h-74z" />
    <glyph glyph-name="ecircumflex" unicode="&#xea;" horiz-adv-x="582" 
d="M490 67q-38 -33 -93.5 -55t-120.5 -22q-66 0 -118.5 27.5t-83 77t-30.5 116.5q0 62 21 116.5t60 96.5t92.5 66t118.5 24q64 0 110.5 -25.5t72 -70t25.5 -100.5q0 -25 -4 -50.5t-9 -45.5h-391v-12q0 -42 19.5 -72.5t52 -47.5t70.5 -17q44 0 82 15t74 45zM329 431
q-57 0 -105.5 -36t-69.5 -99h292q1 12 1 24q0 52 -32.5 81.5t-85.5 29.5zM435 577l-61 71l-89 -71h-85l143 147h82l85 -147h-75z" />
    <glyph glyph-name="edieresis" unicode="&#xeb;" horiz-adv-x="582" 
d="M490 67q-38 -33 -93.5 -55t-120.5 -22q-66 0 -118.5 27.5t-83 77t-30.5 116.5q0 62 21 116.5t60 96.5t92.5 66t118.5 24q64 0 110.5 -25.5t72 -70t25.5 -100.5q0 -25 -4 -50.5t-9 -45.5h-391v-12q0 -42 19.5 -72.5t52 -47.5t70.5 -17q44 0 82 15t74 45zM329 431
q-57 0 -105.5 -36t-69.5 -99h292q1 12 1 24q0 52 -32.5 81.5t-85.5 29.5zM252 603q-25 0 -40 14.5t-15 36.5q0 30 20.5 50.5t48.5 20.5q25 0 40 -14.5t15 -36.5q0 -30 -20.5 -50.5t-48.5 -20.5zM478 603q-25 0 -40 14.5t-15 36.5q0 30 20.5 50.5t48.5 20.5q25 0 40 -14.5
t15 -36.5q0 -30 -20.5 -50.5t-48.5 -20.5z" />
    <glyph glyph-name="igrave" unicode="&#xec;" horiz-adv-x="253" 
d="M30 0l98 504h95l-98 -504h-95zM143 577l-107 147h116l64 -147h-73z" />
    <glyph glyph-name="iacute" unicode="&#xed;" horiz-adv-x="253" 
d="M30 0l98 504h95l-98 -504h-95zM158 577l77 147h117l-120 -147h-74z" />
    <glyph glyph-name="icircumflex" unicode="&#xee;" horiz-adv-x="253" 
d="M30 0l98 504h95l-98 -504h-95zM271 577l-61 71l-89 -71h-85l143 147h82l85 -147h-75z" />
    <glyph glyph-name="idieresis" unicode="&#xef;" horiz-adv-x="253" 
d="M30 0l98 504h95l-98 -504h-95zM88 603q-25 0 -40 14.5t-15 36.5q0 30 20.5 50.5t48.5 20.5q25 0 40 -14.5t15 -36.5q0 -30 -20.5 -50.5t-48.5 -20.5zM314 603q-25 0 -40 14.5t-15 36.5q0 30 20.5 50.5t48.5 20.5q25 0 40 -14.5t15 -36.5q0 -30 -20.5 -50.5t-48.5 -20.5z
" />
    <glyph glyph-name="eth" unicode="&#xf0;" horiz-adv-x="598" 
d="M554 374q0 -182 -82 -283t-231 -101q-60 0 -105.5 25t-70.5 69t-25 103q0 85 35.5 149.5t99 101t145.5 36.5q89 0 141 -67v13q0 35 -7 66.5t-23 65.5l-143 -35l-5 67l113 28q-12 19 -26.5 39t-32.5 43l73 54q48 -57 79 -113l137 34l5 -67l-113 -28q36 -91 36 -200z
M258 73q50 0 91 25t64.5 68.5t23.5 96.5q0 59 -32.5 93.5t-85.5 34.5q-51 0 -92 -25t-65 -68t-24 -97q0 -58 32.5 -93t87.5 -35z" />
    <glyph glyph-name="ntilde" unicode="&#xf1;" horiz-adv-x="586" 
d="M175 258l-50 -258h-95l99 504h82l-7 -75q31 39 77 62t97 23q69 0 112.5 -45t43.5 -115q0 -14 -2 -30t-5 -32l-57 -292h-95l57 289q2 12 4 25t2 24q0 41 -24.5 66t-68.5 25q-36 0 -71 -19t-61.5 -57t-37.5 -95zM440 579q-23 0 -44 9t-46 30q-16 14 -27 21.5t-23 7.5
q-16 0 -27 -15.5t-12 -43.5l-77 10q2 58 30.5 91.5t75.5 33.5q23 0 44 -9t46 -30q16 -14 27 -21.5t23 -7.5q16 0 27 15.5t12 43.5l77 -10q-2 -58 -30.5 -91.5t-75.5 -33.5z" />
    <glyph glyph-name="ograve" unicode="&#xf2;" horiz-adv-x="607" 
d="M274 -10q-64 0 -116 27.5t-82.5 78t-30.5 120.5q0 80 35 147.5t99.5 109t153.5 41.5q65 0 116.5 -27.5t82 -78t30.5 -120.5q0 -80 -35 -147.5t-100 -109t-153 -41.5zM283 73q52 0 93 28.5t65 76t24 103.5q0 66 -38.5 108t-102.5 42q-52 0 -93 -28.5t-65 -76t-24 -103.5
q0 -66 38.5 -108t102.5 -42zM300 577l-107 147h116l64 -147h-73z" />
    <glyph glyph-name="oacute" unicode="&#xf3;" horiz-adv-x="607" 
d="M274 -10q-64 0 -116 27.5t-82.5 78t-30.5 120.5q0 80 35 147.5t99.5 109t153.5 41.5q65 0 116.5 -27.5t82 -78t30.5 -120.5q0 -80 -35 -147.5t-100 -109t-153 -41.5zM283 73q52 0 93 28.5t65 76t24 103.5q0 66 -38.5 108t-102.5 42q-52 0 -93 -28.5t-65 -76t-24 -103.5
q0 -66 38.5 -108t102.5 -42zM315 577l77 147h117l-120 -147h-74z" />
    <glyph glyph-name="ocircumflex" unicode="&#xf4;" horiz-adv-x="607" 
d="M274 -10q-64 0 -116 27.5t-82.5 78t-30.5 120.5q0 80 35 147.5t99.5 109t153.5 41.5q65 0 116.5 -27.5t82 -78t30.5 -120.5q0 -80 -35 -147.5t-100 -109t-153 -41.5zM283 73q52 0 93 28.5t65 76t24 103.5q0 66 -38.5 108t-102.5 42q-52 0 -93 -28.5t-65 -76t-24 -103.5
q0 -66 38.5 -108t102.5 -42zM428 577l-61 71l-89 -71h-85l143 147h82l85 -147h-75z" />
    <glyph glyph-name="otilde" unicode="&#xf5;" horiz-adv-x="607" 
d="M274 -10q-64 0 -116 27.5t-82.5 78t-30.5 120.5q0 80 35 147.5t99.5 109t153.5 41.5q65 0 116.5 -27.5t82 -78t30.5 -120.5q0 -80 -35 -147.5t-100 -109t-153 -41.5zM283 73q52 0 93 28.5t65 76t24 103.5q0 66 -38.5 108t-102.5 42q-52 0 -93 -28.5t-65 -76t-24 -103.5
q0 -66 38.5 -108t102.5 -42zM437 579q-23 0 -44 9t-46 30q-16 14 -27 21.5t-23 7.5q-16 0 -27 -15.5t-12 -43.5l-77 10q2 58 30.5 91.5t75.5 33.5q23 0 44 -9t46 -30q16 -14 27 -21.5t23 -7.5q16 0 27 15.5t12 43.5l77 -10q-2 -58 -30.5 -91.5t-75.5 -33.5z" />
    <glyph glyph-name="odieresis" unicode="&#xf6;" horiz-adv-x="607" 
d="M274 -10q-64 0 -116 27.5t-82.5 78t-30.5 120.5q0 80 35 147.5t99.5 109t153.5 41.5q65 0 116.5 -27.5t82 -78t30.5 -120.5q0 -80 -35 -147.5t-100 -109t-153 -41.5zM283 73q52 0 93 28.5t65 76t24 103.5q0 66 -38.5 108t-102.5 42q-52 0 -93 -28.5t-65 -76t-24 -103.5
q0 -66 38.5 -108t102.5 -42zM245 603q-25 0 -40 14.5t-15 36.5q0 30 20.5 50.5t48.5 20.5q25 0 40 -14.5t15 -36.5q0 -30 -20.5 -50.5t-48.5 -20.5zM471 603q-25 0 -40 14.5t-15 36.5q0 30 20.5 50.5t48.5 20.5q25 0 40 -14.5t15 -36.5q0 -30 -20.5 -50.5t-48.5 -20.5z" />
    <glyph glyph-name="divide" unicode="&#xf7;" 
d="M345 453q-25 0 -43 17.5t-18 42.5q0 32 21.5 51.5t49.5 19.5q25 0 43 -17t18 -43q0 -32 -21.5 -51.5t-49.5 -19.5zM78 289l16 85h450l-16 -85h-450zM272 70q-26 0 -43.5 17t-17.5 43q0 32 21.5 51.5t49.5 19.5q26 0 43.5 -17.5t17.5 -42.5q0 -32 -21.5 -51.5t-49.5 -19.5
z" />
    <glyph glyph-name="oslash" unicode="&#xf8;" horiz-adv-x="607" 
d="M274 -10q-50 0 -93 17q-21 -31 -41 -61h-95q37 53 71 101q-34 30 -52.5 73t-18.5 96q0 86 37.5 153t102.5 106t148 39q51 0 94 -17q20 30 40 59h95q-37 -53 -70 -100q33 -30 51.5 -73t18.5 -95q0 -86 -37.5 -153t-103 -106t-147.5 -39zM142 223q0 -57 29 -97
q120 173 205 296q-24 9 -52 9q-50 0 -91.5 -28t-66 -75.5t-24.5 -104.5zM465 281q0 56 -28 96q-120 -172 -205 -296q24 -8 51 -8q51 0 92 28t65.5 75.5t24.5 104.5z" />
    <glyph glyph-name="ugrave" unicode="&#xf9;" horiz-adv-x="573" 
d="M360 0l7 74q-27 -39 -66 -61.5t-86 -22.5t-84 20.5t-58 57t-21 83.5q0 25 5 52l59 301h95l-59 -301q-2 -8 -3 -17.5t-1 -18.5q0 -43 25 -67.5t68 -24.5q50 0 95 45.5t61 124.5l51 259h95l-99 -504h-84zM295 577l-107 147h116l64 -147h-73z" />
    <glyph glyph-name="uacute" unicode="&#xfa;" horiz-adv-x="573" 
d="M360 0l7 74q-27 -39 -66 -61.5t-86 -22.5t-84 20.5t-58 57t-21 83.5q0 25 5 52l59 301h95l-59 -301q-2 -8 -3 -17.5t-1 -18.5q0 -43 25 -67.5t68 -24.5q50 0 95 45.5t61 124.5l51 259h95l-99 -504h-84zM310 577l77 147h117l-120 -147h-74z" />
    <glyph glyph-name="ucircumflex" unicode="&#xfb;" horiz-adv-x="573" 
d="M360 0l7 74q-27 -39 -66 -61.5t-86 -22.5t-84 20.5t-58 57t-21 83.5q0 25 5 52l59 301h95l-59 -301q-2 -8 -3 -17.5t-1 -18.5q0 -43 25 -67.5t68 -24.5q50 0 95 45.5t61 124.5l51 259h95l-99 -504h-84zM423 577l-61 71l-89 -71h-85l143 147h82l85 -147h-75z" />
    <glyph glyph-name="udieresis" unicode="&#xfc;" horiz-adv-x="573" 
d="M360 0l7 74q-27 -39 -66 -61.5t-86 -22.5t-84 20.5t-58 57t-21 83.5q0 25 5 52l59 301h95l-59 -301q-2 -8 -3 -17.5t-1 -18.5q0 -43 25 -67.5t68 -24.5q50 0 95 45.5t61 124.5l51 259h95l-99 -504h-84zM240 603q-25 0 -40 14.5t-15 36.5q0 30 20.5 50.5t48.5 20.5
q25 0 40 -14.5t15 -36.5q0 -30 -20.5 -50.5t-48.5 -20.5zM466 603q-25 0 -40 14.5t-15 36.5q0 30 20.5 50.5t48.5 20.5q25 0 40 -14.5t15 -36.5q0 -30 -20.5 -50.5t-48.5 -20.5z" />
    <glyph glyph-name="yacute" unicode="&#xfd;" horiz-adv-x="556" 
d="M252 -47q-44 -74 -92 -109t-114 -35q-20 0 -41 5.5t-39 16.5l38 77q14 -8 27 -11t26 -3q55 0 98 66l36 57l-118 487h101l82 -377l215 377h109zM312 577l77 147h117l-120 -147h-74z" />
    <glyph glyph-name="thorn" unicode="&#xfe;" horiz-adv-x="630" 
d="M312 -10q-51 0 -98 25t-73 68l-52 -268h-95l179 915h94l-59 -302q32 39 77 62.5t99 23.5q53 0 99.5 -26t75 -74.5t28.5 -117.5q0 -62 -22 -117.5t-60.5 -98t-88 -66.5t-104.5 -24zM301 73q52 0 95 30t68.5 79.5t25.5 109.5q0 66 -37.5 102.5t-91.5 36.5q-52 0 -95 -30
t-68.5 -79.5t-25.5 -109.5q0 -66 37.5 -102.5t91.5 -36.5z" />
    <glyph glyph-name="ydieresis" unicode="&#xff;" horiz-adv-x="556" 
d="M252 -47q-44 -74 -92 -109t-114 -35q-20 0 -41 5.5t-39 16.5l38 77q14 -8 27 -11t26 -3q55 0 98 66l36 57l-118 487h101l82 -377l215 377h109zM242 603q-25 0 -40 14.5t-15 36.5q0 30 20.5 50.5t48.5 20.5q25 0 40 -14.5t15 -36.5q0 -30 -20.5 -50.5t-48.5 -20.5z
M468 603q-25 0 -40 14.5t-15 36.5q0 30 20.5 50.5t48.5 20.5q25 0 40 -14.5t15 -36.5q0 -30 -20.5 -50.5t-48.5 -20.5z" />
    <glyph glyph-name="Abreve" unicode="&#x102;" horiz-adv-x="687" 
d="M518 0l-31 171h-308l-99 -171h-105l401 680h107l131 -680h-96zM229 256h242l-58 318zM438 730q-60 0 -97.5 31t-37.5 82q0 13 3 26h70q-1 -4 -1.5 -7.5t-0.5 -7.5q0 -26 20 -42.5t54 -16.5q38 0 66.5 21t35.5 53h74q-12 -61 -62.5 -100t-123.5 -39z" />
    <glyph glyph-name="abreve" unicode="&#x103;" horiz-adv-x="629" 
d="M417 0l8 80q-32 -41 -78 -65.5t-101 -24.5q-53 0 -99.5 26t-75 74.5t-28.5 117.5q0 62 22 117.5t60.5 98t88 66.5t104.5 24q52 0 99.5 -25.5t73.5 -71.5l24 87h85l-99 -504h-84zM269 73q52 0 95 30t68.5 79.5t25.5 109.5q0 66 -37.5 102.5t-91.5 36.5q-52 0 -95 -30
t-68.5 -79.5t-25.5 -109.5q0 -66 37.5 -102.5t91.5 -36.5zM355 567q-58 0 -94.5 36t-36.5 94q0 18 4 33h69q-1 -6 -1.5 -12t-0.5 -11q0 -31 20 -50.5t51 -19.5q38 0 67.5 26.5t37.5 66.5h75q-14 -72 -64.5 -117.5t-126.5 -45.5z" />
    <glyph glyph-name="dotlessi" unicode="&#x131;" horiz-adv-x="253" 
d="M30 0l98 504h95l-98 -504h-95z" />
    <glyph glyph-name="IJ" unicode="&#x132;" horiz-adv-x="613" 
d="M298 -12q-84 0 -132 34t-71 87l85 40q18 -34 43.5 -53.5t73.5 -19.5q55 0 83 32t39 85l97 487h99l-97 -489q-20 -103 -75 -153t-145 -50zM67 213l92 467h99l-92 -467h-99z" />
    <glyph glyph-name="ij" unicode="&#x133;" horiz-adv-x="505" 
d="M152 627l16 82h345l-16 -82h-345zM203 -191q-46 0 -89 20l34 77q28 -12 56 -12q26 0 45 16.5t27 53.5l105 540h95l-105 -534q-16 -80 -56.5 -120.5t-111.5 -40.5zM31 0l98 504h95l-98 -504h-95z" />
    <glyph glyph-name="OE" unicode="&#x152;" horiz-adv-x="929" 
d="M63 293q0 77 27 146.5t76 123.5t117 85.5t150 31.5h528l-16 -85h-303l-40 -210h265l-17 -85h-265l-42 -215h311l-17 -85h-482q-89 0 -154.5 36.5t-101.5 102t-36 154.5zM361 88h80l98 504h-112q-75 0 -134.5 -39.5t-94 -107t-34.5 -152.5q0 -95 53 -150t144 -55z" />
    <glyph glyph-name="oe" unicode="&#x153;" horiz-adv-x="1014" 
d="M922 67q-38 -33 -93.5 -55t-120.5 -22q-68 0 -122 29.5t-83 82.5q-37 -51 -95.5 -81.5t-133.5 -30.5q-64 0 -116 27.5t-82.5 78t-30.5 120.5q0 80 35 147.5t99.5 109t153.5 41.5q67 0 121 -30t82 -85q39 52 98.5 83.5t133.5 31.5q64 0 110.5 -25.5t72 -70t25.5 -100.5
q0 -25 -4 -50.5t-9 -45.5h-391v-12q0 -42 19.5 -72.5t52 -47.5t70.5 -17q44 0 82 15t74 45zM283 73q52 0 93 28.5t65 76t24 103.5q0 66 -38.5 108t-102.5 42q-52 0 -93 -28.5t-65 -76t-24 -103.5q0 -66 38.5 -108t102.5 -42zM761 431q-57 0 -105.5 -36t-69.5 -99h292
q1 12 1 24q0 52 -32.5 81.5t-85.5 29.5z" />
    <glyph glyph-name="Scaron" unicode="&#x160;" horiz-adv-x="573" 
d="M270 -11q-80 0 -146 24t-116 74l59 72q44 -45 96.5 -64t111.5 -19q73 0 108.5 31t35.5 73q0 36 -21.5 63t-76.5 47l-70 26q-47 17 -84 39t-58.5 55.5t-21.5 82.5q0 51 26 96t81 73t141 28q83 0 144 -29t106 -73l-65 -65q-44 38 -89 59t-103 21q-68 0 -105.5 -29
t-37.5 -70q0 -38 24.5 -60t78.5 -41l71 -26q78 -29 118 -72.5t40 -112.5q0 -58 -30.5 -103.5t-86 -72.5t-130.5 -27zM531 868l-145 -129h-82l-93 129h85l58 -64l84 64h93z" />
    <glyph glyph-name="scaron" unicode="&#x161;" horiz-adv-x="478" 
d="M209 -12q-61 0 -113 23t-88 66l59 59q30 -33 65.5 -50.5t78.5 -17.5q47 0 78.5 18t31.5 52q0 47 -80 73l-40 13q-68 22 -99.5 55.5t-31.5 82.5q0 68 52 110t135 42q119 0 196 -85l-60 -59q-34 34 -66 49t-69 15q-44 0 -68.5 -16t-24.5 -44q0 -46 74 -71l38 -13
q71 -25 105 -59.5t34 -83.5t-27.5 -84.5t-74 -55t-105.5 -19.5zM463 730l-148 -158h-82l-87 158h75l63 -80l94 80h85z" />
    <glyph glyph-name="Wcircumflex" unicode="&#x174;" horiz-adv-x="949" 
d="M577 0l-44 540l-263 -540h-106l-45 680h97l30 -541l258 541h102l46 -541l240 541h104l-314 -680h-105zM642 734l-58 64l-84 -64h-93l145 129h82l93 -129h-85z" />
    <glyph glyph-name="wcircumflex" unicode="&#x175;" horiz-adv-x="772" 
d="M442 0l-34 378l-178 -378h-103l-49 504h93l29 -399l182 399h96l29 -400l183 400h103l-249 -504h-102zM531 577l-61 71l-89 -71h-85l143 147h82l85 -147h-75z" />
    <glyph glyph-name="Ycircumflex" unicode="&#x176;" horiz-adv-x="606" 
d="M355 270l-53 -270h-99l53 270l-153 410h110l106 -316l231 316h119zM472 734l-58 64l-84 -64h-93l145 129h82l93 -129h-85z" />
    <glyph glyph-name="ycircumflex" unicode="&#x177;" horiz-adv-x="556" 
d="M252 -47q-44 -74 -92 -109t-114 -35q-20 0 -41 5.5t-39 16.5l38 77q14 -8 27 -11t26 -3q55 0 98 66l36 57l-118 487h101l82 -377l215 377h109zM425 577l-61 71l-89 -71h-85l143 147h82l85 -147h-75z" />
    <glyph glyph-name="Ydieresis" unicode="&#x178;" horiz-adv-x="606" 
d="M355 270l-53 -270h-99l53 270l-153 410h110l106 -316l231 316h119zM289 736q-25 0 -40 14.5t-15 36.5q0 30 20.5 50.5t48.5 20.5q25 0 40 -14.5t15 -36.5q0 -30 -20.5 -50.5t-48.5 -20.5zM515 736q-25 0 -40 14.5t-15 36.5q0 30 20.5 50.5t48.5 20.5q25 0 40 -14.5
t15 -36.5q0 -30 -20.5 -50.5t-48.5 -20.5z" />
    <glyph glyph-name="Zcaron" unicode="&#x17d;" horiz-adv-x="583" 
d="M498 85l-17 -85h-489l15 75l475 520h-363l17 85h489l-15 -75l-475 -520h363zM582 868l-145 -129h-82l-93 129h85l58 -64l84 64h93z" />
    <glyph glyph-name="zcaron" unicode="&#x17e;" horiz-adv-x="485" 
d="M410 82l-16 -82h-404l14 71l341 351h-258l17 82h382l-14 -71l-341 -351h279zM492 730l-148 -158h-82l-87 158h75l63 -80l94 80h85z" />
    <glyph glyph-name="uni0218" unicode="&#x218;" horiz-adv-x="573" 
d="M270 -11q-80 0 -146 24t-116 74l59 72q44 -45 96.5 -64t111.5 -19q73 0 108.5 31t35.5 73q0 36 -21.5 63t-76.5 47l-70 26q-47 17 -84 39t-58.5 55.5t-21.5 82.5q0 51 26 96t81 73t141 28q83 0 144 -29t106 -73l-65 -65q-44 38 -89 59t-103 21q-68 0 -105.5 -29
t-37.5 -70q0 -38 24.5 -60t78.5 -41l71 -26q78 -29 118 -72.5t40 -112.5q0 -58 -30.5 -103.5t-86 -72.5t-130.5 -27zM311 -95q0 -27 -16.5 -58t-40.5 -63h-58q14 19 26.5 37t20.5 35q-19 2 -31 13t-12 30q0 25 17.5 42t44.5 17q20 0 34.5 -14.5t14.5 -38.5z" />
    <glyph glyph-name="uni0219" unicode="&#x219;" horiz-adv-x="478" 
d="M209 -12q-61 0 -113 23t-88 66l59 59q30 -33 65.5 -50.5t78.5 -17.5q47 0 78.5 18t31.5 52q0 47 -80 73l-40 13q-68 22 -99.5 55.5t-31.5 82.5q0 68 52 110t135 42q119 0 196 -85l-60 -59q-34 34 -66 49t-69 15q-44 0 -68.5 -16t-24.5 -44q0 -46 74 -71l38 -13
q71 -25 105 -59.5t34 -83.5t-27.5 -84.5t-74 -55t-105.5 -19.5zM255 -95q0 -27 -16.5 -58t-40.5 -63h-58q14 19 26.5 37t20.5 35q-19 2 -31 13t-12 30q0 25 17.5 42t44.5 17q20 0 34.5 -14.5t14.5 -38.5z" />
    <glyph glyph-name="uni021A" unicode="&#x21a;" horiz-adv-x="602" 
d="M195 0l118 595h-225l16 85h548l-16 -85h-224l-118 -595h-99zM285 -95q0 -27 -16.5 -58t-40.5 -63h-58q14 19 26.5 37t20.5 35q-19 2 -31 13t-12 30q0 25 17.5 42t44.5 17q20 0 34.5 -14.5t14.5 -38.5z" />
    <glyph glyph-name="uni021B" unicode="&#x21b;" horiz-adv-x="409" 
d="M334 26q-18 -14 -49 -25t-64 -11q-57 0 -92.5 31t-35.5 82q0 11 1.5 22t2.5 20l54 277h-90l16 82h91l43 137h78l-27 -137h139l-16 -82h-139l-55 -285q-1 -5 -1.5 -10t-0.5 -12q0 -17 12.5 -28.5t32.5 -11.5q19 0 35 6.5t32 16.5zM238 -95q0 -27 -16.5 -58t-40.5 -63h-58
q14 19 26.5 37t20.5 35q-19 2 -31 13t-12 30q0 25 17.5 42t44.5 17q20 0 34.5 -14.5t14.5 -38.5z" />
    <glyph glyph-name="uni0237" unicode="&#x237;" horiz-adv-x="252" 
d="M-50 -191q-46 0 -89 20l34 77q29 -12 56 -12q26 0 45.5 16.5t26.5 53.5l105 540h95l-105 -534q-16 -80 -56.5 -120.5t-111.5 -40.5z" />
    <glyph glyph-name="circumflex" unicode="&#x2c6;" horiz-adv-x="500" 
d="M393 577l-61 71l-89 -71h-85l143 147h82l85 -147h-75z" />
    <glyph glyph-name="caron" unicode="&#x2c7;" horiz-adv-x="500" 
d="M504 730l-148 -158h-82l-87 158h75l63 -80l94 80h85z" />
    <glyph glyph-name="breve" unicode="&#x2d8;" horiz-adv-x="500" 
d="M309 567q-58 0 -94.5 36t-36.5 94q0 18 4 33h69q-1 -6 -1.5 -12t-0.5 -11q0 -31 20 -50.5t51 -19.5q38 0 67.5 26.5t37.5 66.5h75q-14 -72 -64.5 -117.5t-126.5 -45.5z" />
    <glyph glyph-name="ring" unicode="&#x2da;" horiz-adv-x="500" 
d="M319 564q-47 0 -77.5 29t-30.5 76q0 60 39 99t97 39q47 0 77.5 -29t30.5 -75q0 -61 -39 -100t-97 -39zM325 625q27 0 45.5 21t18.5 50q0 21 -13.5 35t-34.5 14q-27 0 -45.5 -20.5t-18.5 -48.5q0 -22 13.5 -36.5t34.5 -14.5z" />
    <glyph glyph-name="tilde" unicode="&#x2dc;" horiz-adv-x="500" 
d="M402 579q-23 0 -44 9t-46 30q-16 14 -27 21.5t-23 7.5q-16 0 -27 -15.5t-12 -43.5l-77 10q2 58 30.5 91.5t75.5 33.5q23 0 44 -9t46 -30q16 -14 27 -21.5t23 -7.5q16 0 27 15.5t12 43.5l77 -10q-2 -58 -30.5 -91.5t-75.5 -33.5z" />
    <glyph glyph-name="gravecomb" unicode="&#x300;" horiz-adv-x="0" 
d="M-33 577l-107 147h116l64 -147h-73z" />
    <glyph glyph-name="acutecomb" unicode="&#x301;" horiz-adv-x="0" 
d="M-18 577l77 147h117l-120 -147h-74z" />
    <glyph glyph-name="uni0302" unicode="&#x302;" horiz-adv-x="0" 
d="M95 577l-61 71l-89 -71h-85l143 147h82l85 -147h-75z" />
    <glyph glyph-name="tildecomb" unicode="&#x303;" horiz-adv-x="0" 
d="M104 579q-23 0 -44 9t-46 30q-16 14 -27 21.5t-23 7.5q-16 0 -27 -15.5t-12 -43.5l-77 10q2 58 30.5 91.5t75.5 33.5q23 0 44 -9t46 -30q16 -14 27 -21.5t23 -7.5q16 0 27 15.5t12 43.5l77 -10q-2 -58 -30.5 -91.5t-75.5 -33.5z" />
    <glyph glyph-name="uni0306" unicode="&#x306;" horiz-adv-x="0" 
d="M12 567q-58 0 -94.5 36t-36.5 94q0 18 4 33h69q-1 -6 -1.5 -12t-0.5 -11q0 -31 20 -50.5t51 -19.5q38 0 67.5 26.5t37.5 66.5h75q-14 -72 -64.5 -117.5t-126.5 -45.5z" />
    <glyph glyph-name="uni0308" unicode="&#x308;" horiz-adv-x="0" 
d="M-88 603q-25 0 -40 14.5t-15 36.5q0 30 20.5 50.5t48.5 20.5q25 0 40 -14.5t15 -36.5q0 -30 -20.5 -50.5t-48.5 -20.5zM138 603q-25 0 -40 14.5t-15 36.5q0 30 20.5 50.5t48.5 20.5q25 0 40 -14.5t15 -36.5q0 -30 -20.5 -50.5t-48.5 -20.5z" />
    <glyph glyph-name="uni030A" unicode="&#x30a;" horiz-adv-x="0" 
d="M14 564q-47 0 -77.5 29t-30.5 76q0 60 39 99t97 39q47 0 77.5 -29t30.5 -75q0 -61 -39 -100t-97 -39zM20 625q27 0 45.5 21t18.5 50q0 21 -13.5 35t-34.5 14q-27 0 -45.5 -20.5t-18.5 -48.5q0 -22 13.5 -36.5t34.5 -14.5z" />
    <glyph glyph-name="uni030C" unicode="&#x30c;" horiz-adv-x="0" 
d="M206 730l-148 -158h-82l-87 158h75l63 -80l94 80h85z" />
    <glyph glyph-name="uni0326" unicode="&#x326;" horiz-adv-x="236" 
d="M101 -95q0 -27 -16.5 -58t-40.5 -63h-58q14 19 26.5 37t20.5 35q-19 2 -31 13t-12 30q0 25 17.5 42t44.5 17q20 0 34.5 -14.5t14.5 -38.5z" />
    <glyph glyph-name="uni0327" unicode="&#x327;" horiz-adv-x="0" 
d="M106 -136q0 -44 -38 -70.5t-90 -26.5q-28 0 -52 7.5t-42 24.5l38 44q8 -6 23 -12t33 -6q22 0 38.5 10t16.5 27q0 28 -40 28q-16 0 -31 -6l-29 31l43 94h53l-26 -66q7 1 15 1q40 0 64 -21.5t24 -58.5z" />
    <glyph glyph-name="Wgrave" unicode="&#x1e80;" horiz-adv-x="949" 
d="M577 0l-44 540l-263 -540h-106l-45 680h97l30 -541l258 541h102l46 -541l240 541h104l-314 -680h-105zM512 734l-92 129h107l49 -129h-64z" />
    <glyph glyph-name="wgrave" unicode="&#x1e81;" horiz-adv-x="772" 
d="M442 0l-34 378l-178 -378h-103l-49 504h93l29 -399l182 399h96l29 -400l183 400h103l-249 -504h-102zM403 577l-107 147h116l64 -147h-73z" />
    <glyph glyph-name="Wacute" unicode="&#x1e82;" horiz-adv-x="949" 
d="M577 0l-44 540l-263 -540h-106l-45 680h97l30 -541l258 541h102l46 -541l240 541h104l-314 -680h-105zM520 734l74 129h116l-117 -129h-73z" />
    <glyph glyph-name="wacute" unicode="&#x1e83;" horiz-adv-x="772" 
d="M442 0l-34 378l-178 -378h-103l-49 504h93l29 -399l182 399h96l29 -400l183 400h103l-249 -504h-102zM418 577l77 147h117l-120 -147h-74z" />
    <glyph glyph-name="Wdieresis" unicode="&#x1e84;" horiz-adv-x="949" 
d="M577 0l-44 540l-263 -540h-106l-45 680h97l30 -541l258 541h102l46 -541l240 541h104l-314 -680h-105zM459 736q-25 0 -40 14.5t-15 36.5q0 30 20.5 50.5t48.5 20.5q25 0 40 -14.5t15 -36.5q0 -30 -20.5 -50.5t-48.5 -20.5zM685 736q-25 0 -40 14.5t-15 36.5
q0 30 20.5 50.5t48.5 20.5q25 0 40 -14.5t15 -36.5q0 -30 -20.5 -50.5t-48.5 -20.5z" />
    <glyph glyph-name="wdieresis" unicode="&#x1e85;" horiz-adv-x="772" 
d="M442 0l-34 378l-178 -378h-103l-49 504h93l29 -399l182 399h96l29 -400l183 400h103l-249 -504h-102zM348 603q-25 0 -40 14.5t-15 36.5q0 30 20.5 50.5t48.5 20.5q25 0 40 -14.5t15 -36.5q0 -30 -20.5 -50.5t-48.5 -20.5zM574 603q-25 0 -40 14.5t-15 36.5
q0 30 20.5 50.5t48.5 20.5q25 0 40 -14.5t15 -36.5q0 -30 -20.5 -50.5t-48.5 -20.5z" />
    <glyph glyph-name="uni1E9E" unicode="&#x1e9e;" horiz-adv-x="680" 
d="M613 193q0 -60 -30.5 -105.5t-84.5 -71.5t-125 -26q-94 0 -162 49l47 76q28 -19 57 -28t66 -9q58 0 94 30.5t36 84.5q0 109 -182 109l15 73l187 228h-159q-64 0 -99 -30.5t-47 -91.5l-95 -481h-101l96 488q20 100 80 151t166 51h306l-15 -77l-211 -242q75 -15 118 -63.5
t43 -114.5z" />
    <glyph glyph-name="Ygrave" unicode="&#x1ef2;" horiz-adv-x="606" 
d="M355 270l-53 -270h-99l53 270l-153 410h110l106 -316l231 316h119zM342 734l-92 129h107l49 -129h-64z" />
    <glyph glyph-name="ygrave" unicode="&#x1ef3;" horiz-adv-x="556" 
d="M252 -47q-44 -74 -92 -109t-114 -35q-20 0 -41 5.5t-39 16.5l38 77q14 -8 27 -11t26 -3q55 0 98 66l36 57l-118 487h101l82 -377l215 377h109zM297 577l-107 147h116l64 -147h-73z" />
    <glyph glyph-name="uni2000" unicode="&#x2000;" horiz-adv-x="500" 
 />
    <glyph glyph-name="uni2001" unicode="&#x2001;" horiz-adv-x="1000" 
 />
    <glyph glyph-name="uni2002" unicode="&#x2002;" horiz-adv-x="500" 
 />
    <glyph glyph-name="uni2003" unicode="&#x2003;" horiz-adv-x="1000" 
 />
    <glyph glyph-name="uni2004" unicode="&#x2004;" horiz-adv-x="334" 
 />
    <glyph glyph-name="uni2005" unicode="&#x2005;" horiz-adv-x="250" 
 />
    <glyph glyph-name="uni2006" unicode="&#x2006;" horiz-adv-x="167" 
 />
    <glyph glyph-name="uni2007" unicode="&#x2007;" 
 />
    <glyph glyph-name="uni2008" unicode="&#x2008;" horiz-adv-x="300" 
 />
    <glyph glyph-name="uni2009" unicode="&#x2009;" horiz-adv-x="200" 
 />
    <glyph glyph-name="uni200A" unicode="&#x200a;" horiz-adv-x="100" 
 />
    <glyph glyph-name="uni200B" unicode="&#x200b;" horiz-adv-x="0" 
 />
    <glyph glyph-name="endash" unicode="&#x2013;" horiz-adv-x="550" 
d="M39 325h500l-16 -85h-500z" />
    <glyph glyph-name="emdash" unicode="&#x2014;" horiz-adv-x="900" 
d="M64 325h800l-16 -85h-800z" />
    <glyph glyph-name="quoteleft" unicode="&#x2018;" horiz-adv-x="240" 
d="M242 540q0 -30 -20.5 -50.5t-50.5 -20.5q-25 0 -43 17.5t-18 43.5q0 24 15 57.5t41.5 69.5t60.5 68h75q-32 -30 -59 -64.5t-43 -63.5q18 -5 30 -20.5t12 -36.5z" />
    <glyph glyph-name="quoteright" unicode="&#x2019;" horiz-adv-x="240" 
d="M282 669q0 -25 -15 -58t-41.5 -69t-60.5 -68h-75q32 30 59 64.5t43 63.5q-18 5 -30 20.5t-12 36.5q0 30 20.5 50.5t50.5 20.5q26 0 43.5 -17.5t17.5 -43.5z" />
    <glyph glyph-name="quotesinglbase" unicode="&#x201a;" horiz-adv-x="240" 
d="M163 58q0 -24 -15 -57.5t-41.5 -69.5t-60.5 -68h-75q32 30 59 64.5t43 63.5q-18 5 -30 20.5t-12 36.5q0 30 20.5 50.5t50.5 20.5q26 0 43.5 -17.5t17.5 -43.5z" />
    <glyph glyph-name="quotedblleft" unicode="&#x201c;" horiz-adv-x="428" 
d="M242 540q0 -30 -20.5 -50.5t-50.5 -20.5q-25 0 -43 17.5t-18 43.5q0 24 15 57.5t41.5 69.5t60.5 68h75q-32 -30 -59 -64.5t-43 -63.5q18 -5 30 -20.5t12 -36.5zM430 540q0 -30 -20.5 -50.5t-50.5 -20.5q-25 0 -43 17.5t-18 43.5q0 24 15 57.5t41.5 69.5t60.5 68h75
q-32 -30 -59 -64.5t-43 -63.5q18 -5 30 -20.5t12 -36.5z" />
    <glyph glyph-name="quotedblright" unicode="&#x201d;" horiz-adv-x="428" 
d="M282 669q0 -25 -15 -58t-41.5 -69t-60.5 -68h-75q32 30 59 64.5t43 63.5q-18 5 -30 20.5t-12 36.5q0 30 20.5 50.5t50.5 20.5q26 0 43.5 -17.5t17.5 -43.5zM470 669q0 -25 -15 -58t-41.5 -69t-60.5 -68h-75q32 30 59 64.5t43 63.5q-18 5 -30 20.5t-12 36.5
q0 30 20.5 50.5t50.5 20.5q26 0 43.5 -17.5t17.5 -43.5z" />
    <glyph glyph-name="quotedblbase" unicode="&#x201e;" horiz-adv-x="428" 
d="M163 58q0 -24 -15 -57.5t-41.5 -69.5t-60.5 -68h-75q32 30 59 64.5t43 63.5q-18 5 -30 20.5t-12 36.5q0 30 20.5 50.5t50.5 20.5q26 0 43.5 -17.5t17.5 -43.5zM351 58q0 -24 -15 -57.5t-41.5 -69.5t-60.5 -68h-75q32 30 59 64.5t43 63.5q-18 5 -30 20.5t-12 36.5
q0 30 20.5 50.5t50.5 20.5q26 0 43.5 -17.5t17.5 -43.5z" />
    <glyph glyph-name="bullet" unicode="&#x2022;" horiz-adv-x="500" 
d="M244 165q-58 0 -96.5 37.5t-38.5 96.5q0 49 23 87.5t62.5 61.5t87.5 23q58 0 96.5 -37.5t38.5 -96.5q0 -49 -23 -87.5t-62.5 -61.5t-87.5 -23z" />
    <glyph glyph-name="ellipsis" unicode="&#x2026;" horiz-adv-x="723" 
d="M319 -9q-25 0 -43 17.5t-18 42.5q0 32 21.5 51.5t49.5 19.5q25 0 43 -17t18 -43q0 -32 -21.5 -51.5t-49.5 -19.5zM559 -9q-25 0 -43 17.5t-18 42.5q0 32 21.5 51.5t49.5 19.5q25 0 43 -17t18 -43q0 -32 -21.5 -51.5t-49.5 -19.5zM79 -9q-25 0 -43 17.5t-18 42.5
q0 32 21.5 51.5t49.5 19.5q25 0 43 -17t18 -43q0 -32 -21.5 -51.5t-49.5 -19.5z" />
    <glyph glyph-name="guilsinglleft" unicode="&#x2039;" horiz-adv-x="337" 
d="M331 424l-180 -177l106 -167h-111l-109 172l175 172h119z" />
    <glyph glyph-name="guilsinglright" unicode="&#x203a;" horiz-adv-x="337" 
d="M300 252l-175 -172h-119l180 177l-106 167h111z" />
    <glyph glyph-name="fraction" unicode="&#x2044;" horiz-adv-x="152" 
d="M331 680h114l-590 -680h-114z" />
    <glyph glyph-name="Euro" unicode="&#x20ac;" horiz-adv-x="691" 
d="M632 108q-40 -57 -103 -87.5t-139 -30.5q-106 0 -175 61t-87 165h-85l19 84h61q2 36 8 71h-58l19 84h64q27 67 74 118t108.5 79t132.5 28q75 0 135.5 -29.5t97.5 -83.5l-72 -59q-63 86 -164 86q-68 0 -121.5 -37.5t-84.5 -101.5h301l-49 -84h-280q-7 -34 -9 -71h257
l-49 -84h-202q14 -67 56.5 -103.5t109.5 -36.5q104 0 169 87z" />
    <glyph glyph-name="uni20BA" unicode="&#x20ba;" 
d="M569 258q-49 -258 -329 -258h-154l44 227l-76 -15l16 83l76 15l14 72l-76 -15l16 83l76 15l39 201h98l-35 -181l160 31l-16 -83l-160 -31l-14 -72l160 31l-16 -83l-160 -31l-32 -164h55q188 0 221 175h93z" />
    <glyph glyph-name="uni20BD" unicode="&#x20bd;" 
d="M381 107h-203l-21 -107h-98l21 107h-74l17 83h73l14 72h-73l16 83h73l62 321h207q101 0 157 -44t56 -123q0 -73 -36.5 -126t-102 -82t-152.5 -29h-109l-14 -72h204zM224 345h109q76 0 123.5 37t47.5 102q0 46 -33 71.5t-92 25.5h-109z" />
    <glyph glyph-name="trademark" unicode="&#x2122;" horiz-adv-x="905" 
d="M222 610h-114v70h312v-70h-114v-290h-84v290zM635 364l-91 210v-254h-75v360h100l102 -230l100 230h100v-360h-74v259l-92 -215h-70z" />
    <glyph glyph-name="minus" unicode="&#x2212;" 
d="M90 289l16 85h426l-16 -85h-426z" />
    <glyph glyph-name="zero.pnum" horiz-adv-x="652" 
d="M299 -10q-78 0 -128.5 35t-74.5 94.5t-24 134.5q0 86 24 162t66.5 134.5t99.5 92t123 33.5q78 0 128.5 -35t74.5 -94.5t24 -134.5q0 -86 -24 -162t-66.5 -134.5t-99.5 -92t-123 -33.5zM301 75q50 0 89 28.5t66 76.5t41 107t14 120q0 83 -30.5 133.5t-97.5 50.5
q-50 0 -89 -28.5t-66 -76.5t-41 -107t-14 -120q0 -83 30.5 -133.5t97.5 -50.5z" />
    <glyph glyph-name="one.pnum" horiz-adv-x="408" 
d="M395 666l-132 -666h-97l110 556l-146 -59l-28 85l210 84h83z" />
    <glyph glyph-name="two.pnum" horiz-adv-x="574" 
d="M489 86l-18 -86h-452l13 68l257 218q61 51 94.5 86.5t47.5 64.5t14 60q0 41 -30 67t-78 26q-102 0 -153 -106l-88 28q35 80 99.5 122t151.5 42q57 0 102 -23.5t71 -64t26 -92.5q0 -45 -17.5 -85t-59.5 -84.5t-115 -102.5l-172 -138h307z" />
    <glyph glyph-name="three.pnum" horiz-adv-x="581" 
d="M506 197q0 -61 -33 -108t-89 -73t-125 -26q-95 0 -153.5 34t-88.5 98l79 44q26 -51 68 -70.5t92 -19.5q64 0 106.5 29.5t42.5 82.5q0 50 -34 78t-99 28h-34l17 87h31q80 0 125 31.5t45 87.5q0 43 -33 66.5t-85 23.5q-58 0 -96.5 -27t-60.5 -68l-81 48q34 61 94 97t150 36
q98 0 155.5 -47t57.5 -122q0 -60 -39.5 -106t-100.5 -68q42 -18 65.5 -53t23.5 -83z" />
    <glyph glyph-name="four.pnum" horiz-adv-x="609" 
d="M544 142h-86l-28 -142h-98l28 142h-337l16 83l411 441h112l-87 -441h86zM149 225h228l61 309z" />
    <glyph glyph-name="five.pnum" horiz-adv-x="573" 
d="M511 238q0 -83 -34 -138t-90 -82.5t-124 -27.5q-97 0 -154 37.5t-82 93.5l80 42q24 -48 64 -67.5t89 -19.5q72 0 111 41t39 111q0 56 -32.5 89.5t-87.5 33.5q-44 0 -73 -15t-60 -43l-72 36l104 337h365l-17 -83h-282l-56 -181q51 31 120 31q53 0 96.5 -23.5t69.5 -67.5
t26 -104z" />
    <glyph glyph-name="six.pnum" horiz-adv-x="608" 
d="M547 236q0 -69 -30.5 -124.5t-85 -88.5t-127.5 -33q-107 0 -169 67t-62 194q0 76 18.5 151t56.5 137t96 99.5t137 37.5q78 0 130.5 -33.5t77.5 -83.5l-73 -43q-22 36 -56 55.5t-79 19.5q-59 0 -100.5 -31.5t-67.5 -85.5t-37 -122q25 35 69.5 58t106.5 23q56 0 100 -25.5
t69.5 -70.5t25.5 -101zM304 75q65 0 103.5 40.5t38.5 101.5q0 62 -35.5 98t-92.5 36q-65 0 -103.5 -40.5t-38.5 -101.5q0 -59 35.5 -96.5t92.5 -37.5z" />
    <glyph glyph-name="seven.pnum" horiz-adv-x="552" 
d="M577 589q-104 -81 -174.5 -181t-114 -206t-63.5 -202h-101q21 93 62 196.5t106 203.5t159 183h-347l16 83h472z" />
    <glyph glyph-name="eight.pnum" horiz-adv-x="612" 
d="M543 195q0 -57 -32 -103.5t-91 -74t-140 -27.5q-74 0 -126.5 23.5t-79.5 63.5t-27 90q0 63 41.5 113t121.5 68q-42 22 -64.5 60.5t-22.5 82.5q0 54 32 95.5t86.5 65.5t122.5 24q64 0 112.5 -21.5t76 -60.5t27.5 -91t-32.5 -98.5t-92.5 -70.5q43 -22 65.5 -59.5
t22.5 -79.5zM343 370q60 0 99 31.5t39 84.5q0 47 -33 76t-87 29q-63 0 -100.5 -31.5t-37.5 -84.5q0 -47 33 -76t87 -29zM283 75q45 0 81 15t57.5 42.5t21.5 65.5q0 45 -37.5 74.5t-98.5 29.5q-45 0 -81 -15t-57.5 -43t-21.5 -65q0 -45 37.5 -74.5t98.5 -29.5z" />
    <glyph glyph-name="nine.pnum" horiz-adv-x="608" 
d="M567 415q0 -76 -18.5 -151t-56.5 -137t-96 -99.5t-137 -37.5q-78 0 -130.5 33.5t-77.5 83.5l73 43q22 -36 56 -55.5t79 -19.5q59 0 100.5 31.5t67.5 85.5t37 122q-25 -35 -69.5 -58t-106.5 -23q-47 0 -92 22t-74 66t-29 109q0 69 30.5 124.5t85 88.5t127.5 33
q107 0 169 -67t62 -194zM322 315q65 0 103.5 40.5t38.5 101.5q0 59 -35.5 96.5t-92.5 37.5q-65 0 -103.5 -40.5t-38.5 -101.5q0 -59 35.5 -96.5t92.5 -37.5z" />
    <glyph glyph-name="one.dnom" horiz-adv-x="350" 
d="M266 400l-79 -400h-84l62 310l-89 -32l-22 67l144 55h68z" />
    <glyph glyph-name="two.dnom" horiz-adv-x="350" 
d="M282 70l-14 -70h-289l11 57l137 114q42 35 64 56t30 35.5t8 29.5q0 20 -14.5 32.5t-38.5 12.5q-55 0 -76 -57l-77 19q19 52 60 80t99 28q57 0 94.5 -31.5t37.5 -78.5q0 -29 -12 -54.5t-41 -54t-80 -66.5l-69 -52h170z" />
    <glyph glyph-name="three.dnom" horiz-adv-x="350" 
d="M285 119q0 -38 -21.5 -66.5t-57.5 -44t-79 -15.5q-59 0 -95.5 23.5t-53.5 66.5l69 31q21 -50 80 -50q30 0 51.5 14t21.5 40q0 51 -74 51h-24l13 66h26q45 0 67 15.5t22 40.5q0 21 -16 33t-42 12q-28 0 -48 -13.5t-30 -33.5l-70 30q20 38 57 63t99 25t98.5 -30t36.5 -75
q0 -37 -23 -63t-59 -38q24 -12 38 -33t14 -49z" />
    <glyph glyph-name="four.dnom" horiz-adv-x="350" 
d="M295 81h-52l-16 -81h-79l16 81h-199l14 68l232 251h95l-49 -250h52zM67 150h111l30 153z" />
    <glyph glyph-name="one.numr" horiz-adv-x="350" 
d="M318 667l-79 -400h-84l62 310l-89 -32l-22 67l144 55h68z" />
    <glyph glyph-name="three.numr" horiz-adv-x="350" 
d="M337 386q0 -38 -21.5 -66.5t-57.5 -44t-79 -15.5q-59 0 -95.5 23.5t-53.5 66.5l69 31q21 -50 80 -50q30 0 51.5 14t21.5 40q0 51 -74 51h-24l13 66h26q45 0 67 15.5t22 40.5q0 21 -16 33t-42 12q-28 0 -48 -13.5t-30 -33.5l-70 30q20 38 57 63t99 25t98.5 -30t36.5 -75
q0 -37 -23 -63t-59 -38q24 -12 38 -33t14 -49z" />
    <glyph glyph-name="percent.ss01" horiz-adv-x="859" 
d="M689 680h114l-589 -680h-115zM191 261q-75 0 -109 46t-34 114q0 67 24.5 124.5t68.5 92.5t102 35q74 0 108 -46t34 -114q0 -67 -24.5 -124.5t-68.5 -92.5t-101 -35zM196 331q32 0 55.5 25t36 66t12.5 88q0 42 -14.5 67.5t-48.5 25.5q-33 0 -56 -25t-35.5 -66t-12.5 -88
q0 -42 14.5 -67.5t48.5 -25.5zM649 -6q-75 0 -109 46t-34 114q0 67 24.5 124.5t68.5 92.5t102 35q74 0 108 -46t34 -114q0 -67 -24.5 -124.5t-68.5 -92.5t-101 -35zM654 64q32 0 55.5 25t36 66t12.5 88q0 42 -14.5 67.5t-48.5 25.5q-33 0 -56 -25t-35.5 -66t-12.5 -88
q0 -42 14.5 -67.5t48.5 -25.5z" />
    <glyph glyph-name="f.ss01" horiz-adv-x="387" 
d="M391 422h-158l-82 -422h-96l83 422h-77l16 82h77l15 78q14 74 59 116t119 42q36 0 65.5 -12t55.5 -35l-49 -63q-18 14 -36.5 19.5t-37.5 5.5q-67 0 -85 -92l-11 -59h158z" />
    <glyph glyph-name="periodcentered.loclCAT" horiz-adv-x="133" 
d="M74 262q-25 0 -43 17.5t-18 42.5q0 32 21.5 51.5t49.5 19.5q25 0 43 -17t18 -43q0 -32 -21.5 -51.5t-49.5 -19.5z" />
    <glyph glyph-name="periodcentered.loclCAT.cap" horiz-adv-x="0" 
d="M-100 302q-25 0 -43 17.5t-18 42.5q0 32 21.5 51.5t49.5 19.5q25 0 43 -17t18 -43q0 -32 -21.5 -51.5t-49.5 -19.5z" />
    <glyph glyph-name="i_j.dotless" horiz-adv-x="504" 
d="M202 -191q-46 0 -89 20l34 77q29 -12 56 -12q26 0 45.5 16.5t26.5 53.5l105 540h95l-105 -534q-16 -80 -56.5 -120.5t-111.5 -40.5zM30 0l98 504h95l-98 -504h-95z" />
    <glyph glyph-name="acutecomb.cap" horiz-adv-x="0" 
d="M-36 558l74 129h116l-117 -129h-73z" />
    <glyph glyph-name="Iacute_J_acutecomb" horiz-adv-x="606" 
d="M298 -12q-84 0 -132 34t-71 87l85 40q18 -34 43.5 -53.5t73.5 -19.5q55 0 83 32t39 85l97 487h99l-97 -489q-20 -103 -75 -153t-145 -50zM67 213l92 467h99l-92 -467h-99zM174 734l74 129h116l-117 -129h-73zM529 734l74 129h116l-117 -129h-73z" />
    <glyph glyph-name="iacute_j_acutecomb" horiz-adv-x="528" 
d="M202 -191q-46 0 -89 20l34 77q29 -12 56 -12q26 0 45.5 16.5t26.5 53.5l105 540h95l-105 -534q-16 -80 -56.5 -120.5t-111.5 -40.5zM30 0l98 504h95l-98 -504h-95zM145 577l77 147h117l-120 -147h-74zM398 577l77 147h117l-120 -147h-74z" />
    <glyph glyph-name="gravecomb.cap" horiz-adv-x="0" 
d="M-44 558l-92 129h107l49 -129h-64z" />
    <glyph glyph-name="uni02CB" horiz-adv-x="500" 
d="M335 577l-107 147h116l64 -147h-73z" />
    <glyph glyph-name="uni0302.cap" horiz-adv-x="0" 
d="M86 558l-58 64l-84 -64h-93l145 129h82l93 -129h-85z" />
    <glyph glyph-name="tildecomb.cap" horiz-adv-x="0" 
d="M96 549q-23 0 -44 9t-46 30q-16 14 -27 21.5t-23 7.5q-16 0 -27 -15.5t-12 -43.5l-77 10q2 58 30.5 91.5t75.5 33.5q23 0 44 -9t46 -30q16 -14 27 -21.5t23 -7.5q16 0 27 15.5t12 43.5l77 -10q-2 -58 -30.5 -91.5t-75.5 -33.5z" />
    <glyph glyph-name="uni030C.cap" horiz-adv-x="0" 
d="M197 692l-145 -129h-82l-93 129h85l58 -64l84 64h93z" />
    <glyph glyph-name="uni0308.cap" horiz-adv-x="0" 
d="M-97 560q-25 0 -40 14.5t-15 36.5q0 30 20.5 50.5t48.5 20.5q25 0 40 -14.5t15 -36.5q0 -30 -20.5 -50.5t-48.5 -20.5zM129 560q-25 0 -40 14.5t-15 36.5q0 30 20.5 50.5t48.5 20.5q25 0 40 -14.5t15 -36.5q0 -30 -20.5 -50.5t-48.5 -20.5z" />
    <glyph glyph-name="uni0306.cap" horiz-adv-x="0" 
d="M9 554q-60 0 -97.5 31t-37.5 82q0 13 3 26h70q-1 -4 -1.5 -7.5t-0.5 -7.5q0 -26 20 -42.5t54 -16.5q38 0 66.5 21t35.5 53h74q-12 -61 -62.5 -100t-123.5 -39z" />
    <glyph glyph-name="uni030A.cap" horiz-adv-x="0" 
d="M-2 447q-47 0 -79 29.5t-32 75.5q0 40 18.5 71t50 49t70.5 18q47 0 79 -29t32 -75q0 -40 -18.5 -71.5t-50 -49.5t-70.5 -18zM4 508q27 0 45.5 21t18.5 50q0 21 -13.5 35t-34.5 14q-27 0 -45.5 -20.5t-18.5 -48.5q0 -22 13.5 -36.5t34.5 -14.5z" />
    </font>
</defs>
</svg>
